{"glyphs":{"0":{"ha":760,"x_min":4,"x_max":760,"o":"m 228 -40 q 179 -40 228 -40 q 67 14 129 -40 q 4 156 4 68 q 13 221 4 188 q 138 417 44 340 q 320 519 203 472 q 526 567 438 567 q 559 566 547 567 q 571 556 571 565 q 554 544 571 547 q 361 501 456 536 q 92 274 175 433 q 51 132 51 199 q 93 26 51 65 q 223 -12 135 -12 q 407 33 311 -12 q 588 156 503 79 q 678 268 643 207 q 713 383 713 329 q 586 483 713 483 q 278 361 418 483 q 269 357 275 357 q 257 372 253 357 q 343 440 264 399 q 561 507 457 504 q 579 507 571 507 q 713 470 665 507 q 760 374 760 433 q 727 252 760 314 q 639 139 694 190 q 440 10 553 60 q 228 -40 328 -40 z "},"1":{"ha":339,"x_min":50,"x_max":376,"o":"m 85 0 q 65 -10 81 -10 q 50 4 50 -10 q 53 15 50 7 q 173 267 139 193 q 249 450 207 340 l 213 424 q 168 390 183 403 q 148 376 153 376 q 143 384 143 376 q 158 405 143 392 q 230 474 174 418 q 329 572 286 531 q 344 574 333 574 q 365 564 354 574 q 376 543 376 554 l 376 539 q 236 313 326 474 q 85 0 135 125 z "},"2":{"ha":524,"x_min":-12,"x_max":583,"o":"m 396 -46 q 388 -46 394 -47 q 382 -39 382 -44 q 392 -28 382 -33 q 418 -1 418 -14 q 367 35 418 18 q 257 51 317 51 q 39 -7 197 50 q 3 -15 19 -15 q -12 1 -12 -15 q 11 40 -12 18 q 63 61 36 61 q 288 181 153 92 q 488 353 422 271 q 553 486 553 435 q 484 542 553 542 q 326 481 415 542 q 215 351 236 421 q 203 339 211 339 q 199 346 199 339 q 294 503 214 440 q 476 565 375 565 q 556 536 526 565 q 583 460 583 506 q 533 337 583 392 q 413 238 483 282 q 353 200 392 224 q 171 76 210 115 q 429 3 429 76 q 396 -46 429 -35 z "},"3":{"ha":524,"x_min":-3,"x_max":610,"o":"m 100 406 q 197 533 104 492 q 359 574 290 574 q 481 558 428 574 q 606 463 585 529 q 610 436 610 449 q 567 349 610 389 q 476 288 524 310 q 394 258 429 267 q 297 239 358 250 q 438 201 394 235 q 482 121 482 168 q 433 33 482 74 q 178 -53 350 -39 q 131 -54 164 -54 q 56 -37 97 -54 q -1 32 -1 -14 q 17 78 -1 56 q 74 106 36 100 q 89 99 89 106 q 72 93 89 93 q 40 77 56 96 q 25 47 25 58 q 26 29 25 35 q 164 -25 43 -25 q 361 31 276 -25 q 419 118 419 67 q 307 213 419 185 q 225 226 253 226 q 181 226 197 226 q 165 239 165 226 q 197 254 165 256 q 251 254 210 254 q 381 276 293 254 q 518 344 468 297 q 564 429 564 392 q 508 513 564 482 q 373 544 451 544 q 209 505 294 544 q 121 404 124 465 q 115 386 121 392 q 103 387 108 381 q 100 406 99 393 z "},"4":{"ha":511,"x_min":13,"x_max":515,"o":"m 413 251 q 446 230 446 243 q 433 217 446 217 l 433 219 q 429 217 432 217 l 399 222 q 358 228 365 228 q 346 226 351 228 l 329 226 q 246 57 311 190 l 211 -17 q 193 -49 211 -18 q 176 -26 176 -49 q 231 110 176 -4 q 285 228 285 225 q 272 229 283 229 q 33 193 146 229 q 13 213 13 193 q 49 249 13 224 l 94 278 q 161 324 118 294 q 303 424 251 386 q 488 596 417 508 q 515 543 515 596 l 515 522 q 426 392 497 507 q 351 263 351 275 q 413 251 375 254 m 221 271 l 269 269 l 293 268 q 301 267 300 268 q 426 489 321 267 q 257 357 346 422 q 143 271 168 292 l 221 271 z "},"5":{"ha":510,"x_min":1,"x_max":557,"o":"m 557 501 q 283 465 351 493 l 276 465 l 268 463 q 260 460 260 463 q 196 360 235 431 q 310 382 267 382 q 450 265 450 382 q 356 65 450 167 q 149 -37 261 -37 q 47 -1 92 -37 q 1 96 1 35 q 15 140 1 101 q 38 174 31 174 q 50 160 50 174 q 42 138 50 158 q 35 104 35 117 q 142 -4 35 -4 q 252 28 197 -4 q 351 129 307 60 q 394 252 394 199 q 372 326 394 306 q 292 346 350 346 q 139 251 233 346 q 124 247 132 247 q 99 268 99 247 q 101 279 99 271 q 107 289 106 283 l 151 351 q 204 450 192 413 l 190 457 q 183 474 183 461 l 211 496 q 239 513 232 513 l 260 513 q 292 511 272 511 q 381 520 311 511 q 488 529 451 529 q 557 522 525 529 l 557 501 z "},"6":{"ha":456,"x_min":25,"x_max":426,"o":"m 171 261 q 165 272 165 264 q 216 322 165 293 q 290 350 267 350 q 385 310 349 350 q 421 213 421 269 q 329 39 421 125 q 149 -44 238 -44 q 56 7 88 -44 q 25 124 25 58 q 156 402 25 246 q 404 604 286 558 q 417 607 410 607 q 425 603 425 607 q 424 594 425 600 q 404 574 422 588 q 190 378 286 494 q 74 140 94 263 q 71 87 71 118 q 92 20 71 56 q 157 -15 114 -15 q 277 40 221 -15 q 360 171 333 96 q 369 232 369 199 q 299 317 369 317 q 194 271 257 317 q 171 261 176 261 z "},"7":{"ha":460,"x_min":32,"x_max":463,"o":"m 378 567 q 431 549 401 567 q 461 506 461 531 q 379 394 461 481 q 297 311 358 372 q 132 126 168 179 q 74 -24 74 38 q 74 -32 74 -28 q 67 -37 71 -37 q 56 -30 64 -37 q 42 -8 47 -22 q 32 33 32 13 q 41 69 32 54 q 52 88 50 83 q 69 111 54 92 q 94 142 85 131 q 185 247 103 154 q 401 524 401 496 q 376 535 401 536 q 194 494 278 528 q 83 432 111 461 q 68 440 75 422 q 65 460 65 447 q 73 485 65 474 q 87 499 81 496 q 103 506 93 503 q 117 510 114 508 q 378 567 272 567 z "},"8":{"ha":478,"x_min":-31,"x_max":619,"o":"m 479 510 q 609 574 599 574 q 619 566 619 574 q 610 551 619 558 q 537 510 572 526 q 492 488 501 493 q 511 431 506 458 q 500 404 513 404 q 483 411 492 404 q 451 464 475 418 q 340 387 433 458 q 239 304 246 315 q 278 185 278 228 q 210 27 278 94 q 60 -40 142 -40 q -9 -14 13 -40 q -31 49 -31 13 q 74 211 -31 114 q 181 300 118 250 q 158 394 158 349 q 221 521 158 479 q 360 561 275 561 q 479 510 444 561 m 439 485 q 344 535 415 535 q 249 503 296 535 q 203 414 203 471 q 228 331 203 381 q 439 485 424 475 m 13 32 q 65 -15 13 -15 q 174 40 117 -15 q 232 165 232 94 q 216 217 232 174 q 193 271 200 260 q 40 115 81 196 q 13 32 13 60 z "},"9":{"ha":472,"x_min":28,"x_max":476,"o":"m 432 457 q 446 522 446 499 q 379 574 446 574 q 186 471 296 574 q 78 283 78 367 q 121 235 78 235 q 205 260 153 235 q 283 306 257 286 q 349 369 308 325 q 393 418 389 414 q 403 422 394 422 q 425 409 413 422 q 438 390 438 396 q 363 267 438 383 q 213 -37 232 61 q 206 -65 208 -54 q 191 -76 203 -76 q 179 -60 179 -76 q 310 294 183 49 q 104 204 188 204 q 29 294 29 204 q 161 503 29 399 q 378 600 281 600 q 476 524 476 600 q 465 474 476 499 q 443 444 453 449 l 438 449 l 438 446 l 435 450 q 432 457 432 450 z "},"\u001e":{"ha":463,"x_min":0,"x_max":0,"o":""},"\u001f":{"ha":463,"x_min":0,"x_max":0,"o":""}," ":{"ha":256,"x_min":0,"x_max":0,"o":""},"!":{"ha":385,"x_min":85,"x_max":542,"o":"m 222 168 q 195 143 214 143 q 176 161 176 143 q 296 421 176 186 q 476 756 415 656 q 488 758 476 758 q 514 746 500 758 q 542 719 542 724 q 540 713 542 714 q 222 168 267 288 m 130 56 q 139 56 130 56 q 161 43 149 56 q 174 13 174 31 q 161 -16 174 -4 q 130 -28 149 -28 q 99 -15 111 -28 q 85 13 85 -6 q 98 43 85 31 q 130 56 111 56 z "},"\"":{"ha":294,"x_min":38,"x_max":279,"o":"m 253 649 q 279 619 279 649 q 193 385 279 590 l 179 385 l 206 606 q 221 636 207 622 q 253 649 236 649 m 110 649 q 135 617 135 649 q 50 385 135 586 l 38 385 l 63 604 q 80 636 65 624 q 110 649 94 649 z "},"#":{"ha":690,"x_min":24,"x_max":665,"o":"m 665 431 l 640 386 l 501 386 l 425 256 l 574 256 l 547 213 l 399 213 l 269 0 l 221 0 l 347 213 l 219 213 l 90 0 l 42 0 l 169 213 l 24 213 l 51 256 l 196 256 l 274 386 l 115 386 l 143 431 l 300 431 l 428 644 l 479 644 l 349 431 l 479 431 l 607 644 l 657 644 l 529 431 l 665 431 m 451 386 l 324 386 l 244 256 l 374 256 l 451 386 z "},"$":{"ha":415,"x_min":-62,"x_max":440,"o":"m 440 451 q 426 408 440 426 q 390 390 411 390 q 360 403 369 390 q 349 432 347 415 q 390 471 350 471 q 418 456 414 471 q 360 511 411 501 l 251 315 q 314 178 314 232 q 239 47 314 94 q 76 -1 164 -1 l 51 -51 l 19 -57 l 51 0 q -62 49 -36 17 q -46 71 -61 56 l -37 71 q 63 19 1 32 l 201 271 q 146 389 146 340 q 210 495 146 458 q 346 532 274 532 l 372 581 l 401 586 l 371 529 q 440 451 440 518 m 256 161 q 218 251 256 201 l 88 17 q 203 58 150 17 q 256 161 256 99 m 324 515 q 243 488 282 515 q 204 413 204 457 q 215 374 204 390 q 238 335 226 351 l 338 515 l 324 515 z "},"%":{"ha":575,"x_min":-31,"x_max":574,"o":"m 247 678 q 321 610 321 678 q 288 498 321 565 q 221 400 254 431 q 258 378 231 378 q 382 440 303 378 q 476 538 410 463 q 550 615 546 613 q 565 618 556 618 q 574 613 574 618 l 4 -78 l -29 -78 l -31 -74 q 404 438 111 75 q 257 361 318 361 q 203 385 224 361 q 122 353 163 353 q 57 435 57 356 q 81 531 57 475 q 155 633 106 588 q 247 678 204 678 m 451 297 q 522 224 522 297 q 456 63 522 151 q 328 -26 390 -26 q 258 54 258 -26 q 282 151 258 94 q 356 252 306 207 q 451 297 406 297 m 263 647 q 199 613 233 647 q 138 518 165 578 q 110 416 110 458 q 140 374 110 374 q 193 397 165 374 q 179 443 179 419 q 208 482 179 482 q 238 454 238 482 q 236 444 238 449 q 274 518 253 467 q 296 608 296 569 q 263 647 296 647 m 438 65 q 478 142 458 90 q 497 231 497 194 q 463 268 497 268 q 400 232 436 268 q 338 135 365 194 q 310 34 310 75 q 343 -7 310 -7 q 438 65 379 -7 z "},"&":{"ha":661,"x_min":-25,"x_max":711,"o":"m 97 -219 q 189 -290 114 -290 q 255 -265 224 -290 q 308 -186 286 -239 q 364 -8 343 -100 q 308 -17 311 -17 q 215 -254 265 -199 q 206 -253 208 -261 l 207 -247 q 293 -17 253 -197 q 257 -18 278 -18 q 206 -16 236 -18 q 142 -5 175 -14 q 71 20 108 4 q 8 67 33 36 q -25 144 -25 103 q 0 233 -25 185 q 58 317 25 282 q 186 424 110 374 q 121 488 149 449 q 65 632 65 567 q 82 699 65 667 q 191 765 117 765 q 308 692 265 765 q 356 515 346 631 l 433 558 q 481 703 453 669 q 531 736 508 736 q 568 686 568 736 q 529 613 568 644 q 458 561 494 583 q 442 422 447 513 q 538 482 497 443 q 592 567 578 521 q 599 571 593 572 q 603 564 604 569 q 544 476 589 517 q 440 411 500 435 q 440 390 440 404 q 439 369 439 376 q 583 415 511 415 q 711 315 711 415 q 654 174 711 253 q 415 8 569 50 q 354 -204 399 -110 q 210 -310 304 -310 q 128 -284 164 -310 q 89 -219 93 -258 q 92 -214 86 -214 q 97 -219 97 -217 m 268 143 q 272 138 268 143 q 269 132 275 132 q 260 136 263 132 q 250 172 250 153 q 257 211 250 190 q 335 311 276 261 q 336 388 336 336 q 318 388 326 388 q 211 410 260 388 q 143 347 186 390 q 71 250 100 303 q 42 157 42 197 q 108 49 42 83 q 297 3 193 3 q 333 288 321 108 q 261 174 264 238 q 268 143 261 154 m 675 286 q 550 375 675 375 q 436 346 490 375 q 431 244 433 310 q 415 26 426 101 q 625 164 554 63 q 675 286 675 235 m 182 754 q 103 707 132 754 q 82 631 82 674 q 136 496 82 571 q 203 435 167 456 q 332 504 215 442 q 301 651 326 585 q 182 754 261 754 m 365 11 q 406 333 379 83 q 351 301 371 317 q 344 232 350 278 q 313 4 329 79 q 365 11 329 6 m 357 504 q 358 438 358 461 q 358 403 358 415 q 413 413 376 404 q 431 543 424 501 l 357 504 m 324 401 q 336 401 331 401 q 333 492 336 433 q 226 422 290 471 q 324 401 274 401 m 463 576 q 517 628 485 590 q 549 684 549 665 q 538 704 549 703 q 508 685 528 704 q 463 576 483 657 m 408 361 l 411 401 q 358 389 386 393 l 354 325 q 408 361 383 347 z "},"'":{"ha":201,"x_min":99,"x_max":257,"o":"m 256 481 q 217 401 256 456 q 133 322 178 347 q 105 310 111 310 q 99 316 99 310 q 126 354 99 322 q 185 440 154 386 q 163 478 163 443 q 177 509 163 494 q 204 524 192 524 q 218 524 217 524 q 256 481 256 524 z "},"(":{"ha":490,"x_min":56,"x_max":565,"o":"m 565 785 q 251 525 393 715 q 110 139 110 335 q 138 -93 110 -57 q 143 -110 143 -100 q 131 -124 143 -124 q 101 -107 118 -124 q 70 -6 85 -90 q 56 132 56 78 q 183 533 56 360 q 465 778 276 661 q 544 813 522 813 q 565 785 565 813 z "},")":{"ha":571,"x_min":10,"x_max":518,"o":"m 518 551 q 390 149 518 319 q 110 -96 297 19 q 32 -131 54 -131 q 10 -104 10 -131 q 322 158 181 -32 q 463 544 463 347 q 435 774 463 740 q 428 793 428 785 q 443 807 428 807 q 471 789 454 807 q 503 689 488 771 q 518 551 518 607 z "},"*":{"ha":399,"x_min":15,"x_max":376,"o":"m 224 326 l 274 224 q 267 204 274 215 q 251 196 258 196 q 218 247 240 196 l 190 310 l 90 200 q 78 196 83 196 q 54 214 54 196 q 63 229 54 221 l 156 324 l 33 318 q 20 326 25 318 q 15 343 15 333 q 35 360 15 360 l 168 360 q 113 490 113 485 q 125 496 113 496 q 153 468 138 496 q 201 371 168 440 l 310 479 q 322 485 315 485 q 329 472 329 485 q 315 446 329 460 l 238 360 l 363 360 q 376 351 376 360 q 346 331 376 332 l 224 326 z "},"+":{"ha":424,"x_min":126,"x_max":443,"o":"m 426 221 q 443 207 443 221 q 429 196 443 196 q 400 194 415 196 q 301 190 329 192 q 279 63 294 158 q 268 53 279 57 q 249 47 258 47 q 235 63 232 47 q 247 112 236 69 q 267 188 258 154 q 136 179 217 186 q 126 201 126 179 q 147 224 126 224 l 201 224 q 276 221 268 221 q 308 356 282 247 q 328 375 313 375 q 333 355 339 375 q 307 221 328 335 l 426 221 z "},",":{"ha":215,"x_min":21,"x_max":179,"o":"m 178 29 q 138 -51 178 3 q 56 -129 99 -104 q 27 -143 33 -143 q 21 -140 21 -143 q 39 -111 21 -132 q 110 -12 65 -85 q 85 26 85 -8 q 100 58 85 43 q 143 72 115 72 q 178 29 178 72 z "},"-":{"ha":351,"x_min":29,"x_max":338,"o":"m 56 156 q 29 167 29 156 q 47 188 29 174 q 88 207 68 200 q 152 214 108 214 q 267 206 196 214 q 338 186 338 197 q 281 174 338 175 q 172 165 224 172 q 90 156 119 157 q 56 156 61 156 z "},".":{"ha":222,"x_min":85,"x_max":174,"o":"m 130 56 q 139 56 130 56 q 161 43 149 56 q 174 13 174 31 q 161 -16 174 -4 q 130 -28 149 -28 q 99 -15 111 -28 q 85 13 85 -6 q 98 43 85 31 q 130 56 111 56 z "},"/":{"ha":507,"x_min":18,"x_max":796,"o":"m 782 718 q 796 700 796 708 q 790 692 796 692 q 772 698 783 692 q 749 704 761 704 q 551 551 689 704 q 302 247 469 461 q 40 -31 135 32 q 24 -37 31 -37 q 18 -31 18 -37 q 26 -18 18 -25 q 263 257 160 104 q 321 342 283 286 l 375 424 q 546 631 460 547 q 729 732 654 732 q 782 718 754 732 z "},":":{"ha":222,"x_min":93,"x_max":267,"o":"m 253 236 q 260 230 253 236 q 267 206 267 224 q 253 175 267 188 q 223 163 240 163 q 190 175 206 163 q 178 206 178 188 q 190 236 178 224 q 223 249 206 249 q 253 236 240 249 m 93 37 q 93 45 93 37 q 106 67 93 54 q 137 79 118 79 q 169 67 156 79 q 182 37 182 54 q 169 7 182 19 q 137 -6 156 -6 q 106 7 118 -6 q 93 37 93 19 z "},";":{"ha":215,"x_min":21,"x_max":300,"o":"m 288 264 q 300 235 300 251 q 288 206 300 218 q 256 193 272 193 q 224 206 239 193 q 211 235 211 218 q 224 264 211 251 q 256 276 239 276 q 288 264 272 276 m 178 29 q 138 -51 178 3 q 56 -129 99 -104 q 27 -143 33 -143 q 21 -140 21 -143 q 39 -111 21 -132 q 110 -12 65 -85 q 85 26 85 -8 q 100 58 85 43 q 143 72 115 72 q 178 29 178 72 z "},"<":{"ha":304,"x_min":104,"x_max":308,"o":"m 308 275 q 238 213 297 258 q 158 157 185 176 l 157 32 l 153 22 l 146 19 q 139 22 144 19 q 119 94 132 40 q 104 165 107 149 q 301 285 293 285 l 307 282 l 308 275 z "},"=":{"ha":424,"x_min":136,"x_max":379,"o":"m 379 299 q 363 288 379 288 q 247 283 283 288 q 197 278 210 279 q 176 275 185 276 q 153 272 160 272 l 151 272 q 136 294 136 272 q 151 317 136 317 l 288 317 q 379 299 379 317 m 379 206 q 363 196 379 196 q 252 191 294 196 q 197 185 210 186 q 176 182 185 183 q 153 179 160 179 l 151 179 q 136 201 136 179 q 151 224 136 224 l 288 224 q 379 206 379 224 z "},">":{"ha":304,"x_min":25,"x_max":229,"o":"m 229 139 l 40 21 l 33 19 q 26 21 29 19 l 25 25 q 99 92 25 38 l 175 146 l 176 272 l 181 281 l 188 285 l 196 281 q 215 210 206 260 l 229 139 z "},"?":{"ha":556,"x_min":79,"x_max":563,"o":"m 189 188 l 185 168 q 166 151 183 151 q 141 167 149 151 q 133 193 133 182 q 193 317 133 247 q 322 443 226 356 q 450 565 385 496 q 506 666 506 621 q 461 711 506 711 q 235 635 354 711 q 111 529 144 578 q 92 521 104 521 q 81 532 81 521 q 90 557 81 543 q 224 671 125 608 q 451 751 346 751 q 527 726 492 751 q 563 657 563 700 q 501 526 563 593 q 371 413 460 479 q 238 306 282 346 q 178 201 178 254 l 178 200 q 189 188 178 188 m 124 56 q 134 56 124 56 q 156 43 143 56 q 168 13 168 31 q 156 -16 168 -4 q 124 -28 143 -28 q 93 -15 106 -28 q 79 13 79 -6 q 92 43 79 31 q 124 56 106 56 z "},"@":{"ha":903,"x_min":18,"x_max":864,"o":"m 267 46 q 261 46 264 46 q 86 106 154 46 q 18 263 18 167 q 26 335 18 297 q 164 553 60 465 q 351 659 235 611 q 589 707 467 707 q 856 610 811 707 q 864 563 864 592 q 836 489 864 533 q 836 475 836 482 q 803 357 836 424 q 710 238 765 290 q 500 100 618 154 q 267 46 372 46 m 610 604 q 579 615 579 604 q 659 625 579 625 q 782 591 739 625 q 833 508 825 557 q 850 563 850 538 q 769 649 850 618 q 590 681 688 681 q 415 656 485 681 q 225 550 300 614 q 102 394 149 482 q 56 229 56 306 q 104 108 56 153 q 256 64 153 64 q 467 117 358 64 q 650 239 575 171 q 788 428 749 328 q 553 239 681 303 q 485 215 507 215 q 454 218 464 215 q 416 262 429 226 q 402 328 403 297 q 403 360 401 358 q 381 328 393 346 q 360 297 369 310 q 342 272 351 285 q 320 248 332 260 q 297 228 308 236 q 254 213 275 210 q 208 274 208 219 q 243 396 208 329 q 336 517 278 463 q 453 572 394 572 q 506 558 481 572 q 531 515 531 544 q 504 481 531 485 q 514 511 514 497 q 501 532 514 525 q 476 539 488 539 q 406 505 447 539 q 325 415 365 471 q 268 319 285 360 q 251 260 251 279 q 264 242 251 242 q 307 267 279 242 q 417 408 335 293 q 449 438 438 438 q 460 406 461 438 q 458 350 458 374 q 503 240 458 240 q 544 253 519 240 q 794 453 703 339 q 800 499 800 474 q 663 607 800 607 l 610 604 z "},"A":{"ha":1068,"x_min":7,"x_max":1140,"o":"m 925 786 q 976 721 976 786 q 959 534 976 686 q 938 294 942 382 q 1024 310 1007 299 q 1041 313 1040 321 q 1017 290 1042 304 q 938 267 993 275 q 938 181 938 242 q 983 1 938 46 q 1012 -15 1000 -15 q 1040 -10 1024 -15 q 1081 22 1056 -6 q 1124 90 1106 49 q 1134 101 1129 103 q 1139 94 1139 99 q 1138 85 1139 90 q 1081 -1 1119 33 q 929 -19 996 -79 q 885 69 894 11 q 876 176 876 128 q 878 260 876 224 q 704 258 857 258 q 546 107 631 178 q 567 106 556 106 q 744 208 667 106 q 753 207 750 215 l 753 201 q 567 92 669 92 q 532 94 549 92 q 163 -79 315 -79 q 36 -33 81 -79 q 8 42 8 -3 q 55 153 8 107 q 166 220 101 199 q 335 258 231 242 q 300 415 300 338 q 419 725 300 626 q 550 776 483 776 q 599 769 574 776 q 714 656 686 747 q 725 581 725 621 q 614 282 725 447 l 676 282 q 786 424 704 310 q 910 592 868 539 q 924 708 924 682 q 899 757 924 757 q 821 700 869 757 q 789 657 794 669 q 775 650 783 644 q 800 703 767 661 q 925 786 869 786 m 596 281 q 653 378 629 329 q 706 558 706 486 q 679 678 706 631 q 544 758 635 758 q 387 667 453 758 q 321 415 321 575 q 354 261 321 332 q 596 281 481 279 m 26 58 q 65 -8 26 19 q 194 -44 114 -44 q 501 101 340 -44 l 469 114 q 192 -11 326 -11 q 113 0 151 -11 q 108 7 106 1 q 115 11 111 13 q 456 122 278 -32 q 351 229 392 160 q 151 182 218 203 q 26 58 26 139 m 729 289 q 784 288 749 288 q 881 290 819 288 q 907 544 885 399 q 841 441 872 483 q 777 353 810 399 q 729 289 744 308 m 581 260 q 369 232 478 250 q 468 133 411 164 q 581 260 528 188 m 660 261 q 632 263 647 263 q 600 261 617 263 q 482 125 546 182 q 514 114 500 118 q 592 192 543 142 q 660 261 640 243 z "},"B":{"ha":822,"x_min":-192,"x_max":857,"o":"m 235 393 l 171 388 q 42 443 74 388 q 29 495 29 464 q 69 574 29 526 q 371 711 160 681 q 463 822 419 800 q 466 824 464 824 q 469 819 468 824 q 467 813 471 815 q 385 713 432 793 q 453 719 424 718 q 531 799 496 783 q 577 808 550 808 q 638 784 604 808 q 671 749 671 760 q 665 742 671 742 q 658 744 660 742 q 651 753 656 747 q 640 765 647 760 q 595 783 611 783 q 572 782 579 783 q 511 721 550 776 l 521 721 q 759 676 663 719 q 856 558 856 632 q 740 399 856 467 q 532 322 624 332 q 682 300 618 322 q 804 168 804 257 q 756 63 804 118 q 615 -33 707 8 q 446 -74 522 -74 q 378 -67 415 -74 q 314 -15 340 -60 q 299 33 299 11 q 306 74 299 56 q 281 44 307 78 q 229 -40 256 11 q 214 -41 225 -44 q 192 -24 203 -37 q 183 0 182 -11 q 225 183 193 75 q 171 176 207 182 q 97 11 131 65 q -92 -126 14 -126 q -178 -79 -150 -126 q -192 -24 -192 -56 q -156 50 -192 7 q -37 129 -119 93 q 160 186 46 165 q 235 393 189 261 m 306 200 q 521 69 504 200 q 517 63 522 63 q 511 67 513 63 q 303 188 492 188 q 286 188 294 188 q 238 1 250 64 q 269 47 247 11 q 344 147 317 126 q 381 158 372 167 q 379 151 385 156 q 319 35 319 100 q 358 -31 319 -10 q 413 -42 376 -42 q 514 -22 450 -42 q 677 69 608 11 q 746 176 746 126 q 726 229 746 204 q 485 304 667 304 q 315 285 403 304 q 289 200 304 249 q 306 200 297 200 m 804 553 q 804 586 804 553 q 722 663 804 619 q 518 707 640 706 l 503 707 q 381 458 443 613 q 599 567 503 497 q 616 568 615 579 q 603 549 617 557 q 367 425 468 458 q 324 308 338 354 q 474 322 418 308 q 715 419 632 356 q 804 553 804 488 m -171 -39 q -135 -101 -171 -81 q -82 -114 -114 -114 q -3 -78 -50 -114 q 78 13 43 -43 q 154 174 113 69 q -168 -17 -142 117 q -171 -39 -171 -29 m 54 475 q 64 447 54 460 q 153 418 85 418 q 246 426 207 418 q 358 688 304 586 q 101 557 193 650 q 54 475 54 510 m 372 692 q 260 429 317 589 q 314 440 296 435 q 442 703 378 601 q 372 692 414 700 m 249 396 q 176 189 186 214 q 229 196 208 194 q 300 406 265 317 q 249 396 281 401 z "},"C":{"ha":768,"x_min":32,"x_max":819,"o":"m 790 550 q 819 528 819 543 q 804 526 819 518 l 789 533 q 704 369 779 451 q 424 232 576 232 q 293 281 336 232 q 267 342 267 310 q 351 485 267 415 q 489 553 406 531 q 646 576 572 576 q 678 575 661 576 q 603 667 678 644 q 547 674 576 674 q 388 625 474 674 q 190 418 267 557 q 118 181 131 307 q 231 38 153 88 q 404 -12 308 -12 q 501 -1 442 -12 q 526 92 526 44 q 481 190 526 165 q 478 194 478 192 q 486 200 481 203 q 543 90 543 169 q 521 4 543 47 q 732 158 663 47 q 774 211 764 211 q 779 203 779 211 q 748 142 779 188 q 649 44 717 96 q 499 -33 582 -7 q 315 -131 429 -131 q 167 -61 231 -131 q 106 65 119 -11 q 32 283 32 156 q 114 530 32 410 q 347 707 196 650 q 507 740 436 740 q 638 724 578 740 q 745 661 699 707 q 790 550 792 615 m 410 354 q 377 361 378 354 q 390 367 376 368 q 407 367 403 367 q 546 398 479 367 q 640 475 613 429 q 675 553 668 521 q 505 526 592 553 q 375 461 418 499 q 308 346 308 403 q 353 272 308 306 q 428 253 382 253 q 529 269 474 253 q 694 382 621 301 q 765 542 767 463 q 689 553 726 551 q 657 481 682 515 q 547 385 614 417 q 410 354 481 354 m 436 667 q 546 688 496 688 q 636 667 596 688 q 692 574 694 635 q 763 561 729 572 q 632 694 749 651 q 527 713 588 713 q 398 694 467 713 q 260 618 329 675 q 146 472 192 561 q 100 293 100 382 q 107 222 100 258 q 178 433 122 333 q 436 667 275 610 m 474 -40 q 363 -53 418 -53 q 126 42 221 -53 q 211 -86 149 -44 q 314 -118 260 -118 q 474 -40 407 -118 z "},"D":{"ha":1006,"x_min":26,"x_max":1039,"o":"m 632 789 q 701 765 668 789 q 735 731 735 740 q 728 722 735 722 q 720 725 722 722 q 714 734 718 728 q 703 744 710 740 q 660 764 678 764 q 635 761 643 764 q 583 718 611 757 q 818 663 717 707 q 1036 403 1010 579 q 1038 367 1038 385 q 1000 224 1038 303 q 871 67 963 146 q 636 -39 779 -12 q 544 -162 599 -112 q 449 -223 490 -211 q 382 -235 408 -235 q 253 -172 296 -235 q 206 8 206 -100 q 294 378 206 150 q 179 363 232 363 q 81 389 126 363 q 26 479 26 419 q 58 572 26 521 q 164 658 90 622 q 443 721 267 710 q 470 797 467 772 q 476 821 474 821 q 481 817 478 821 q 483 797 483 813 q 460 721 483 782 q 496 722 478 722 q 532 721 514 722 q 632 789 579 789 m 611 524 q 703 226 703 411 q 675 56 703 138 l 660 13 q 844 117 767 46 q 951 256 922 188 q 979 363 979 325 q 911 556 979 469 q 773 655 861 615 q 574 703 685 694 q 518 601 544 660 q 600 538 561 579 q 688 603 661 575 q 715 623 715 632 q 710 608 715 614 q 611 524 669 567 m 635 6 q 679 203 679 103 q 594 513 679 401 q 449 432 524 465 q 369 181 404 307 q 329 1 335 56 q 357 44 336 8 q 383 90 378 81 q 406 119 389 99 q 432 146 422 139 q 468 158 458 167 q 467 151 472 156 q 403 57 403 96 q 422 19 403 36 q 522 -10 456 -10 q 635 6 576 -10 m 314 382 q 245 151 261 238 q 229 15 229 65 q 294 -183 229 -135 q 388 -214 338 -214 q 509 -167 447 -214 q 613 -43 571 -119 q 531 -47 578 -47 q 436 -26 483 -47 q 389 39 389 -6 q 394 74 389 56 q 321 -40 365 46 q 306 -41 317 -44 q 284 -24 294 -37 q 275 0 274 -11 q 379 404 288 146 q 314 382 335 388 m 367 624 q 244 574 292 624 q 197 488 197 525 q 199 470 197 478 q 196 461 201 463 q 186 494 186 458 q 234 583 186 531 q 374 635 282 635 q 404 633 397 635 l 436 703 q 192 636 279 688 q 69 524 104 585 q 51 467 51 493 q 68 422 51 442 q 163 390 94 390 q 308 414 229 390 q 399 622 347 513 q 367 624 392 624 m 413 621 q 326 419 365 525 q 393 440 360 428 q 465 607 425 528 q 413 621 443 617 m 583 526 q 511 586 549 565 q 463 467 488 535 q 583 526 531 496 m 451 704 q 418 632 449 696 q 471 621 443 631 q 521 706 499 674 q 451 704 475 706 z "},"E":{"ha":725,"x_min":49,"x_max":826,"o":"m 586 17 l 588 -8 q 563 -128 588 -76 q 400 -236 511 -236 q 233 -147 303 -236 q 175 -25 194 -97 q 49 196 49 40 q 83 358 49 271 q 62 353 75 357 q 49 360 49 350 q 69 394 49 381 q 76 397 74 396 l 104 403 l 113 419 q 353 668 193 572 q 590 742 476 742 q 747 700 704 742 q 818 768 803 768 q 825 763 825 768 q 821 753 825 757 q 758 689 789 728 q 781 635 781 660 q 721 544 781 561 q 704 542 711 542 q 676 567 681 542 q 694 630 671 596 q 731 678 717 664 q 594 711 701 711 q 385 644 488 711 q 174 415 257 561 q 235 421 196 418 q 560 676 344 614 q 567 672 565 678 q 564 665 569 667 q 264 422 378 615 q 617 425 313 425 q 633 416 632 425 q 608 407 633 407 q 244 386 415 407 q 178 117 178 253 q 183 31 178 65 q 243 -8 200 14 q 354 -29 286 -29 q 563 33 461 -29 q 490 169 546 104 q 344 46 406 119 q 335 42 335 35 q 340 58 335 53 q 444 160 390 114 q 476 183 474 182 q 306 265 396 264 q 300 268 301 265 q 301 274 299 271 q 306 276 303 276 q 489 192 401 274 q 653 249 581 249 q 726 183 726 249 q 586 17 726 104 m 565 6 q 325 -58 449 -58 q 197 -35 243 -58 q 285 -179 225 -133 q 399 -225 344 -225 q 517 -164 468 -225 q 567 -8 567 -103 q 565 6 567 1 m 581 44 q 672 132 643 89 q 700 194 700 175 q 657 233 700 233 q 504 176 604 233 q 581 44 563 114 m 157 122 q 215 382 157 256 l 151 372 l 147 363 q 110 210 110 286 q 160 56 110 118 q 157 122 157 97 m 743 579 q 751 619 751 599 q 740 664 751 640 q 703 569 703 608 q 717 557 703 557 q 743 579 731 557 z "},"F":{"ha":742,"x_min":33,"x_max":776,"o":"m 389 467 q 136 550 235 482 q 79 408 79 469 q 90 357 79 381 q 174 306 114 306 q 358 421 271 306 q 389 467 372 439 m 431 781 q 322 796 381 796 q 194 769 263 796 q 85 658 85 728 q 113 596 85 626 q 431 781 228 735 m 583 317 q 631 318 599 318 q 722 617 722 507 q 676 732 722 690 q 549 774 631 774 q 496 769 524 774 q 624 533 624 700 q 583 317 624 419 m 685 317 q 776 297 776 310 q 770 288 776 294 q 742 288 764 282 q 672 294 721 294 q 443 -24 578 121 q 197 -203 308 -168 q 192 -204 194 -204 q 185 -200 189 -204 q 183 -190 182 -196 q 190 -181 183 -183 q 413 -12 293 -147 q 618 293 532 124 q 571 288 588 290 q 501 166 539 214 q 443 94 463 118 q 390 38 424 71 q 339 -11 356 4 q 242 -99 253 -90 q 232 -99 232 -108 q 236 -90 232 -94 q 272 -58 240 -86 q 317 -15 303 -29 q 363 31 332 0 q 413 87 393 63 q 458 144 433 111 q 542 283 508 211 q 295 202 413 258 q 131 76 178 146 q 122 85 126 69 q 118 113 118 101 q 122 132 118 125 q 294 253 171 206 q 556 314 417 301 q 600 536 600 422 q 469 765 600 703 q 291 692 379 746 q 147 565 203 639 q 396 478 250 496 q 469 650 439 551 q 480 655 472 661 q 483 638 488 649 q 421 475 456 544 q 485 472 471 472 q 500 469 499 472 q 494 461 504 461 q 415 464 443 461 q 375 401 399 432 q 169 275 283 275 q 54 339 92 275 q 33 424 33 374 q 100 579 33 496 q 58 655 58 618 q 92 726 58 692 q 286 806 157 792 q 356 808 311 808 q 461 786 401 808 q 547 793 501 793 q 751 690 693 793 q 774 597 774 650 q 685 317 774 493 z "},"G":{"ha":794,"x_min":35,"x_max":860,"o":"m 142 119 q 283 18 176 18 q 504 106 389 18 q 388 189 467 189 q 351 185 368 189 q 314 162 333 182 q 294 129 294 142 q 292 114 294 117 q 283 121 283 108 q 306 169 283 146 q 349 197 329 193 q 392 201 369 201 q 519 117 476 201 q 765 425 667 235 q 788 439 779 446 q 810 435 800 440 q 819 422 821 431 q 729 47 797 243 q 777 50 760 50 q 796 43 794 50 q 789 33 797 36 l 779 32 q 722 28 751 32 q 635 -178 683 -83 q 418 -411 553 -333 q 301 -451 349 -451 q 264 -443 281 -451 q 235 -391 235 -429 q 276 -283 235 -353 q 148 -206 194 -274 q 101 -42 101 -139 q 103 1 101 -21 l 108 44 q 65 196 65 99 q 121 389 65 293 q 36 547 36 444 q 58 639 36 589 q 139 734 79 689 q 271 781 199 779 q 289 772 288 781 q 279 763 292 764 q 163 722 217 763 q 64 553 64 649 q 139 418 64 464 q 313 604 206 519 q 540 733 421 689 q 683 763 617 763 q 850 689 811 763 q 858 651 858 674 q 844 597 858 629 q 748 481 819 543 q 565 376 676 419 q 351 333 453 333 q 240 343 296 333 q 142 119 175 235 m 724 690 q 471 603 590 690 q 261 378 351 517 q 346 372 296 372 q 707 492 538 372 q 802 583 778 542 q 826 642 826 624 q 772 725 826 694 q 688 742 739 742 q 527 706 619 742 q 335 583 435 669 q 181 397 236 497 q 244 381 210 386 q 460 613 336 524 q 724 701 583 701 q 729 696 729 701 q 724 690 729 690 m 510 90 q 254 -18 369 -18 q 121 31 169 -18 q 115 -49 115 -12 q 156 -196 115 -139 q 283 -272 204 -267 q 347 -186 307 -235 q 522 -28 429 -87 q 524 20 524 -11 q 510 90 524 51 m 315 -283 q 274 -397 274 -358 q 315 -436 274 -436 q 422 -386 356 -436 q 575 -203 522 -310 q 663 14 628 -96 q 540 -43 600 -6 l 539 -50 q 457 -215 521 -154 q 315 -283 393 -276 m 757 371 q 526 103 660 211 q 544 28 544 58 q 543 -14 544 -3 q 671 38 606 22 q 757 371 722 204 m 517 -58 q 344 -235 415 -129 l 322 -271 q 443 -206 389 -260 q 517 -64 497 -151 l 517 -58 m 164 365 q 128 231 128 289 q 133 146 128 174 q 224 347 167 250 q 164 365 199 351 z "},"H":{"ha":1157,"x_min":15,"x_max":1225,"o":"m 917 44 q 903 133 903 75 q 911 265 903 190 q 688 258 814 258 q 512 76 622 158 q 290 -43 401 -7 q 199 -62 232 -62 q 150 -61 165 -62 q 53 -18 90 -54 q 17 71 17 18 q 56 173 17 131 q 156 236 96 215 q 579 285 269 274 l 608 343 q 542 339 575 339 q 372 403 443 343 q 265 628 265 494 q 351 814 265 757 q 441 847 401 847 q 524 832 481 847 q 606 764 567 817 l 614 751 q 659 763 635 763 q 710 743 683 763 q 768 625 757 708 q 772 544 772 596 q 749 411 772 493 q 861 543 825 465 q 869 546 864 550 q 871 538 874 542 q 744 394 829 449 q 701 288 729 347 q 915 293 853 290 q 1017 589 939 424 q 1103 723 1054 671 q 1188 775 1151 775 q 1225 764 1225 775 q 1213 760 1225 758 q 1199 761 1201 761 q 1097 670 1150 761 q 1010 473 1043 579 q 965 296 976 367 q 1047 314 1029 303 q 1063 315 1064 325 q 961 271 1061 288 q 953 164 953 210 q 997 26 953 54 q 1028 18 1008 18 q 1090 41 1047 18 q 1158 108 1132 64 q 1176 119 1176 136 q 1085 19 1176 76 q 997 -14 1033 -14 q 917 44 946 -14 m 613 356 q 653 545 653 454 q 611 718 653 636 q 556 467 556 653 q 550 457 556 457 q 539 469 542 458 q 532 557 532 517 q 597 740 532 685 l 588 753 q 444 833 526 833 q 353 801 403 833 q 285 638 285 756 q 388 413 285 504 q 543 350 453 354 q 613 356 583 350 m 643 261 q 614 263 629 263 q 581 261 599 263 q 389 68 504 139 q 200 11 296 11 q 150 15 153 11 q 156 25 147 25 q 201 22 178 22 q 381 75 293 22 q 564 261 490 143 q 338 239 460 257 q 149 199 217 221 q 33 83 33 161 q 75 10 33 39 q 156 -23 117 -18 q 215 -28 194 -28 q 643 261 439 -28 m 626 732 q 674 558 674 651 q 631 358 674 464 q 689 378 669 368 q 725 585 725 489 q 688 725 725 688 q 656 742 671 742 q 626 732 640 742 m 685 364 q 625 346 646 350 q 594 285 613 315 q 654 286 615 286 q 685 364 672 325 z "},"I":{"ha":613,"x_min":-42,"x_max":717,"o":"m 368 697 q 219 817 324 817 q 88 742 149 817 q 26 540 26 667 q 32 460 26 503 q 131 254 53 315 q 300 193 210 193 q 326 194 313 193 q 392 536 392 383 q 378 667 392 601 q 146 568 204 649 q 125 511 125 540 q 160 447 125 482 q 282 396 196 411 q 285 387 292 393 q 268 383 278 381 q 127 449 176 411 q 78 526 78 488 q 109 599 78 564 q 209 661 140 635 q 368 697 278 688 m 410 669 q 425 546 425 615 q 353 199 425 394 q 400 213 381 204 q 465 464 439 331 q 492 669 490 597 q 449 671 469 671 q 410 669 428 671 m 274 32 q 318 29 288 32 q 394 194 360 93 q 346 183 376 189 q 274 32 319 110 m 254 0 l 253 0 q 215 -51 238 -25 q 297 -1 254 -51 q 254 0 282 0 m 363 25 q 513 1 457 14 q 585 -12 569 -12 q 601 -6 601 -12 q 561 31 601 6 q 560 37 556 35 q 568 38 564 39 q 615 -4 606 22 q 617 -14 617 -10 q 579 -33 617 -33 q 497 -21 561 -33 q 343 -3 433 -8 q 236 -76 285 -76 q 200 -69 219 -76 q 17 -176 103 -176 q -39 -151 -17 -176 q -40 -146 -40 -149 q -36 -142 -40 -143 q -31 -143 -32 -140 q 19 -167 -12 -167 q 97 -141 50 -167 q 188 -64 144 -115 q 133 -21 143 -44 q 138 -10 131 -10 q 147 -12 144 -10 q 153 -22 149 -15 q 199 -50 167 -43 q 235 0 221 -24 q 39 -65 39 -4 q 53 -97 39 -79 q 79 -122 67 -114 q 79 -131 92 -129 q 58 -126 67 -132 q 1 -56 1 -87 q 240 33 1 33 q 254 32 250 33 q 322 181 292 96 q 300 179 311 179 q 115 249 201 179 q 4 538 4 336 q 85 764 4 681 q 224 828 147 828 q 400 700 347 828 l 453 700 q 508 701 492 700 l 531 722 q 549 731 542 731 q 564 703 563 731 q 581 701 569 703 q 715 672 715 696 q 700 667 715 664 q 672 669 685 669 l 558 671 q 461 244 524 433 q 546 369 532 294 q 552 372 547 376 q 556 364 557 368 q 454 224 533 274 q 363 25 411 100 z "},"J":{"ha":585,"x_min":-189,"x_max":792,"o":"m 640 703 q 790 672 790 696 q 775 667 790 664 q 747 669 760 669 l 635 671 q 525 233 610 469 l 586 238 q 618 235 615 240 q 594 222 624 224 q 519 214 557 219 q 181 -325 367 -210 q -51 -406 53 -406 q -169 -343 -135 -406 q -189 -285 -189 -311 q -187 -247 -189 -258 q -142 -125 -182 -193 q -32 6 -103 -57 q 390 211 135 156 q 408 361 408 292 q 344 576 408 492 q 307 617 324 601 q 189 474 189 563 q 199 432 189 451 q 269 354 219 388 q 378 317 318 321 q 381 307 389 315 q 363 300 374 299 q 211 358 268 318 q 142 471 142 408 q 171 553 142 508 q 276 638 200 599 q 199 657 240 657 q 110 624 158 657 q 42 525 61 592 q 29 451 29 483 q 92 281 29 349 q 206 229 138 232 q 225 224 226 228 q 204 221 224 219 q 51 306 106 225 q 10 440 10 367 q 108 636 10 569 q 208 671 161 671 q 296 647 254 671 q 376 675 325 660 q 557 699 426 690 l 585 701 q 600 715 594 710 q 628 729 617 729 q 639 715 639 729 l 639 706 q 640 703 639 703 m -75 -337 q -113 -333 -111 -337 q -113 -326 -115 -329 q -101 -325 -111 -324 q -74 -326 -90 -326 q 106 -259 11 -326 q 275 -71 200 -192 q 385 188 350 50 q -29 -40 115 118 q -125 -169 -92 -107 q -161 -278 -161 -235 q -139 -347 -161 -321 q -65 -381 -111 -381 q 163 -294 38 -381 q 460 204 324 -182 q 403 193 436 201 q 289 -74 367 51 q 112 -268 211 -199 q -75 -337 13 -337 m 428 369 q 408 215 428 299 l 467 225 q 569 668 553 488 q 403 649 439 658 q 328 625 368 640 q 363 586 351 601 q 428 369 428 500 z "},"K":{"ha":910,"x_min":-1,"x_max":1044,"o":"m 399 769 q 404 774 399 774 q 410 758 410 774 q 406 701 410 743 l 467 701 l 489 722 q 507 731 500 731 q 522 703 521 731 q 546 688 547 701 q 515 671 546 671 q 476 460 499 557 q 551 450 522 457 q 676 649 614 575 q 836 746 739 722 l 857 750 q 882 751 869 751 q 988 709 939 751 q 1044 593 1036 667 q 1043 572 1044 572 q 1038 589 1038 572 q 980 686 1029 657 q 878 715 931 715 q 708 638 781 715 q 569 446 635 560 q 708 361 664 419 q 740 274 740 318 q 735 238 740 256 q 629 125 713 165 q 747 0 703 31 q 831 -33 799 -33 q 883 32 883 -33 q 844 154 883 97 q 842 160 842 157 q 844 163 842 163 q 854 156 847 163 q 900 49 900 103 q 873 -35 900 -4 q 801 -65 846 -65 q 667 -3 738 -65 q 574 107 615 40 q 533 103 553 103 q 435 132 479 103 q 433 140 431 135 q 442 142 436 144 q 531 114 485 114 q 567 118 549 114 q 500 241 542 160 q 447 343 458 322 q 231 -67 354 0 q 184 -76 211 -76 q 124 -52 157 -76 q 90 -17 90 -28 q 96 -10 90 -10 q 103 -12 101 -10 q 110 -22 106 -15 q 121 -32 114 -28 q 163 -50 146 -50 q 189 -49 181 -50 q 321 115 260 -32 q 419 449 382 261 q 364 442 382 446 q 274 156 326 276 q 135 10 222 35 q 25 44 65 -10 q -1 121 -1 78 q 47 263 -1 192 q 199 392 96 335 q 35 533 35 447 q 137 648 35 599 q 394 701 239 697 q 399 769 399 743 m 25 136 q 36 81 25 107 q 115 28 61 28 q 267 165 207 28 q 351 439 318 286 q 235 397 293 428 l 240 396 q 242 388 251 393 q 215 386 233 381 q 72 263 118 332 q 25 136 25 193 m 114 581 q 83 519 83 549 q 103 465 83 490 q 215 401 135 421 q 354 451 285 436 q 390 671 378 556 q 114 581 190 665 m 493 308 l 621 136 q 714 240 694 175 q 719 286 719 257 q 692 356 719 315 q 563 436 651 411 l 493 308 m 421 460 q 449 669 449 594 q 401 671 433 671 q 367 454 389 560 q 421 460 400 460 m 474 450 q 454 367 468 422 l 486 317 l 547 440 q 474 450 504 449 z "},"L":{"ha":601,"x_min":-10,"x_max":883,"o":"m 1 76 q -10 131 -10 103 q 17 190 -10 158 q 103 221 44 221 q 292 157 163 221 q 324 238 307 188 q 304 238 314 238 q 156 290 203 238 q 128 360 128 322 q 146 438 128 399 q 96 594 96 508 q 204 800 96 746 q 265 814 231 814 q 338 775 299 814 q 400 560 400 713 q 369 342 400 465 q 418 349 390 342 q 517 674 461 575 q 665 813 593 813 q 751 725 728 813 q 761 650 761 689 q 723 496 761 575 q 608 351 685 417 q 429 254 532 285 q 374 111 406 176 q 567 15 456 61 q 869 18 829 -92 q 881 29 875 31 q 883 24 883 28 q 882 17 883 21 q 807 -58 863 -37 q 736 -75 765 -75 q 557 -31 650 -75 q 411 49 464 13 l 360 85 q 183 -24 289 -24 q 142 -19 164 -24 q 1 76 36 -1 m 378 560 q 297 788 378 740 q 245 801 274 801 q 182 772 217 801 q 119 617 119 717 q 158 460 119 539 q 218 522 181 497 q 230 526 228 529 q 229 521 232 522 q 169 438 185 485 q 247 369 197 394 q 351 342 297 343 q 378 560 378 465 m 688 510 q 731 692 731 604 q 689 779 731 779 q 504 482 614 779 q 465 367 485 431 q 593 504 546 408 q 601 507 596 511 q 603 500 606 503 q 461 351 550 393 l 438 282 q 688 510 608 329 m 151 25 q 146 25 149 25 q 140 32 138 25 q 144 36 140 36 q 150 36 147 36 q 276 129 224 36 q 176 167 201 163 q 132 172 150 172 q 58 146 82 172 q 33 97 33 119 q 44 53 33 75 q 171 -6 78 -6 q 275 25 236 -6 q 331 86 318 58 l 338 99 q 289 124 317 110 q 151 25 229 25 m 164 397 q 213 303 164 342 q 331 264 263 264 q 349 331 338 286 q 165 413 235 335 q 164 397 164 404 m 340 239 q 304 150 321 185 l 351 125 q 396 249 365 153 q 340 239 376 244 m 415 336 q 367 331 393 331 q 349 264 356 286 q 403 272 374 267 l 415 336 z "},"M":{"ha":1157,"x_min":31,"x_max":1374,"o":"m 89 611 q 203 743 122 694 q 361 792 285 792 q 493 758 438 792 q 522 760 503 760 q 731 675 664 760 q 763 690 749 688 q 778 688 776 693 q 764 675 775 678 q 739 663 753 672 q 788 470 788 590 q 728 174 788 350 q 771 163 743 171 l 789 194 q 992 507 922 414 q 1299 740 1169 740 q 1352 715 1332 740 q 1372 657 1372 689 q 1367 633 1372 635 q 1361 639 1363 632 l 1360 643 q 1296 704 1360 704 q 1230 685 1272 704 q 1124 606 1188 667 q 1003 467 1061 546 q 851 249 906 336 q 790 154 796 163 q 910 17 910 106 q 900 -39 910 -10 q 895 -42 899 -42 q 890 -40 892 -43 q 893 -22 888 -37 q 899 21 899 -7 q 882 75 899 49 q 785 146 853 121 q 642 -22 672 -22 q 636 -14 633 -22 q 694 168 671 75 q 653 174 681 171 q 551 -22 619 57 q 417 -130 483 -100 q 301 -160 351 -160 q 176 -94 201 -160 q 146 -96 167 -96 q 101 -92 125 -96 q 54 -73 78 -89 q 31 -33 31 -57 q 47 -6 31 -10 q 56 -8 56 -4 q 54 -15 57 -12 q 58 -49 42 -32 q 147 -78 90 -78 q 171 -76 160 -78 q 169 -60 169 -68 q 224 56 169 -7 q 444 172 293 136 q 506 308 467 214 q 633 565 575 472 q 508 738 596 682 q 479 739 499 739 q 283 664 383 739 q 115 414 149 564 q 239 332 157 332 q 243 332 242 332 q 349 367 299 332 q 404 449 399 401 q 407 453 404 451 q 413 452 410 454 q 415 447 415 450 q 356 358 410 396 q 243 321 301 321 q 239 321 242 321 q 113 385 161 321 q 111 360 111 372 q 140 258 111 303 q 240 214 169 214 q 358 248 310 214 q 421 303 406 282 q 438 319 436 325 q 435 304 439 313 q 354 224 419 267 q 228 182 289 182 q 131 206 168 182 q 65 351 65 250 q 81 449 65 400 q 71 522 71 482 q 89 611 71 561 m 199 -92 q 303 -150 221 -150 q 400 -126 347 -150 q 547 -6 488 -86 q 635 174 607 74 q 587 175 618 175 q 507 167 556 175 q 199 -92 385 -65 m 1221 603 q 1228 594 1228 603 q 1219 586 1228 586 q 1217 586 1218 586 q 1139 517 1176 586 q 1044 169 1078 403 q 1035 75 1035 97 q 1097 -47 1035 -47 q 1143 -29 1115 -47 q 1201 38 1171 -11 q 1214 45 1208 49 q 1214 31 1219 42 q 1125 -58 1182 -32 q 1073 -72 1099 -72 q 1022 -56 1047 -72 q 975 60 976 -26 q 1033 376 975 182 q 1110 538 1061 472 q 1214 603 1158 603 q 1221 603 1217 603 m 471 757 q 350 781 414 781 q 216 738 286 781 q 119 634 146 696 q 93 517 93 572 q 94 486 93 501 l 107 511 q 263 675 163 607 q 471 757 363 743 m 639 186 q 660 358 660 269 q 646 514 660 447 q 588 365 625 467 q 533 225 550 263 l 515 183 q 581 188 549 188 q 639 186 613 188 m 192 -61 q 193 -74 192 -68 q 435 153 328 -47 q 248 55 304 121 q 192 -61 192 -11 m 663 549 q 683 389 683 478 q 656 185 683 300 l 697 181 q 731 428 731 319 q 696 611 731 536 q 663 549 679 583 m 649 589 q 683 635 658 604 q 535 735 635 717 q 649 589 613 682 m 765 153 l 725 164 q 656 -4 694 72 q 765 153 685 10 z "},"N":{"ha":953,"x_min":-4,"x_max":1232,"o":"m 393 54 q 331 148 331 88 q 383 264 331 208 q 578 368 465 344 q 624 549 615 463 q 443 736 571 713 q 417 642 417 701 q 454 532 417 583 q 454 526 456 529 q 450 524 453 524 q 444 526 447 524 q 406 640 406 579 q 431 738 406 701 q 407 739 419 739 q 254 681 333 739 q 133 517 175 622 q 107 383 107 450 q 185 278 107 278 q 269 319 229 278 q 326 389 310 360 q 336 393 333 399 l 336 382 q 269 300 322 349 q 164 250 215 250 q 90 293 113 250 q 68 386 68 336 q 104 536 68 465 q 253 701 157 639 q 442 763 349 763 q 450 763 446 763 q 533 797 481 797 q 649 736 603 797 q 725 582 703 663 q 776 351 758 463 q 838 317 804 340 q 922 621 888 549 q 1029 751 974 722 q 1111 769 1064 769 q 1190 733 1158 769 q 1231 660 1222 697 q 1232 651 1232 656 q 1225 647 1232 647 q 1217 663 1222 647 q 1185 701 1213 678 q 1120 725 1158 725 q 1049 708 1082 725 q 992 658 1017 692 q 947 588 967 624 q 908 497 926 551 q 856 303 883 417 q 908 247 883 281 q 954 119 954 185 q 918 38 954 54 q 903 33 910 33 q 814 138 853 33 q 792 78 803 100 q 892 -14 838 -14 q 975 28 931 -14 q 991 42 989 42 q 993 39 993 42 l 996 32 q 874 -32 935 -32 q 764 36 814 -32 q 737 29 756 29 q 718 42 718 29 q 732 48 718 44 q 751 54 746 51 q 665 361 694 174 q 650 361 658 361 l 607 357 q 422 54 543 188 q 456 49 439 49 q 547 90 501 49 q 556 91 554 97 q 554 82 557 85 q 454 39 507 39 q 414 44 435 39 q 86 -132 254 -132 q 21 -108 46 -132 q -4 -41 -4 -85 q 31 47 -4 3 q 36 51 31 51 q 39 47 39 51 l 28 19 q 17 -36 17 -8 q 38 -90 17 -64 q 92 -115 58 -115 q 393 54 244 -115 m 400 63 q 571 350 504 185 q 400 251 478 325 q 350 144 350 197 q 400 63 350 92 m 464 761 q 668 565 619 744 q 711 369 690 486 q 763 357 738 365 q 681 632 733 503 q 608 747 649 708 q 531 785 567 785 q 464 761 494 785 m 819 156 q 853 83 835 110 q 883 51 872 56 q 901 46 894 46 q 914 49 908 46 q 943 119 943 63 q 900 240 943 175 q 853 290 876 271 q 819 156 832 200 m 765 343 q 714 357 743 353 q 782 99 751 168 q 804 165 793 122 q 772 304 788 214 l 765 343 m 778 338 l 783 306 q 810 186 797 228 q 835 306 819 226 q 778 338 806 325 m 613 374 q 664 375 629 375 q 646 492 656 417 q 613 374 632 431 z "},"O":{"ha":742,"x_min":54,"x_max":775,"o":"m 54 372 q 174 583 53 482 q 174 597 174 590 q 276 778 174 729 q 349 794 313 794 q 560 676 460 794 q 714 590 653 657 q 775 414 775 522 q 704 197 775 306 q 610 -6 685 72 q 442 -83 535 -83 q 274 -44 349 -83 q 86 38 136 -43 q 57 139 57 86 q 69 239 57 192 q 54 371 54 296 l 54 372 m 493 443 q 442 375 474 393 q 390 357 410 357 q 346 361 371 357 q 283 388 321 365 q 219 444 246 411 q 99 244 132 347 q 228 4 124 92 q 251 1 239 1 q 274 3 263 1 q 508 85 388 8 q 689 278 629 163 q 546 661 678 506 q 490 667 522 667 q 192 553 307 667 q 214 483 201 506 q 465 603 339 603 q 482 594 482 603 q 464 585 482 585 q 229 456 356 585 q 301 390 261 410 q 374 369 342 369 l 408 375 q 482 447 458 389 q 489 451 483 453 q 493 443 494 449 m 528 682 q 344 782 436 782 q 282 768 313 782 q 189 607 189 722 q 189 593 189 600 q 490 685 315 685 q 528 682 503 685 m 301 -43 q 443 -72 364 -72 q 589 -8 522 -72 q 678 161 656 56 q 508 17 608 72 q 301 -43 407 -37 m 707 321 q 728 449 728 378 q 688 574 728 519 q 581 651 647 629 q 707 321 681 517 m 179 540 q 92 358 103 456 l 92 308 q 201 472 126 394 l 194 486 q 179 540 185 517 m 83 160 q 110 67 83 110 q 199 8 138 25 q 85 183 122 81 q 83 160 83 171 z "},"P":{"ha":842,"x_min":7,"x_max":1015,"o":"m 204 435 q 188 482 188 456 q 201 534 188 508 q 240 587 214 560 q 308 638 265 614 q 403 681 350 663 q 678 721 513 721 q 754 767 714 758 q 756 767 756 767 q 764 761 764 767 q 745 747 761 751 q 707 719 729 743 q 927 671 840 714 q 1014 556 1014 628 q 941 429 1014 489 q 756 333 868 369 q 640 178 743 224 q 632 181 633 175 q 635 188 631 186 q 709 247 681 208 q 744 329 738 285 q 556 296 660 304 l 543 258 q 157 -83 418 -83 q 47 -48 86 -83 q 8 38 8 -12 q 44 153 8 89 q 49 194 44 174 q 204 435 71 329 m 458 406 q 321 389 386 389 q 217 422 256 389 q 68 192 89 322 l 67 185 q 353 318 168 299 q 361 311 361 319 q 351 300 360 303 q 177 236 251 285 q 64 125 103 188 q 94 39 68 69 q 175 3 125 3 q 272 38 225 3 q 354 142 318 74 q 449 375 414 256 l 458 406 m 963 560 q 963 588 963 560 q 888 659 963 617 q 697 706 813 701 q 625 525 664 658 q 660 508 650 514 q 757 567 710 532 q 774 568 774 579 q 679 497 774 551 q 756 358 753 446 q 906 447 854 396 q 963 560 963 503 m 370 635 q 343 619 370 635 q 272 569 315 604 q 222 510 229 533 q 215 474 215 488 q 221 447 215 460 q 511 542 347 539 q 594 676 561 651 q 603 675 601 681 q 601 667 604 669 q 526 542 568 642 q 547 541 535 542 q 575 536 558 540 q 665 707 625 658 q 504 685 583 706 q 370 635 425 665 m 172 -8 q 149 -8 172 -8 q 94 21 126 -8 q 50 96 61 50 q 33 35 33 63 q 47 -15 33 7 q 148 -64 75 -64 q 275 -33 221 -64 q 369 54 329 -1 q 482 276 435 147 l 536 429 q 481 411 524 425 l 469 372 q 406 205 444 281 q 334 86 367 129 q 259 17 301 43 q 172 -8 217 -8 m 746 354 q 668 490 743 442 q 606 458 626 468 q 563 314 569 333 q 600 319 576 317 q 746 354 664 324 m 233 436 q 296 417 258 417 q 369 421 333 417 q 469 439 406 425 q 506 531 482 476 q 233 436 356 526 m 522 531 q 492 444 500 472 l 547 461 q 571 526 554 482 q 542 530 551 529 q 522 531 533 531 m 649 503 l 622 514 l 614 486 l 649 503 z "},"Q":{"ha":743,"x_min":25,"x_max":886,"o":"m 675 129 q 644 15 675 72 q 540 -68 614 -43 q 476 -79 508 -79 l 351 -37 q 279 -44 313 -44 q 119 1 178 -44 q 58 139 58 51 q 79 274 58 201 q 54 372 54 317 q 129 542 54 464 q 196 599 156 572 q 277 713 226 665 q 382 781 328 761 q 488 800 436 800 q 581 775 540 800 q 644 646 644 733 q 775 426 775 572 q 674 157 775 281 q 675 129 675 143 m 656 225 q 728 443 728 326 q 640 621 728 560 q 594 540 629 574 q 513 506 558 507 q 507 511 507 506 q 513 517 507 517 q 589 550 556 518 q 631 628 622 582 q 490 667 568 667 q 200 561 314 667 q 176 444 182 506 q 314 558 238 514 q 465 603 390 603 q 483 590 486 603 q 464 585 482 585 q 316 529 396 585 q 174 389 236 474 l 176 340 q 324 8 193 135 q 500 79 413 25 q 646 211 588 133 q 580 300 625 265 q 486 335 535 335 q 386 269 421 335 q 382 267 385 267 q 377 269 379 267 q 376 275 375 272 q 488 349 417 349 q 603 294 542 349 q 656 225 638 264 m 881 -362 q 819 -412 857 -396 q 763 -429 781 -429 q 669 -421 710 -429 q 543 -359 610 -404 q 426 -265 476 -314 q 139 -72 228 -72 q 78 -101 103 -72 q 53 -157 53 -131 q 60 -203 53 -183 q 142 -274 78 -257 q 158 -283 157 -278 q 151 -290 158 -289 q 133 -287 144 -292 q 25 -165 25 -251 q 66 -87 25 -115 q 144 -58 107 -58 q 229 -74 182 -58 q 342 -139 276 -90 q 458 -234 408 -187 q 583 -328 508 -281 q 733 -394 657 -375 q 767 -401 749 -401 q 869 -360 840 -401 q 885 -353 885 -337 q 881 -362 885 -357 m 482 792 q 361 758 425 792 q 224 617 275 714 q 490 685 343 685 q 633 651 569 685 q 625 700 633 678 q 525 786 600 769 q 482 792 503 792 m 154 360 q 83 161 83 253 q 111 67 83 107 q 257 3 156 3 q 283 3 272 3 q 299 4 294 4 q 156 343 174 129 q 155 351 156 346 q 154 360 154 357 m 378 -33 q 472 -67 432 -67 q 632 19 583 -67 q 660 129 660 69 q 660 140 660 135 q 378 -33 542 6 m 90 328 q 92 308 90 315 q 154 417 113 361 q 171 531 156 478 q 90 328 90 439 z "},"R":{"ha":956,"x_min":7,"x_max":1015,"o":"m 454 404 q 321 389 371 389 q 228 413 271 389 q 189 488 186 438 q 119 533 149 503 q 85 591 90 563 q 79 649 79 619 q 100 721 79 678 q 167 789 121 764 q 273 818 218 818 q 376 785 328 818 q 453 696 424 753 q 678 721 557 721 q 754 767 714 758 q 764 761 764 768 q 745 747 761 751 q 707 719 729 743 q 927 671 840 714 q 1014 556 1014 628 q 888 391 1014 465 q 583 299 761 317 q 644 208 596 281 q 715 103 692 136 q 779 25 738 71 q 942 -81 874 -81 q 994 -14 994 -81 q 954 107 994 53 q 954 115 949 115 q 965 108 960 115 q 1010 3 1010 57 q 983 -81 1010 -51 q 911 -111 956 -111 q 776 -50 846 -111 q 656 111 711 7 q 604 208 635 147 q 558 296 574 269 l 556 296 l 543 258 q 157 -83 418 -83 q 17 -4 47 -83 q 7 47 7 21 q 51 164 7 103 q 315 313 136 282 l 353 318 q 361 311 361 319 q 351 300 360 303 q 92 163 186 274 q 35 36 35 94 q 38 7 35 21 q 156 -64 56 -64 q 369 54 285 -64 q 482 276 435 147 l 536 428 l 478 410 q 346 90 447 240 q 247 -4 304 29 q 126 -37 189 -37 q 115 -37 122 -37 q 110 -31 108 -36 q 117 -26 113 -25 q 126 -26 122 -26 q 240 6 186 -26 q 331 97 293 38 q 454 404 418 229 m 963 552 q 963 584 963 552 q 888 659 963 617 q 697 706 813 701 q 614 486 661 654 q 757 567 694 522 q 774 568 774 579 q 760 549 774 557 q 606 458 675 490 q 565 324 589 400 l 571 315 q 632 322 631 322 q 872 419 789 356 q 963 552 963 488 m 269 806 q 115 708 161 806 q 100 649 100 675 q 104 603 100 622 q 190 501 117 535 q 265 610 200 557 q 440 693 329 663 q 368 776 414 746 q 269 806 322 806 m 461 438 q 469 552 469 492 q 450 669 469 613 q 293 587 357 638 q 217 492 229 536 q 257 486 238 486 q 356 528 314 486 q 364 525 363 535 l 363 519 q 258 475 318 475 q 214 481 238 475 q 247 429 210 446 q 303 418 271 418 q 461 438 383 418 m 463 674 q 489 549 489 611 q 482 442 489 488 q 547 461 510 449 q 665 707 610 638 q 463 674 558 706 z "},"S":{"ha":722,"x_min":3,"x_max":826,"o":"m 654 315 q 699 188 699 249 q 644 67 699 128 q 374 -69 553 -35 q 265 -85 304 -85 q 210 -83 225 -85 q 260 -197 219 -162 q 342 -231 301 -231 q 444 -194 396 -231 q 497 -115 492 -158 q 500 -111 497 -112 q 508 -117 508 -108 q 469 -189 503 -156 q 324 -246 413 -246 l 300 -244 q 221 -198 254 -240 q 183 -81 188 -156 q 72 -33 113 -69 q 32 54 32 4 q 89 190 32 138 q 4 380 4 269 q 89 593 4 490 q 220 685 147 657 q 360 714 293 714 q 383 713 371 714 q 580 778 468 778 q 740 710 692 778 q 819 774 801 774 q 826 768 826 774 q 805 747 826 763 q 750 697 783 732 q 765 648 765 672 q 753 600 765 624 q 678 553 729 553 q 651 579 653 553 q 719 688 649 624 q 631 753 700 738 q 571 757 607 757 q 429 706 506 757 q 578 593 540 681 q 577 588 579 590 q 572 585 575 585 q 568 588 569 585 q 421 697 529 675 q 378 617 378 661 q 446 496 378 554 l 481 468 q 592 504 542 504 q 668 454 644 504 q 678 398 678 433 q 654 315 678 363 m 375 475 q 314 595 314 538 q 372 703 314 653 q 363 703 367 703 q 113 588 217 703 q 26 376 26 493 q 99 199 26 272 q 301 290 174 264 q 401 408 353 367 l 429 432 q 375 475 379 471 m 288 118 q 233 121 254 118 q 213 30 218 78 q 207 -54 207 -18 q 276 -60 235 -60 q 372 -44 317 -60 q 578 69 508 -11 q 625 186 625 125 q 611 254 625 225 q 571 215 597 238 q 288 118 457 118 m 282 128 q 554 225 438 128 q 603 274 582 249 q 439 426 567 338 q 408 400 410 401 q 317 294 361 358 q 382 300 358 300 q 419 298 406 300 q 432 283 433 296 q 415 279 431 276 q 371 282 400 282 q 304 275 342 282 q 236 131 261 204 l 261 128 q 282 128 272 128 m 215 124 q 108 172 156 136 q 74 75 74 129 q 85 28 74 50 q 182 -49 110 -26 q 215 124 182 26 m 640 332 q 661 413 661 378 q 640 470 661 447 q 584 493 619 493 q 490 461 549 493 q 640 332 601 379 m 219 133 q 289 272 247 206 q 117 182 172 249 q 219 133 158 146 m 728 672 q 678 578 678 608 q 688 567 678 567 q 720 589 706 567 q 735 633 735 611 q 728 672 735 654 z "},"T":{"ha":644,"x_min":-28,"x_max":1069,"o":"m 36 3 q 150 -89 36 -89 q 219 -79 183 -89 q 453 285 374 51 q 497 508 497 411 q 465 678 497 604 q 291 713 326 710 q 219 717 256 717 q 144 700 183 717 q 131 628 131 660 q 169 465 131 526 q 193 464 178 464 q 356 506 286 464 q 442 590 425 547 q 452 598 446 604 q 454 582 458 592 q 366 485 435 529 q 199 440 297 440 q 193 440 196 440 l 188 440 q 286 392 228 396 q 291 388 292 392 q 285 383 290 383 q 171 442 217 388 q 50 492 97 449 q -3 593 -3 542 q 35 689 -3 644 q 153 747 72 733 q 269 831 196 815 q 302 832 281 832 q 367 816 324 832 q 450 747 411 800 q 476 704 463 728 q 692 650 665 656 q 811 742 751 732 q 819 738 819 743 q 806 724 818 726 q 725 644 765 717 q 842 633 788 633 q 1060 703 981 633 q 1069 699 1069 710 q 1060 681 1069 688 q 840 617 988 617 q 715 626 783 617 q 640 437 690 575 q 561 233 590 299 q 207 -103 428 -69 q 13 -178 107 -178 q -26 -171 -26 -178 q -15 -165 -26 -164 q 14 -167 -3 -167 q 185 -106 99 -167 q 150 -107 174 -107 q 17 -29 42 -107 q 10 13 10 -8 q 61 138 10 71 q 375 294 165 272 q 383 288 383 296 q 374 276 382 279 q 100 135 203 250 q 36 3 36 64 m 490 672 q 515 510 515 603 q 472 292 515 417 q 250 -68 397 68 q 501 251 386 -8 q 556 378 517 286 q 679 632 635 564 q 490 672 581 649 m 432 736 q 354 803 394 786 q 296 819 314 819 q 168 750 213 819 q 219 753 192 753 q 449 713 297 753 l 432 736 m 151 468 q 114 608 114 529 q 128 693 114 651 q 51 583 51 657 q 69 525 51 554 q 151 468 96 482 z "},"U":{"ha":982,"x_min":-64,"x_max":992,"o":"m -37 553 q -64 632 -64 590 q -33 719 -64 674 q 61 786 -1 764 q 121 797 92 797 q 179 786 150 797 q 183 778 186 783 q 176 776 181 776 q 119 788 147 788 q 7 742 67 788 q -53 632 -53 697 q -47 598 -53 617 q -32 563 -42 579 q 69 669 1 622 q 336 758 197 758 q 481 714 429 758 q 571 726 536 726 q 644 708 606 726 q 692 654 682 690 q 694 643 694 649 q 649 571 694 610 q 522 503 604 532 q 458 349 507 443 q 381 183 410 256 q 353 57 353 111 q 354 29 353 43 q 508 108 447 47 q 575 228 561 158 q 579 254 579 242 q 557 307 579 293 q 553 315 549 313 q 561 315 558 317 q 593 240 593 296 q 539 108 593 174 q 358 10 474 29 q 425 -42 371 -42 q 665 182 532 -42 q 775 411 710 256 q 896 735 840 567 q 919 754 899 750 q 959 749 940 758 q 975 721 978 739 q 821 122 821 357 q 875 -14 821 -15 q 928 17 899 -12 q 976 97 957 46 q 982 100 978 100 q 990 94 990 103 q 932 -7 990 54 q 858 -47 896 -47 q 822 -37 840 -47 q 763 94 765 -8 q 763 154 763 107 q 781 335 763 201 q 690 176 715 217 q 421 -69 539 -69 q 311 6 338 -69 q 304 6 308 6 q 193 29 246 6 q 56 200 88 76 q 49 260 49 228 q 115 464 49 363 q -7 521 39 481 q -26 458 -26 483 q -24 414 -26 432 q -2 374 -21 396 q 50 339 17 351 q 52 331 57 336 q 39 329 47 325 q -56 432 -44 372 q -58 478 -58 449 q -37 553 -58 507 m 307 22 q 301 83 301 44 q 322 185 301 121 q 394 343 343 249 q 461 485 444 438 q 232 450 332 450 q 174 453 193 450 q 146 457 154 457 q 69 240 69 339 q 136 82 69 142 q 294 22 203 22 q 307 22 300 22 m 349 736 q 86 633 213 736 q -3 531 26 585 q 122 474 44 492 q 158 521 150 511 q 442 703 269 649 q 349 736 407 736 m 153 468 q 229 461 182 461 q 465 499 339 461 q 482 579 482 547 q 478 638 482 611 q 453 692 474 664 q 181 503 293 638 l 153 468 m 492 703 q 533 582 533 653 q 525 517 533 551 q 638 576 604 547 q 681 649 681 617 q 668 679 681 665 q 575 715 636 715 q 542 713 568 715 q 492 703 517 710 z "},"V":{"ha":754,"x_min":1,"x_max":1240,"o":"m 343 757 q 225 815 285 815 q 167 794 193 815 q 122 700 122 761 q 128 657 122 681 q 343 757 229 747 m 361 738 q 331 739 351 739 q 133 635 228 739 q 258 497 163 540 q 415 464 332 464 q 469 467 442 464 q 361 738 444 640 m 381 733 q 489 469 464 633 q 536 481 522 475 q 381 733 517 697 m 1 403 q 110 640 1 532 q 103 696 103 665 q 121 760 103 726 q 221 824 154 824 q 300 801 263 824 q 358 757 338 779 l 365 757 q 369 757 367 757 q 524 686 472 757 q 585 497 576 615 q 738 639 697 546 q 747 681 747 660 q 739 709 747 701 q 736 719 731 717 q 750 714 742 721 q 761 678 761 704 q 753 635 761 653 q 586 483 710 532 q 588 447 588 465 q 558 215 588 343 q 482 -4 528 86 q 538 62 507 10 q 590 151 569 114 q 616 196 611 188 q 654 260 621 204 q 710 353 688 317 q 774 455 732 390 q 848 564 815 519 q 926 662 881 608 q 1008 748 971 715 q 1088 803 1046 781 q 1164 825 1129 825 q 1219 799 1199 825 q 1239 744 1239 772 q 1232 717 1239 717 q 1225 728 1225 718 q 1161 788 1225 788 q 883 558 1050 788 q 608 142 736 356 q 596 124 606 139 q 577 97 586 110 q 556 65 568 83 q 531 33 543 47 q 508 6 519 19 q 468 -22 482 -22 q 463 -14 457 -22 q 519 192 499 72 q 540 375 540 313 q 538 468 540 438 q 490 458 525 465 q 497 322 497 401 q 475 139 497 242 q 358 -118 438 -24 q 353 -121 356 -121 q 349 -117 350 -121 q 350 -111 347 -114 q 456 138 422 -24 q 478 319 478 240 q 471 456 478 399 q 419 453 444 453 q 253 486 332 453 q 118 617 151 529 q 38 406 38 518 q 63 321 38 360 q 142 282 89 282 q 235 312 196 282 q 286 361 274 342 q 299 369 299 381 q 238 295 297 338 q 120 253 179 253 q 31 300 61 253 q 1 403 1 347 z "},"W":{"ha":1133,"x_min":-10,"x_max":1226,"o":"m 821 610 q 804 640 821 642 q 767 593 779 638 q 754 514 754 549 q 757 424 754 479 q 821 610 821 551 m 107 21 q 53 -117 53 -57 q 65 -150 53 -135 q 112 -171 83 -171 q 177 -149 140 -171 q 247 -79 214 -126 q 379 244 331 39 q 107 21 206 158 m 701 319 q 593 312 632 317 q 513 294 554 307 q 371 -68 467 125 q 396 -54 386 -64 q 568 134 479 28 q 701 318 657 240 l 701 319 m 767 318 q 783 188 778 224 q 788 99 788 153 q 771 0 788 46 q 869 117 793 32 q 985 256 944 203 q 767 318 901 308 m 1226 650 q 1014 256 1226 511 q 1083 135 1083 200 q 1008 33 1083 60 q 971 26 988 26 q 911 58 935 26 q 911 64 910 61 q 915 67 913 67 q 921 64 918 67 q 963 36 939 36 q 1003 43 986 36 q 1069 113 1058 63 q 1071 131 1071 122 q 1003 243 1071 189 q 908 136 964 197 q 764 -33 783 0 q 750 -21 754 -50 q 747 26 747 -7 q 727 163 747 58 q 704 293 707 267 q 560 99 654 215 q 396 -78 467 -18 q 357 -101 367 -101 q 347 -76 336 -101 q 461 279 429 122 q 403 256 429 268 q 256 -86 354 51 q 99 -187 185 -187 q 35 -143 49 -187 q 31 -114 31 -129 q 83 14 31 -61 q 382 257 188 160 q 404 419 404 361 q 399 521 404 476 q 372 602 394 565 q 323 648 350 639 q 282 657 296 657 q 213 643 242 657 q 205 645 206 639 q 208 653 204 651 q 269 668 239 668 q 331 658 300 668 q 389 608 363 649 q 424 457 424 554 q 406 269 424 360 l 406 268 q 464 293 435 283 q 479 449 479 376 q 460 579 479 522 q 306 696 418 696 q 108 605 194 696 q 22 406 22 514 q 47 320 22 353 q 122 288 72 288 q 222 321 172 288 q 301 399 271 354 l 307 404 q 310 401 310 404 q 307 392 310 397 q 217 303 278 344 q 101 263 156 263 q 19 300 47 263 q -10 400 -10 338 q 18 521 -10 463 q 145 662 57 606 q 322 718 233 718 q 528 592 493 718 q 542 508 542 542 q 540 435 542 475 q 517 311 538 394 q 700 338 600 338 q 700 399 700 353 q 719 533 700 444 q 782 646 738 621 q 804 653 793 653 q 842 604 842 653 q 760 397 842 538 q 765 338 760 393 q 996 269 907 331 q 1161 668 1161 489 q 1135 760 1161 726 q 1051 813 1110 794 q 1039 825 1039 817 q 1045 832 1038 832 q 1064 828 1053 832 q 1188 752 1149 800 q 1226 650 1226 704 z "},"X":{"ha":801,"x_min":-94,"x_max":993,"o":"m -31 381 q 97 632 -31 508 q 88 693 88 668 q 131 800 88 764 q 172 817 153 817 q 314 743 258 817 q 362 746 336 746 q 420 734 388 746 q 471 684 453 722 q 495 609 489 646 q 503 514 501 572 q 582 594 560 550 q 604 655 604 638 q 601 679 604 672 q 603 689 597 686 q 614 681 608 692 q 619 647 619 671 q 603 590 619 624 q 504 497 574 533 q 507 422 504 472 l 742 610 q 902 753 850 694 q 983 815 954 813 q 992 804 992 815 q 788 615 992 772 q 508 400 572 453 l 508 292 q 519 113 508 157 q 539 42 529 69 q 601 -11 561 -14 q 672 12 640 -8 q 723 50 704 32 q 782 119 742 68 q 797 124 790 129 q 793 106 803 118 q 675 -12 739 42 q 558 -71 606 -71 q 483 -7 507 -71 q 456 122 460 60 q 450 264 450 228 l 453 328 q 451 351 453 342 l 400 308 l 403 224 q 425 -5 403 64 q 474 -90 447 -74 q 526 -107 500 -107 q 613 -72 576 -107 q 621 -72 617 -68 q 621 -81 625 -76 q 534 -121 574 -121 q 470 -108 494 -121 q 431 -70 446 -96 q 408 -19 417 -44 q 394 45 399 7 q 388 109 390 83 q 386 172 386 135 q 385 228 386 210 q 383 293 383 246 q -28 -179 93 42 q -85 -235 -58 -235 q -93 -219 -93 -235 q -79 -183 -93 -203 q 383 319 71 57 q 382 461 383 436 q 353 460 367 460 q 104 608 161 460 q 8 388 8 504 q 35 304 8 342 q 119 267 63 267 q 217 296 176 267 q 271 342 258 325 q 285 353 283 360 q 217 278 276 317 q 95 239 158 239 q 1 284 32 239 q -31 381 -31 329 m 113 618 q 169 531 129 568 q 263 482 210 493 q 342 471 317 471 q 382 472 368 471 q 318 719 375 638 q 113 618 211 719 m 301 740 q 199 800 250 800 q 144 781 171 800 q 101 685 101 744 q 107 640 101 664 q 293 739 196 719 q 297 740 294 739 q 301 740 300 740 m 331 719 q 394 474 382 635 q 449 486 422 478 q 389 694 444 649 q 331 719 365 715 m 449 475 q 396 463 422 467 q 400 333 400 404 l 450 375 q 449 475 449 403 z "},"Y":{"ha":982,"x_min":18,"x_max":1011,"o":"m 393 733 q 513 471 497 617 l 549 478 q 393 733 525 694 m 343 757 q 221 808 282 808 q 133 764 171 808 q 113 703 113 740 q 133 626 113 667 q 343 757 218 740 m 447 467 q 497 469 472 467 q 406 690 482 585 q 363 740 382 721 q 343 742 353 742 l 243 711 q 144 610 183 676 q 259 511 181 556 q 447 467 338 467 m 61 -339 q 311 -161 115 -249 q 261 -106 294 -131 q 181 -78 225 -78 q 50 -153 97 -78 q 29 -236 29 -186 q 61 -339 29 -286 m 81 -367 q 257 -444 147 -444 q 434 -384 340 -444 q 592 -222 528 -324 q 667 -49 633 -160 q 342 -189 472 -125 q 346 -242 346 -208 q 319 -324 346 -276 q 314 -326 318 -326 q 310 -318 307 -326 q 331 -251 331 -282 q 325 -197 331 -219 q 161 -287 229 -242 q 81 -367 104 -329 m 258 -456 q 74 -379 142 -456 q 65 -412 65 -396 q 75 -443 65 -428 q 221 -496 106 -496 q 333 -479 283 -496 q 597 -315 482 -440 q 747 -15 713 -190 l 689 -39 q 613 -228 657 -158 q 444 -394 543 -332 q 258 -456 344 -456 m 54 -353 q 18 -240 18 -296 q 104 -83 18 -142 q 185 -58 140 -58 q 276 -87 238 -58 q 331 -153 314 -117 q 526 -76 417 -115 q 674 -22 635 -37 q 706 108 688 28 q 783 356 764 374 q 783 342 786 350 q 731 157 756 282 q 696 -12 707 32 q 751 10 740 4 q 763 94 751 18 q 787 235 774 171 q 817 361 800 300 q 917 624 854 510 q 700 300 821 510 q 632 186 646 208 q 492 21 522 21 q 485 24 488 21 q 486 31 483 28 q 536 215 519 113 q 553 374 553 317 q 550 467 553 431 q 518 461 538 464 l 513 461 q 515 394 515 433 q 454 29 515 217 q 448 25 453 22 q 444 32 443 28 q 496 301 485 156 q 501 394 501 356 q 499 460 501 432 q 444 457 471 457 q 253 503 335 457 q 139 599 172 549 q 117 551 133 590 q 101 474 101 513 q 122 403 101 435 q 195 372 142 372 q 299 440 249 372 q 304 442 304 449 q 253 381 294 411 q 166 350 213 350 q 97 387 119 350 q 74 465 74 424 q 126 617 74 549 q 104 692 104 656 q 117 753 104 728 q 156 796 131 778 q 229 819 189 819 q 367 760 297 819 q 376 760 371 760 q 496 721 442 760 q 597 490 586 657 q 696 545 658 511 q 736 624 733 579 q 739 628 736 626 q 747 622 747 632 q 599 479 739 525 q 600 442 600 461 q 574 237 600 349 q 506 40 549 125 q 576 131 531 51 q 614 195 593 158 q 643 246 635 232 q 696 340 651 260 q 775 479 740 419 q 867 615 810 539 q 979 739 924 690 q 1001 747 992 750 q 1010 736 1010 743 q 1003 718 1010 729 q 895 499 938 622 q 840 285 853 375 q 819 119 826 196 q 811 38 813 42 q 899 82 850 54 q 946 103 947 110 q 892 59 943 93 q 804 8 840 25 q 697 -239 772 -119 q 507 -437 622 -358 q 326 -522 419 -497 q 239 -536 278 -536 q 58 -460 103 -536 q 43 -408 43 -435 q 54 -353 43 -381 z "},"Z":{"ha":758,"x_min":-3,"x_max":901,"o":"m 744 636 q 335 660 390 660 q 226 638 279 660 q 169 568 174 615 q 174 534 167 550 q 182 517 182 518 q 175 508 182 508 l 172 510 q 156 554 156 538 q 197 655 156 618 q 272 699 238 692 q 351 706 306 706 q 473 697 397 706 q 639 674 549 688 q 772 654 729 660 q 863 683 825 683 q 900 668 900 683 q 765 636 900 636 q 571 450 682 574 q 736 235 700 381 q 747 151 747 192 q 686 -24 747 56 q 792 42 751 -14 q 817 105 817 75 q 808 150 817 135 q 807 169 800 165 q 814 168 813 169 q 829 97 829 136 q 792 14 829 58 q 638 -72 728 -57 q 444 -151 560 -133 q 396 -156 418 -156 q 297 -120 329 -156 q 264 -40 264 -85 q 271 4 264 -19 l 210 25 q 76 -35 138 -35 q 42 -31 58 -35 q -3 17 -3 -17 q 49 67 -3 50 q 117 75 76 75 q 197 67 158 75 q 273 164 199 68 q 383 303 347 260 q 339 299 368 303 q 228 178 289 236 q 117 119 167 119 q 78 131 96 119 q 42 210 42 154 q 160 415 42 332 q 417 488 261 488 q 481 481 446 488 q 629 611 590 593 q 643 613 643 618 q 624 599 643 608 q 493 479 606 589 l 533 467 q 744 636 646 575 m 289 43 q 474 139 350 139 q 554 108 542 139 q 550 101 557 101 q 544 104 546 101 q 478 128 529 128 q 299 40 357 128 q 560 -26 499 -26 l 628 -31 q 658 -26 646 -31 q 726 158 726 56 q 719 228 726 192 q 564 440 689 375 q 464 328 519 393 q 610 311 551 325 q 617 307 617 311 q 610 304 615 304 l 606 304 q 526 308 581 308 q 444 307 472 308 q 334 174 407 267 q 242 57 261 81 q 289 43 278 47 m 211 242 q 215 225 208 238 l 214 224 q 194 239 210 224 q 189 265 188 251 q 344 329 194 326 q 471 472 439 439 q 417 476 444 476 q 114 349 221 476 q 53 203 53 275 q 106 132 53 132 q 219 196 151 132 q 313 293 251 226 q 211 242 213 275 m 274 -39 q 306 -112 274 -79 q 399 -144 338 -144 q 443 -140 419 -144 q 607 -75 543 -124 q 572 -75 599 -75 q 486 -62 546 -75 q 396 -40 426 -50 q 281 1 365 -29 q 274 -39 274 -19 m 172 35 q 61 50 115 50 q 7 24 7 50 q 40 -8 7 3 q 76 -15 58 -15 q 172 35 126 -15 m 365 331 l 406 329 q 525 458 474 407 q 485 469 503 467 q 365 331 451 435 z "},"[":{"ha":813,"x_min":67,"x_max":796,"o":"m 228 6 l 332 13 q 372 -4 372 13 q 219 -24 372 -24 q 67 26 67 -24 q 151 335 67 132 q 354 723 236 538 q 558 971 472 908 q 656 997 593 997 q 796 968 796 997 q 794 950 796 956 q 775 949 789 949 l 675 954 q 599 944 615 954 q 514 861 563 922 q 262 469 403 731 q 121 83 121 208 q 228 6 121 6 z "},"\\":{"ha":765,"x_min":14,"x_max":726,"o":"m 726 -117 q 690 -161 726 -161 l 690 -133 q 619 145 690 -15 q 438 464 549 306 q 14 985 222 771 q 42 993 15 993 q 103 965 69 993 q 218 833 138 936 q 375 621 299 731 q 535 374 451 511 q 673 105 619 238 q 726 -117 726 -28 z "},"]":{"ha":772,"x_min":44,"x_max":747,"o":"m 646 994 l 683 996 q 728 988 719 996 q 747 943 747 971 q 631 465 747 742 q 372 38 515 189 q 129 -24 314 -24 q 44 -21 63 -24 q 88 8 72 4 q 108 12 103 11 q 132 12 113 13 q 190 11 151 11 q 275 27 228 11 q 360 88 322 43 q 581 478 469 218 q 693 893 693 739 q 688 944 693 911 q 639 957 669 957 q 494 950 608 957 q 646 994 539 994 z "},"^":{"ha":449,"x_min":115,"x_max":371,"o":"m 126 340 q 115 341 115 338 q 116 344 115 344 q 117 346 117 344 l 286 465 q 317 468 307 468 q 329 465 328 468 l 371 346 q 368 339 371 340 q 347 346 350 339 l 296 426 l 146 346 q 126 340 140 340 z "},"_":{"ha":1056,"x_min":29,"x_max":1033,"o":"m 56 -85 q 29 -74 29 -85 q 47 -53 29 -67 q 84 -35 68 -40 q 507 -29 100 -29 q 974 -36 914 -29 q 1033 -53 1033 -43 q 992 -67 1033 -64 q 697 -77 714 -75 q 533 -81 679 -79 q 80 -85 99 -85 q 56 -85 61 -85 z "},"`":{"ha":340,"x_min":101,"x_max":257,"o":"m 110 576 q 101 601 101 585 q 114 618 101 618 q 132 609 121 618 q 165 583 143 600 q 251 518 201 558 q 257 508 257 514 q 246 499 257 499 q 110 576 229 499 z "},"a":{"ha":374,"x_min":32,"x_max":451,"o":"m 150 197 q 93 103 110 143 q 76 43 76 63 q 89 24 76 24 q 240 190 126 24 q 285 189 285 247 q 282 128 282 153 q 326 22 282 22 q 442 99 374 22 q 451 93 446 103 q 423 59 447 83 q 363 15 399 35 q 308 -4 326 -4 q 278 0 289 -4 q 226 142 226 18 q 146 31 171 54 q 82 -6 107 -6 q 78 -6 81 -6 q 32 56 32 1 q 67 178 32 111 q 161 300 103 246 q 278 354 219 354 q 332 340 306 354 q 356 297 356 326 q 329 263 356 267 q 339 294 339 279 q 325 315 339 308 q 300 322 311 322 q 150 197 240 322 z "},"b":{"ha":360,"x_min":22,"x_max":471,"o":"m 308 351 q 351 301 351 351 q 339 215 351 272 q 289 99 326 158 q 181 8 251 40 q 108 -10 138 -10 q 24 50 24 -10 q 44 96 24 76 q 113 6 54 6 q 121 6 117 6 q 195 49 156 11 q 264 149 235 88 q 293 267 293 211 q 276 306 293 314 q 167 202 213 274 q 119 60 121 131 q 111 51 119 51 q 89 66 103 51 q 72 82 75 81 q 106 287 72 147 q 198 540 139 426 q 331 699 257 653 q 364 710 338 703 q 397 717 390 717 q 406 715 404 717 q 464 675 444 706 q 471 661 471 665 q 465 657 471 657 q 456 661 460 657 q 383 686 425 686 q 379 686 382 686 q 224 474 314 685 q 128 172 135 263 q 201 265 147 206 q 272 338 256 325 q 308 351 288 351 z "},"c":{"ha":276,"x_min":17,"x_max":290,"o":"m 85 -25 q 18 69 18 -25 q 26 133 18 99 q 128 318 54 239 q 192 354 163 354 q 247 332 222 354 q 260 310 254 326 q 263 285 267 294 q 250 293 258 275 q 219 308 242 308 q 140 244 181 308 q 67 57 67 126 q 77 18 67 35 q 101 1 88 1 q 279 108 186 1 q 289 110 289 118 q 273 82 289 101 q 214 31 257 63 q 85 -25 143 -25 z "},"d":{"ha":425,"x_min":31,"x_max":488,"o":"m 344 281 q 317 127 317 204 q 336 35 317 50 q 356 32 343 32 q 400 49 369 32 q 458 88 431 65 q 486 108 485 110 q 488 103 488 106 q 456 60 488 89 q 383 12 424 31 q 323 -7 342 -7 q 296 -3 304 -7 q 282 8 288 0 q 274 28 276 17 q 271 55 272 40 q 271 85 269 69 q 274 115 272 100 q 277 143 275 129 q 281 167 279 157 q 285 189 282 176 l 268 169 q 81 -6 129 -6 q 76 -6 78 -6 q 32 56 32 1 q 36 97 32 74 q 134 274 58 194 q 275 354 210 354 q 331 340 301 354 q 387 492 350 383 q 464 621 424 600 q 474 624 469 624 q 485 589 489 624 q 464 544 485 585 q 377 362 396 410 q 356 308 358 314 q 353 278 371 275 l 344 281 m 89 97 q 75 43 75 63 q 88 24 75 24 q 217 151 122 24 q 292 262 264 215 q 321 317 321 308 q 292 325 321 325 q 192 253 263 325 q 89 97 122 181 z "},"e":{"ha":313,"x_min":22,"x_max":346,"o":"m 264 326 q 290 274 290 306 q 260 200 290 242 l 288 200 q 286 192 308 200 q 244 181 264 185 q 213 151 231 164 q 196 149 194 138 l 203 161 l 217 176 q 97 167 104 168 q 82 86 82 129 q 103 26 82 43 q 139 8 124 8 q 333 113 235 8 q 346 111 346 125 q 338 97 346 107 q 260 33 310 64 q 130 -18 179 -18 q 51 9 81 -18 q 22 92 22 36 q 28 143 22 111 q 60 226 35 175 q 123 312 86 276 q 195 347 160 347 q 264 326 231 347 m 231 199 q 254 276 254 247 q 229 306 254 306 q 168 271 204 306 q 111 196 132 236 q 231 199 214 199 z "},"f":{"ha":210,"x_min":24,"x_max":461,"o":"m 285 325 q 297 320 296 325 q 274 310 299 315 q 153 293 192 293 q 97 63 115 201 q 78 -140 78 -75 q 108 -268 78 -237 q 127 -281 115 -275 q 133 -290 139 -287 q 111 -293 126 -293 q 64 -272 96 -293 q 26 -203 32 -251 q 24 -131 24 -182 q 52 59 24 -79 q 111 288 81 197 q 97 286 104 286 q 65 301 71 286 q 66 318 58 317 q 94 321 74 319 q 119 324 114 322 q 233 575 189 503 q 397 710 314 710 q 428 706 413 710 q 460 665 460 694 q 442 628 460 636 q 439 665 449 651 q 408 678 429 678 q 308 603 364 676 q 163 325 214 476 l 285 325 z "},"g":{"ha":358,"x_min":-326,"x_max":381,"o":"m 217 288 q 197 270 217 288 q 137 198 176 253 q 81 102 97 143 q 64 42 64 61 q 76 24 64 24 q 228 190 114 24 q 272 189 272 247 q 271 164 271 179 q 274 69 271 111 q 345 125 311 94 q 379 146 379 156 q 361 117 379 136 q 275 40 301 57 q 281 -67 281 -3 q 260 -214 281 -132 q 146 -429 229 -339 q 0 -531 82 -497 q -117 -556 -54 -556 q -283 -494 -222 -556 q -325 -397 -325 -449 q -136 -167 -325 -290 q 65 -50 -53 -114 q 238 47 183 14 q 214 142 219 136 q 133 31 158 54 q 65 -6 92 -8 q 19 56 19 1 q 55 178 19 111 q 149 300 90 246 q 265 354 207 354 q 319 340 293 354 q 343 297 343 326 q 317 263 343 267 q 326 294 326 279 q 313 315 326 308 q 288 322 300 322 q 217 288 258 322 m -244 -314 q -300 -411 -300 -372 q -272 -478 -300 -450 q -147 -517 -233 -517 q -8 -486 -82 -517 q 149 -381 82 -451 q 251 -94 251 -268 q 242 22 251 -39 q -244 -314 -153 -215 z "},"h":{"ha":336,"x_min":8,"x_max":672,"o":"m 228 122 q 258 35 228 35 q 372 125 300 35 q 388 144 386 142 q 393 138 390 146 l 394 135 q 327 51 383 107 q 232 -4 271 -4 q 206 3 218 -4 q 171 125 171 19 q 174 172 171 142 q 179 204 176 201 q 176 202 179 206 q 165 190 172 199 q 149 171 157 181 q 129 146 140 161 q 108 119 118 131 q 69 69 83 92 q 33 0 65 19 q 23 -4 26 -4 q 19 22 19 -4 q 38 154 19 47 q 71 301 56 261 q 25 267 28 290 q 16 251 22 250 q 10 263 10 251 q 81 326 10 306 q 186 560 117 444 q 340 739 256 675 q 513 806 425 806 q 586 790 550 806 q 663 711 640 767 q 672 660 672 686 q 593 519 672 579 q 444 434 538 476 q 292 372 351 392 q 119 315 233 351 q 72 93 97 256 q 133 176 92 122 q 188 246 175 229 q 220 295 194 276 q 246 288 246 314 q 237 224 246 281 q 228 122 228 167 m 650 696 q 518 765 624 765 q 325 697 419 765 q 232 592 283 668 q 183 495 203 547 q 147 398 163 443 q 125 339 131 353 q 366 434 218 365 q 585 558 514 503 q 656 665 656 613 q 650 696 656 681 z "},"i":{"ha":197,"x_min":35,"x_max":247,"o":"m 192 426 q 201 420 201 426 q 185 394 201 414 q 114 378 149 350 q 113 386 108 382 q 192 426 161 426 m 85 74 q 110 32 85 32 q 178 77 124 32 q 238 126 233 122 q 244 128 242 131 q 247 124 247 126 q 246 119 247 122 q 158 36 225 85 q 83 0 114 0 q 36 81 36 0 q 39 124 36 96 q 83 300 42 153 q 115 311 86 311 q 143 295 143 311 q 133 253 143 279 q 108 225 122 228 q 93 156 101 224 q 85 74 85 88 z "},"j":{"ha":192,"x_min":-192,"x_max":228,"o":"m 218 426 q 228 420 228 426 q 211 394 228 414 q 140 378 175 353 q 138 386 133 382 q 218 426 188 426 m 87 10 q 82 -11 87 10 q 60 -85 78 -32 q 17 -180 42 -139 q -50 -243 -8 -221 q -120 -265 -92 -265 q -169 -258 -149 -265 q -190 -226 -190 -251 q -182 -196 -190 -197 q -177 -208 -176 -194 q -165 -237 -178 -222 q -128 -250 -151 -251 q -58 -212 -89 -249 q -3 -124 -28 -176 q 38 -18 21 -72 q 69 97 54 36 q 92 201 85 157 q 106 281 100 244 l 113 315 q 124 322 114 322 q 151 316 135 322 q 167 306 167 310 l 164 292 q 128 214 154 217 q 109 119 122 186 q 87 10 96 53 z "},"k":{"ha":288,"x_min":4,"x_max":403,"o":"m 114 226 q 340 399 217 399 q 388 375 376 399 q 385 366 392 368 q 374 372 379 364 q 346 375 368 379 q 231 303 294 365 q 131 193 168 242 q 226 76 163 135 q 339 7 290 18 q 335 1 347 6 q 292 -6 311 -6 q 265 -2 274 -6 q 249 4 257 1 q 237 8 240 7 q 226 14 233 10 q 214 22 219 18 q 188 51 207 29 q 114 169 144 107 q 51 15 64 94 l 51 8 q 44 -3 51 -3 q 22 13 38 -3 q 4 31 7 29 q 28 201 4 75 q 88 440 53 328 q 263 699 149 640 q 333 717 297 717 q 396 675 368 717 q 403 660 403 665 q 388 661 403 651 q 315 686 360 686 q 311 686 314 686 q 193 579 250 686 q 57 99 92 389 q 100 200 75 157 q 94 217 94 211 q 95 250 88 247 q 107 244 103 253 q 114 228 111 236 l 114 226 z "},"l":{"ha":231,"x_min":36,"x_max":392,"o":"m 115 251 q 83 88 83 138 q 97 28 83 38 q 129 18 110 18 q 194 39 149 18 q 265 92 240 60 q 289 107 290 124 q 281 82 288 93 q 199 22 256 50 q 108 -7 142 -7 q 93 -6 100 -7 q 39 93 39 7 q 51 192 39 133 q 38 199 38 189 q 63 238 38 211 q 282 699 146 585 q 338 724 313 724 q 392 674 392 724 q 289 439 389 563 q 206 343 238 376 q 115 251 175 310 m 371 668 q 353 703 371 703 q 200 492 296 703 q 119 282 144 365 q 283 474 196 354 q 371 668 371 593 z "},"m":{"ha":558,"x_min":15,"x_max":664,"o":"m 471 -6 q 392 113 392 -6 q 406 218 392 138 q 283 76 322 129 q 231 0 282 29 q 207 -6 207 -14 q 233 126 219 32 q 247 260 247 219 q 194 192 244 257 q 75 20 86 53 q 33 -21 64 -12 q 25 -22 28 -22 q 17 -14 17 -22 q 24 22 17 -11 q 38 78 32 54 q 58 191 57 160 q 60 238 60 222 q 58 279 60 253 q 93 322 56 306 q 118 329 108 329 q 128 306 138 329 q 104 181 119 282 q 86 75 89 79 q 222 261 140 124 q 272 308 251 308 q 296 244 292 308 q 285 101 296 168 q 324 147 296 115 q 415 261 369 199 q 451 314 425 294 q 476 301 478 333 q 465 231 476 296 q 451 140 454 165 q 447 103 447 114 q 472 42 447 57 q 501 33 482 33 q 546 50 521 33 q 590 83 571 67 q 620 112 608 99 q 642 138 632 125 q 654 151 653 150 q 664 143 661 154 q 581 52 647 110 q 471 -6 515 -6 z "},"n":{"ha":351,"x_min":22,"x_max":379,"o":"m 378 29 q 324 -28 378 -3 q 285 -36 304 -36 q 227 -5 240 -32 q 214 42 214 22 q 217 87 214 61 q 227 149 219 113 q 247 223 235 186 q 258 261 258 260 q 203 194 246 244 q 81 42 92 71 q 40 3 71 13 q 24 10 24 -3 q 33 50 24 13 q 64 236 64 167 l 63 274 q 94 313 63 297 q 119 319 108 319 q 135 301 139 319 q 121 231 131 282 q 93 99 99 110 q 269 321 175 174 q 286 331 275 331 q 331 317 326 331 q 316 255 333 307 q 290 169 299 203 q 269 48 269 85 q 275 -4 269 11 q 294 -18 281 -19 q 372 33 335 -12 q 378 29 378 39 z "},"o":{"ha":326,"x_min":38,"x_max":413,"o":"m 342 250 l 407 257 q 411 254 411 257 q 407 247 411 251 l 396 238 q 328 222 363 222 q 282 228 293 222 q 282 213 282 225 q 269 158 282 200 q 229 71 256 117 q 172 4 203 25 q 127 -17 142 -17 q 97 -12 113 -17 q 61 17 81 -8 q 39 87 39 42 q 53 179 39 132 q 179 342 104 335 q 203 353 189 353 q 242 339 218 353 q 288 274 283 313 q 342 250 307 250 m 194 294 q 143 240 171 289 q 102 143 115 192 q 89 60 89 94 q 114 14 89 26 q 129 11 121 11 q 204 76 163 11 q 242 160 228 114 q 256 218 256 206 q 254 235 256 231 q 213 254 228 239 q 196 282 197 269 l 194 294 z "},"p":{"ha":314,"x_min":-54,"x_max":349,"o":"m 142 -6 q 110 31 110 -6 q 169 125 110 78 q 208 156 190 142 l 225 171 q 200 253 225 200 q 156 306 175 306 q 118 204 154 306 q -1 -207 10 -103 q -3 -224 -1 -211 q -7 -245 -6 -236 q -9 -267 -8 -254 q -8 -289 -10 -279 q -3 -308 -7 -299 q 22 -331 3 -328 q 40 -339 40 -333 q 33 -343 42 -343 q -42 -289 -21 -343 q -54 -237 -54 -261 q -45 -171 -54 -212 q 4 -1 -36 -129 q 78 222 44 126 l 113 317 q 107 319 111 317 q 100 322 103 321 q 96 333 93 324 q 107 350 99 342 q 128 363 128 368 q 134 379 132 371 q 139 397 136 388 q 150 442 150 426 q 147 463 150 458 q 143 469 144 468 q 138 474 142 471 q 133 478 135 476 q 131 484 124 482 q 141 486 138 486 q 160 483 144 486 q 189 464 175 479 q 200 438 203 449 l 174 349 q 272 196 258 294 q 297 207 272 192 q 349 228 349 238 q 332 207 347 218 q 274 171 274 172 q 240 53 271 96 q 163 -3 210 10 q 142 -6 150 -6 m 225 151 q 139 40 139 78 q 158 24 139 24 q 207 61 186 24 q 226 140 226 100 q 225 151 226 147 z "},"q":{"ha":322,"x_min":15,"x_max":340,"o":"m 133 197 q 76 103 93 143 q 60 43 60 63 q 72 24 60 24 q 224 190 110 24 q 267 214 251 226 q 272 186 274 208 q 182 -176 182 -56 q 222 -283 182 -260 q 262 -287 244 -293 q 287 -268 279 -281 q 299 -259 294 -256 q 297 -275 303 -262 q 260 -310 283 -310 q 257 -310 258 -310 q 169 -256 197 -301 q 140 -158 140 -210 q 140 -149 140 -153 q 210 142 142 -33 q 129 31 154 54 q 61 -6 88 -8 q 15 56 15 1 q 51 178 15 111 q 144 300 86 246 q 261 354 203 354 q 315 340 289 354 q 339 297 339 326 q 313 263 339 267 q 322 294 322 279 q 308 315 322 308 q 283 322 294 322 q 133 197 224 322 z "},"r":{"ha":246,"x_min":19,"x_max":303,"o":"m 288 267 q 250 290 269 290 q 115 168 194 290 q 46 8 75 107 q 33 -3 44 -3 q 21 8 21 -3 l 42 156 q 57 295 56 267 q 94 335 58 324 q 117 338 106 338 q 131 325 129 338 q 129 316 131 321 q 109 242 128 311 q 85 161 90 174 q 169 274 118 219 q 249 329 221 329 q 250 329 250 329 q 299 283 288 329 q 301 265 301 272 q 297 257 301 257 q 288 267 293 256 z "},"s":{"ha":275,"x_min":-31,"x_max":297,"o":"m 19 -39 q -31 -14 -31 -39 q -19 3 -31 -6 q 15 14 -7 13 q 160 28 150 25 q 169 63 169 43 q 132 115 169 83 q 78 182 94 147 q 61 238 61 217 q 72 276 61 258 q 186 357 121 357 q 258 319 242 357 q 259 300 263 308 q 251 293 256 292 q 246 301 247 294 q 222 326 243 326 q 196 319 211 326 q 117 242 139 297 q 111 213 111 228 q 121 175 111 197 q 153 133 131 153 q 192 64 192 100 q 185 36 192 50 q 294 97 256 69 l 297 96 q 228 42 296 78 q 189 19 206 29 l 174 10 q 83 -31 160 -17 q 19 -39 44 -39 z "},"t":{"ha":232,"x_min":-4,"x_max":303,"o":"m 201 336 q 303 324 303 336 q 269 317 303 321 q 153 303 163 306 q 85 65 85 136 q 94 33 85 43 q 115 24 103 22 q 134 26 126 25 q 158 35 142 28 q 183 47 174 43 q 274 110 207 58 q 299 117 297 126 q 224 46 299 99 q 103 -7 150 -7 q 100 -7 101 -7 q 44 17 57 -4 q 39 50 39 28 q 44 103 39 72 q 65 183 49 135 q 95 267 82 232 q 107 301 108 301 q 4 289 92 301 q -3 303 -3 288 q 12 325 -3 319 q 117 335 26 331 q 181 525 160 482 q 193 535 185 535 q 217 515 201 535 q 232 486 232 496 q 229 471 232 476 l 161 335 q 201 336 181 336 z "},"u":{"ha":390,"x_min":32,"x_max":472,"o":"m 356 24 q 464 99 397 24 l 472 93 q 444 59 469 85 q 384 15 419 33 q 330 -4 349 -4 q 300 0 311 -4 q 260 49 275 8 q 243 124 246 89 q 242 161 240 160 q 222 128 231 144 q 200 94 213 113 q 172 58 188 76 q 89 -6 124 -6 q 85 -6 86 -6 q 32 69 32 3 q 133 322 32 171 q 158 335 142 335 q 190 332 175 335 q 210 317 211 324 q 139 217 176 283 q 75 51 75 100 q 92 25 75 25 q 133 45 110 25 q 171 86 156 65 q 199 124 186 107 q 229 170 211 142 q 257 213 247 199 q 277 234 267 226 q 294 235 288 242 q 299 212 300 229 q 299 182 299 194 q 356 24 299 24 z "},"v":{"ha":329,"x_min":26,"x_max":399,"o":"m 321 272 q 358 261 343 261 q 389 274 372 261 q 397 267 397 272 q 383 247 397 253 q 352 242 368 242 q 317 253 336 242 q 291 183 317 232 q 229 96 265 135 q 75 -3 140 -3 q 54 0 64 -3 q 28 42 28 6 q 40 115 28 79 q 74 244 74 215 q 54 279 74 272 q 71 325 42 285 q 109 331 78 335 q 140 317 140 326 q 117 200 140 285 q 88 58 88 88 q 103 29 88 29 q 214 114 140 29 q 299 265 292 210 q 272 313 279 288 q 270 356 265 339 q 282 374 275 372 q 293 375 289 375 q 318 355 311 375 q 325 322 325 335 q 325 300 325 308 l 321 272 z "},"w":{"ha":565,"x_min":25,"x_max":646,"o":"m 314 89 q 358 3 314 3 q 419 40 389 3 q 469 186 469 107 q 467 221 469 204 l 450 244 q 435 278 435 267 q 442 300 436 289 q 472 311 447 311 q 504 293 496 311 q 599 264 517 264 l 638 267 q 646 265 646 268 q 590 243 646 256 l 568 239 q 554 239 565 239 q 504 244 543 239 q 508 184 508 221 q 491 99 508 147 q 439 19 474 51 q 300 6 356 -56 q 264 111 269 39 q 263 182 260 176 q 182 44 233 117 q 78 -22 132 -22 q 25 35 25 -22 q 81 219 25 101 q 118 286 101 261 q 168 311 135 311 q 186 290 204 311 q 110 150 139 238 q 82 35 82 63 q 99 7 82 7 q 167 60 122 7 q 254 208 211 113 q 256 249 260 221 q 294 276 258 272 q 326 258 326 278 q 322 217 326 256 q 314 89 314 138 z "},"x":{"ha":294,"x_min":-3,"x_max":381,"o":"m -3 -8 q 147 151 -3 51 q 111 288 131 279 q 86 275 100 289 q 68 272 72 261 q 85 296 68 281 q 126 322 101 311 q 163 319 151 332 q 186 215 174 294 l 190 189 q 262 247 207 199 q 339 330 317 296 q 363 365 361 364 q 366 365 364 365 q 370 358 368 365 q 363 331 372 351 q 326 285 353 311 l 194 169 q 199 136 194 157 q 208 98 204 115 q 215 70 211 81 q 226 45 219 60 q 240 24 232 31 q 256 13 247 18 q 306 20 274 1 q 371 83 338 39 q 381 78 375 88 q 356 44 378 69 q 301 -1 335 18 q 243 -19 268 -19 q 151 133 158 -19 q 25 11 44 43 q 14 -18 13 -12 q 11 -29 18 -26 q -3 -8 -3 -29 z "},"y":{"ha":336,"x_min":-375,"x_max":313,"o":"m 313 289 q 288 140 313 250 q 244 -10 263 31 q 292 24 288 0 q 298 36 293 32 q 306 37 303 40 q 308 22 310 33 q 233 -35 303 -18 q 117 -261 192 -150 q -181 -487 -19 -461 q -227 -490 -197 -490 q -294 -472 -257 -490 q -367 -387 -347 -446 q -374 -338 -374 -364 q -361 -283 -374 -312 q -289 -199 -340 -233 q 196 -21 -164 -114 q 251 231 219 35 q 131 53 194 128 q 96 5 122 24 q 71 14 69 -14 q 82 72 71 21 q 93 177 93 122 q 64 232 93 232 q 35 222 50 232 q 17 220 19 213 q 40 247 15 228 q 85 265 65 265 q 119 256 104 265 q 138 215 135 247 q 142 164 142 183 q 138 119 142 144 q 132 90 135 93 q 256 254 132 81 q 294 300 263 300 q 313 289 313 300 m 189 -43 q -57 -127 94 -65 q -264 -226 -208 -189 q -339 -294 -319 -264 q -358 -342 -358 -324 q -283 -437 -358 -414 q -217 -449 -244 -449 q -160 -445 -189 -449 q -94 -426 -131 -442 q -30 -394 -57 -411 q 24 -345 -3 -376 q 68 -292 51 -314 q 106 -228 85 -269 q 136 -167 126 -187 q 164 -102 146 -147 q 189 -43 182 -57 z "},"z":{"ha":300,"x_min":10,"x_max":356,"o":"m 204 333 l 332 331 q 347 326 340 331 q 354 317 354 322 q 330 277 354 300 q 286 251 306 254 q 68 29 101 94 q 256 47 215 47 q 311 37 297 47 q 321 13 325 26 q 307 -16 317 -1 q 285 -41 297 -31 q 268 -51 274 -51 q 263 -47 263 -51 q 276 -28 263 -42 q 289 -7 290 -15 q 221 8 286 8 q 94 3 156 8 q 31 -3 32 -3 l 21 -3 q 10 14 10 4 q 14 29 10 24 q 77 106 24 51 q 194 224 131 161 q 275 306 258 288 q 228 310 251 310 q 103 272 140 310 q 71 247 79 247 q 67 254 67 247 q 114 325 88 304 q 204 333 149 333 z "},"{":{"ha":513,"x_min":29,"x_max":588,"o":"m 96 424 q 92 424 93 424 q 193 377 151 417 q 235 278 235 338 q 208 108 235 219 q 182 -57 182 -3 q 205 -138 182 -111 q 255 -169 228 -165 q 308 -174 282 -172 q 339 -182 335 -176 q 308 -186 336 -186 q 251 -182 281 -186 q 194 -164 222 -178 q 136 -54 136 -137 q 164 116 136 4 q 192 285 192 228 q 29 418 192 415 l 36 429 q 192 475 154 442 q 249 554 231 508 q 275 648 268 600 q 289 748 282 696 q 311 846 296 800 q 356 928 326 892 q 579 1008 417 1008 q 588 1006 585 1008 l 576 1001 q 410 942 461 1001 q 350 797 367 893 q 310 607 329 672 q 231 483 290 542 q 96 424 171 424 z "},"|":{"ha":347,"x_min":81,"x_max":251,"o":"m 251 857 l 250 814 q 203 302 250 689 q 121 -135 156 -85 q 82 -162 101 -162 q 81 -157 81 -162 q 83 -139 81 -151 q 89 -111 86 -126 q 136 94 136 83 q 188 699 188 389 q 183 860 188 824 q 169 929 178 897 q 161 977 161 961 q 188 993 161 993 q 251 857 251 993 z "},"}":{"ha":674,"x_min":35,"x_max":654,"o":"m 43 -182 q 35 -179 36 -182 q 103 -169 40 -175 q 203 -137 167 -164 q 265 -49 239 -111 q 306 76 292 13 q 349 208 321 139 q 416 313 378 276 q 508 376 454 350 q 613 408 563 403 q 503 444 549 413 q 458 536 458 475 q 499 717 458 597 q 539 883 539 838 q 531 947 539 929 q 508 972 524 964 q 478 983 492 981 q 438 989 464 986 q 397 994 413 992 l 394 997 l 404 1003 q 572 958 539 1003 q 589 885 589 936 q 545 710 589 833 q 501 526 501 588 q 543 441 501 464 q 654 411 585 418 l 644 399 q 503 365 558 397 q 424 281 449 332 q 383 167 399 229 q 349 44 367 106 q 300 -67 331 -17 q 206 -150 269 -118 q 43 -182 142 -182 z "},"~":{"ha":306,"x_min":17,"x_max":360,"o":"m 314 250 q 308 241 314 250 q 285 201 303 232 q 250 121 268 169 q 232 27 232 72 q 256 -15 232 -18 q 324 29 292 -12 q 329 25 329 35 q 317 0 329 13 q 249 -32 285 -32 q 215 -26 226 -32 q 190 28 190 -14 q 244 192 190 79 q 260 231 260 228 q 258 233 260 233 q 215 197 250 233 q 175 156 181 161 q 140 125 169 150 q 68 47 74 71 q 40 15 63 22 q 18 21 18 8 q 51 103 18 26 q 83 210 83 181 q 114 242 83 225 q 138 235 139 251 q 109 155 132 207 q 76 86 86 103 q 187 190 164 164 q 238 242 210 217 q 276 281 267 267 q 303 288 283 290 q 324 276 322 285 q 314 250 325 268 m 360 379 q 336 350 356 365 q 301 331 317 335 q 270 328 286 328 q 220 352 254 328 q 167 376 186 376 q 131 362 147 376 q 108 346 114 347 q 94 353 94 346 q 124 381 94 360 q 167 406 153 401 q 188 411 182 411 q 244 385 213 411 q 297 360 276 360 q 303 360 300 360 l 304 360 q 335 377 310 360 q 360 379 360 394 z "},"":{"ha":256,"x_min":0,"x_max":0,"o":""},"":{"ha":385,"x_min":-128,"x_max":329,"o":"m 317 275 q 323 269 317 275 q 329 244 329 263 q 317 214 329 226 q 285 201 304 201 q 253 214 267 201 q 240 244 240 226 q 253 275 240 263 q 285 288 267 288 q 317 275 304 288 m -61 -496 q -72 -501 -62 -501 q -95 -492 -81 -501 q -119 -472 -110 -482 q -128 -458 -128 -461 q -80 -389 -128 -456 q 56 -186 -32 -322 q 193 89 144 -50 q 219 113 201 113 q 236 96 236 113 q 119 -157 236 72 q -61 -496 3 -386 z "},"":{"ha":293,"x_min":32,"x_max":314,"o":"m 138 507 q 85 365 85 435 q 135 294 85 294 q 288 457 206 294 q 299 468 294 468 q 303 462 303 468 q 301 451 303 456 q 235 332 265 368 q 131 279 189 281 l 89 182 q 54 59 54 94 q 72 18 54 24 q 82 10 82 17 q 77 3 82 3 q 68 4 72 3 q 35 60 35 14 q 68 182 35 106 l 110 279 q 32 366 32 286 q 88 527 32 446 q 218 608 144 608 l 224 608 l 257 693 q 311 790 297 790 q 314 781 314 790 q 310 765 314 772 q 285 704 306 758 l 247 604 q 296 535 296 588 q 280 492 293 508 q 247 476 267 476 q 214 490 226 476 q 201 521 201 503 q 242 563 204 563 q 246 563 243 563 q 276 546 269 563 q 272 572 279 561 q 245 586 264 586 q 200 568 226 586 q 138 507 165 546 z "},"":{"ha":531,"x_min":15,"x_max":656,"o":"m 300 318 q 229 300 253 318 q 222 312 225 300 q 222 326 219 324 q 279 344 244 344 q 339 340 314 344 q 571 746 435 746 q 622 728 597 746 q 656 655 656 703 q 635 553 656 607 q 581 457 615 499 q 569 450 574 450 q 568 465 558 450 q 642 644 642 571 q 597 718 642 718 q 514 669 551 718 q 431 442 453 588 l 413 328 q 456 324 439 324 q 485 328 472 324 l 501 335 q 508 322 506 335 q 508 307 511 310 q 463 297 489 297 q 407 303 436 297 q 268 11 368 103 q 366 -50 300 -15 q 466 -95 432 -85 q 535 -106 500 -106 q 596 -82 571 -106 q 622 -25 622 -62 q 621 -2 622 -12 q 622 8 619 8 q 631 -24 631 8 q 521 -117 631 -117 q 430 -102 475 -117 q 317 -58 385 -87 q 221 -11 250 -29 q 149 -36 186 -36 q 72 -15 111 -36 q 18 56 26 11 q 15 81 15 65 q 31 114 15 97 q 81 131 47 131 q 161 100 114 131 q 242 35 206 67 q 297 167 272 82 q 333 315 297 168 q 300 318 308 318 m 206 0 q 51 100 79 100 q 22 76 22 100 q 57 8 22 38 q 138 -25 99 -25 q 206 0 178 -25 z "},"":{"ha":813,"x_min":81,"x_max":740,"o":"m 250 371 q 296 485 250 438 l 190 653 l 347 524 q 438 549 389 549 q 521 524 488 549 l 740 657 l 556 482 q 568 432 568 458 q 522 322 568 369 l 631 154 l 474 285 q 381 260 428 260 q 299 283 333 260 l 81 149 l 263 324 q 250 371 250 344 m 483 480 q 468 495 483 480 q 413 510 453 510 q 340 478 372 510 q 308 401 308 447 q 337 326 308 356 q 406 297 365 297 q 479 328 446 297 q 513 404 513 358 q 483 480 513 450 z "},"":{"ha":668,"x_min":46,"x_max":674,"o":"m 661 501 q 662 515 661 503 q 648 542 663 526 q 613 557 633 557 q 401 304 544 557 l 499 304 q 500 300 500 304 q 494 290 500 296 q 483 285 489 285 l 390 285 q 342 197 385 271 l 435 197 q 438 194 438 197 q 431 183 438 190 q 421 176 425 176 l 329 176 q 218 36 271 89 q 64 -40 142 -40 q 46 -35 46 -40 q 60 -29 46 -29 q 188 50 114 -29 q 282 176 229 99 l 71 176 q 68 180 68 176 q 75 190 68 183 q 85 197 82 197 l 296 197 l 300 204 q 293 285 300 240 l 163 285 q 160 288 160 285 q 166 297 160 290 q 176 304 172 304 l 290 304 q 250 431 281 372 q 156 510 208 510 q 100 476 122 510 q 78 413 78 442 q 90 360 78 385 l 101 336 q 97 329 101 329 q 90 332 93 329 q 67 408 67 367 q 90 483 67 450 q 163 522 115 522 q 253 472 211 522 q 333 257 324 389 l 351 285 q 353 288 351 286 q 356 294 354 290 q 363 303 358 297 q 380 332 367 310 q 400 364 393 354 q 613 569 531 569 q 656 551 639 569 q 674 512 674 533 q 667 490 674 490 q 660 496 660 490 l 661 501 z "},"":{"ha":449,"x_min":156,"x_max":396,"o":"m 396 693 l 310 299 l 265 303 l 349 693 l 396 693 m 288 200 l 204 -214 l 156 -214 l 244 204 l 288 200 z "},"":{"ha":611,"x_min":-6,"x_max":607,"o":"m 246 -99 l 267 -93 q 272 -99 272 -93 q 251 -110 272 -110 q 165 -51 183 -87 q 43 4 86 -39 q -6 125 -6 49 q 38 266 -6 201 q 139 353 82 331 q 256 376 196 376 q 360 339 317 376 q 440 442 413 396 l 440 454 q 457 557 440 521 q 449 610 449 590 q 482 654 449 654 q 513 617 513 654 q 485 514 513 581 q 541 427 493 499 q 598 318 589 356 q 607 244 607 281 q 558 84 607 156 q 425 13 510 13 q 390 17 408 13 q 200 -54 300 -54 q 176 -51 193 -54 q 235 -96 199 -85 q 246 -99 240 -99 m 240 363 q 83 288 153 363 q 13 121 13 213 q 54 13 13 61 q 158 -37 97 -33 q 151 21 151 -19 q 178 126 151 61 q 156 178 156 147 q 163 206 156 188 q 176 224 168 224 q 172 208 181 224 q 163 172 163 192 q 182 133 163 153 q 343 325 225 229 q 240 363 301 363 m 446 279 q 440 425 446 369 q 365 333 415 386 q 396 255 396 303 q 371 169 396 207 q 304 115 346 132 q 360 42 313 68 q 446 279 446 132 m 296 111 q 240 103 271 103 q 188 118 210 103 q 160 24 160 58 q 169 -37 160 -11 q 354 36 276 -37 q 296 111 306 65 m 301 128 q 355 180 333 147 q 376 250 376 213 q 350 318 376 288 q 190 126 233 218 q 240 110 211 110 q 293 124 269 110 q 292 150 292 128 q 313 194 292 172 q 316 196 314 196 q 318 192 318 196 l 310 176 q 301 140 301 164 l 301 128 m 546 218 q 547 272 547 228 q 528 378 547 317 q 478 496 526 385 q 463 460 475 489 q 489 347 474 413 q 504 229 504 281 q 401 26 504 114 q 501 94 457 26 q 546 218 544 161 m 481 522 q 503 609 503 576 q 485 642 503 642 q 457 608 457 642 q 481 522 457 574 m 461 542 q 456 513 456 531 q 460 475 456 496 l 474 506 q 461 542 465 524 z "},"":{"ha":257,"x_min":35,"x_max":215,"o":"m 185 460 q 200 460 185 460 q 215 429 215 460 q 186 399 215 399 q 154 429 154 399 q 185 460 154 460 m 65 460 q 81 460 65 460 q 96 429 96 460 q 67 399 96 399 q 35 429 35 399 q 65 460 35 460 z "},"":{"ha":513,"x_min":-8,"x_max":521,"o":"m 453 449 q 521 273 521 381 q 433 78 521 165 q 237 -10 346 -10 q 60 58 128 -10 q -8 233 -8 125 q 79 428 -8 342 q 275 515 167 515 q 453 449 383 515 m 422 88 q 504 272 504 169 q 441 438 504 375 q 274 501 378 501 q 90 419 171 501 q 7 236 7 339 q 71 69 7 133 q 236 6 135 6 q 422 88 338 6 m 401 404 q 438 361 438 392 q 385 311 438 331 q 287 299 344 299 q 178 329 229 299 q 115 179 115 261 q 136 106 115 135 q 201 71 158 71 q 335 149 283 71 q 351 194 351 174 q 339 228 351 215 q 307 240 326 240 q 250 201 267 240 q 246 196 249 196 q 243 199 243 196 l 244 203 q 310 246 254 246 q 349 231 333 246 q 364 193 364 215 q 310 103 364 142 q 201 65 257 65 q 113 97 144 65 q 82 185 82 129 q 156 344 82 275 q 126 397 126 369 q 188 449 126 449 q 249 429 229 449 l 249 424 q 196 440 218 440 q 138 393 138 440 q 160 349 138 371 q 338 415 233 415 q 401 404 372 415 m 426 365 q 341 408 426 408 q 182 333 256 408 q 284 306 231 306 q 371 317 338 306 q 426 365 426 333 z "},"":{"ha":346,"x_min":32,"x_max":247,"o":"m 244 444 q 157 392 194 392 q 115 446 119 392 q 78 404 96 418 q 49 390 61 390 q 32 412 32 390 q 44 451 32 433 q 113 515 74 497 q 149 522 131 522 q 168 507 168 522 q 163 502 168 504 q 157 499 157 500 q 139 436 139 468 q 167 404 139 404 q 238 450 196 404 q 247 450 247 457 q 244 444 247 447 m 63 451 q 54 422 54 432 q 63 413 54 413 q 90 428 71 413 q 117 465 108 443 q 129 506 121 489 q 63 451 92 506 z "},"":{"ha":418,"x_min":104,"x_max":442,"o":"m 442 275 q 371 213 431 256 l 293 157 l 292 32 l 288 22 l 281 19 l 274 22 q 254 92 264 39 l 238 165 q 435 285 429 285 l 440 282 l 442 275 m 308 275 q 238 213 297 258 q 158 157 185 176 l 157 32 l 153 22 l 146 19 q 139 22 144 19 q 119 94 132 40 q 104 165 107 149 q 301 285 293 285 l 307 282 l 308 275 z "},"":{"ha":749,"x_min":65,"x_max":619,"o":"m 547 13 q 534 19 539 13 q 529 33 529 25 l 568 213 l 85 213 q 65 224 65 213 q 76 244 65 231 q 93 257 86 257 l 619 257 l 572 33 q 547 13 568 13 z "},"":{"ha":513,"x_min":-8,"x_max":521,"o":"m 453 449 q 521 273 521 381 q 433 78 521 165 q 237 -10 346 -10 q 60 58 128 -10 q -8 233 -8 125 q 79 428 -8 342 q 275 515 167 515 q 453 449 383 515 m 422 88 q 504 272 504 169 q 441 438 504 375 q 274 501 378 501 q 90 419 171 501 q 7 236 7 339 q 71 69 7 133 q 236 6 135 6 q 422 88 338 6 m 151 303 l 154 306 q 157 302 157 306 q 150 299 157 299 q 132 317 132 299 q 147 347 132 335 q 182 358 161 358 q 217 344 203 358 q 232 299 232 329 q 206 246 232 268 q 144 224 179 224 q 86 243 110 224 q 64 292 64 264 q 163 414 64 375 q 269 433 210 433 q 365 421 328 433 q 432 443 400 443 l 436 442 l 435 440 q 372 418 396 436 q 431 356 431 397 q 394 291 431 314 q 313 264 357 268 q 322 215 318 250 q 329 149 325 179 q 347 116 333 119 q 363 113 360 113 q 410 142 385 113 q 443 199 436 171 l 447 199 l 449 197 q 408 131 435 161 q 353 101 381 101 q 331 110 342 101 q 301 181 306 126 q 297 263 297 261 l 286 263 q 272 264 276 263 q 215 160 242 190 q 85 93 163 93 q 46 119 46 93 q 71 144 46 144 q 78 141 78 144 q 76 138 78 138 l 72 138 q 68 139 71 139 q 54 121 54 139 q 88 99 54 99 q 193 165 146 99 q 253 282 213 196 q 357 415 299 374 q 274 426 321 426 q 97 346 144 426 q 82 293 82 319 q 99 248 82 267 q 145 229 115 229 q 197 251 175 229 q 221 304 221 271 q 176 353 221 353 q 149 342 163 353 q 136 315 136 331 q 151 303 136 303 m 310 271 q 378 299 349 278 q 407 356 407 319 q 364 413 407 392 q 285 293 325 378 q 310 271 301 286 m 296 269 q 282 288 290 282 l 275 269 l 296 269 z "},"":{"ha":449,"x_min":165,"x_max":400,"o":"m 400 418 l 381 374 l 165 374 l 185 418 l 400 418 z "},"":{"ha":463,"x_min":0,"x_max":0,"o":""},"":{"ha":424,"x_min":122,"x_max":449,"o":"m 207 268 l 282 267 q 314 401 288 293 q 333 421 318 421 q 340 404 342 421 q 313 267 329 356 q 432 265 379 267 q 449 253 449 265 q 419 240 449 240 q 307 235 390 240 q 285 108 299 197 q 274 99 285 104 q 254 93 264 93 q 240 108 236 93 l 274 233 q 142 225 222 232 q 132 247 132 225 q 155 269 132 269 q 207 268 178 269 m 138 65 l 232 63 l 379 57 q 399 43 399 57 q 382 32 399 32 q 184 26 232 32 q 133 21 136 21 q 128 29 131 21 q 122 47 122 36 q 138 65 122 65 z "},"":{"ha":331,"x_min":-10,"x_max":324,"o":"m 219 263 q 215 261 217 261 q 213 266 213 261 q 222 275 213 271 q 232 289 232 279 q 206 307 232 299 q 158 315 181 315 l 149 315 q 19 283 107 315 q -1 279 8 279 q -10 289 -10 279 q 3 310 -10 299 q 33 322 17 322 q 160 390 83 340 q 272 487 236 440 q 307 560 307 533 q 271 592 307 592 q 219 579 250 592 q 118 485 138 544 q 111 478 115 478 q 110 486 110 478 q 169 567 118 529 q 256 606 219 606 q 308 589 292 606 q 324 540 324 572 q 294 474 324 508 q 221 415 265 443 q 93 331 131 361 q 238 288 242 331 q 219 263 238 269 z "},"":{"ha":331,"x_min":31,"x_max":357,"o":"m 43 303 q 104 268 43 268 q 221 313 165 268 q 251 361 251 338 q 215 397 251 385 q 150 409 179 410 q 121 416 121 408 q 175 429 121 424 q 238 438 229 435 q 332 518 332 461 q 306 565 332 543 q 236 585 278 585 q 151 565 194 585 q 97 504 101 540 q 91 496 97 496 q 85 506 85 496 q 140 570 86 547 q 244 593 194 593 q 326 572 294 593 q 357 522 357 551 q 249 428 357 461 l 192 417 q 255 401 233 417 q 276 355 276 385 q 226 289 276 325 q 103 253 176 253 q 31 304 31 253 q 68 343 31 336 q 75 340 75 343 q 67 336 75 336 q 51 326 60 336 q 43 303 43 317 z "},"":{"ha":247,"x_min":50,"x_max":232,"o":"m 53 394 q 115 440 72 408 q 172 483 157 472 q 209 493 186 493 q 232 475 232 493 q 227 463 232 471 q 145 418 222 454 q 60 382 68 382 q 51 387 51 382 q 53 394 51 392 z "},"":{"ha":300,"x_min":-119,"x_max":382,"o":"m 249 -7 q 200 46 200 -7 q 210 96 200 71 q 92 -6 146 -6 q 49 21 61 -6 l -71 -240 q -89 -243 -72 -243 q -119 -233 -119 -243 l 60 118 l 104 210 q 156 299 132 264 l 157 299 q 176 293 163 293 q 217 313 190 293 l 218 311 q 183 258 204 294 q 131 167 144 189 q 76 29 76 75 q 99 4 76 4 q 243 167 151 4 q 314 304 268 213 l 315 304 q 344 297 329 297 q 368 315 360 297 l 371 315 l 299 175 q 235 28 235 56 q 250 1 235 1 q 318 52 282 1 q 375 151 354 103 l 381 151 l 382 149 q 249 -7 311 -7 z "},"":{"ha":374,"x_min":150,"x_max":560,"o":"m 171 414 q 182 468 171 435 q 306 593 215 557 q 400 606 339 606 l 560 606 l 543 560 l 524 560 l 319 0 l 257 0 l 463 560 l 417 560 l 213 0 l 150 0 l 274 336 q 171 414 171 336 z "},"":{"ha":763,"x_min":0,"x_max":0,"o":""},"":{"ha":351,"x_min":67,"x_max":301,"o":"m 263 -51 q 301 -109 301 -72 q 254 -176 301 -146 q 194 -193 231 -193 q 113 -182 158 -193 q 67 -150 67 -171 q 71 -143 67 -143 q 86 -154 75 -143 q 171 -176 108 -176 q 254 -143 233 -176 q 268 -103 268 -125 q 247 -67 268 -82 q 203 -53 225 -53 q 156 -64 181 -53 l 132 -75 q 114 -61 114 -75 q 118 -53 114 -57 l 154 -24 q 191 1 188 1 q 196 -7 194 1 q 156 -39 156 -36 q 205 -36 181 -36 q 263 -51 229 -36 z "},"":{"ha":339,"x_min":76,"x_max":265,"o":"m 96 307 q 85 301 94 301 q 76 310 76 301 q 78 315 76 314 l 138 440 q 190 567 169 511 q 151 540 167 556 q 133 524 136 524 q 129 526 129 524 q 238 638 129 536 l 243 638 q 258 631 253 638 q 264 621 264 625 l 183 488 q 96 307 128 385 z "},"":{"ha":253,"x_min":42,"x_max":218,"o":"m 65 421 q 82 394 65 394 q 121 418 104 394 q 68 446 88 422 q 65 421 65 426 m 126 428 q 143 492 143 458 q 113 529 143 526 q 76 472 92 506 q 126 428 85 433 m 124 542 q 118 536 124 539 q 157 484 157 524 q 140 428 157 444 q 211 456 183 428 q 216 458 214 458 q 218 455 218 458 q 214 447 218 451 q 135 417 179 417 q 72 382 106 382 q 42 414 42 382 q 56 479 42 446 l 54 496 q 92 538 54 533 q 113 550 103 550 q 124 542 124 550 z "},"":{"ha":418,"x_min":25,"x_max":364,"o":"m 229 139 l 40 21 l 33 19 q 26 21 29 19 l 25 25 q 99 92 25 38 l 175 146 l 176 272 l 181 281 l 188 285 l 196 281 q 215 210 206 260 l 229 139 m 160 29 q 310 146 179 57 l 310 188 q 308 219 308 206 q 309 254 308 233 q 314 281 310 275 l 321 285 l 329 281 q 364 139 332 278 l 174 21 l 167 19 l 160 21 l 160 29 z "},"":{"ha":576,"x_min":6,"x_max":576,"o":"m 469 157 q 521 141 521 150 q 513 132 521 132 l 513 133 q 510 132 513 132 l 506 132 l 490 135 q 465 138 476 138 l 449 138 q 399 35 439 122 l 376 -10 q 365 -29 372 -22 q 356 -17 356 -29 q 385 57 356 -4 l 422 138 q 414 140 419 140 q 268 117 339 140 q 257 129 257 117 q 278 151 257 136 l 306 168 q 438 261 374 214 q 544 363 501 308 q 563 329 563 363 l 563 318 q 508 238 551 310 q 463 160 463 167 q 469 157 465 158 m 576 617 l 35 -87 l 6 -87 l 546 617 l 576 617 m 147 307 q 137 301 146 301 q 128 310 128 301 q 133 324 128 314 q 149 354 139 333 q 169 401 158 375 q 201 470 181 426 q 242 567 222 514 q 204 540 221 557 q 183 524 188 524 q 182 526 182 524 q 289 638 182 536 l 294 638 q 312 630 304 638 q 315 618 319 622 q 234 487 283 574 q 147 307 185 400 m 382 164 q 432 163 431 164 q 507 297 444 163 q 413 223 471 265 q 335 164 354 181 l 382 164 z "},"":{"ha":576,"x_min":6,"x_max":618,"o":"m 576 617 l 35 -87 l 6 -87 l 546 617 l 576 617 m 514 -24 q 508 -25 511 -25 q 506 -20 506 -25 q 516 -10 506 -15 q 526 3 526 -6 q 497 21 526 11 q 431 29 468 31 q 347 10 394 28 q 296 -7 300 -7 q 285 1 285 -7 q 298 25 285 14 q 326 36 311 36 q 453 103 378 53 q 565 199 528 154 q 601 275 601 244 q 565 306 601 306 q 513 293 543 306 q 413 199 432 258 q 406 193 411 193 q 404 200 403 193 q 463 282 413 242 q 550 319 513 319 q 618 260 618 319 q 524 135 618 196 q 388 44 442 89 q 532 1 535 44 q 514 -24 529 -18 m 147 307 q 137 301 146 301 q 128 310 128 301 q 133 324 128 314 q 149 354 139 333 q 169 401 158 375 q 201 470 181 426 q 242 567 222 514 q 204 540 221 557 q 183 524 188 524 q 182 526 182 524 q 289 638 182 536 l 294 638 q 310 631 304 638 q 317 622 317 625 q 300 597 317 619 q 234 487 283 574 q 147 307 185 400 z "},"":{"ha":576,"x_min":6,"x_max":576,"o":"m 469 157 q 521 141 521 150 q 513 132 521 132 l 513 133 q 510 132 513 132 l 506 132 l 490 135 q 465 138 476 138 l 449 138 q 399 35 439 122 l 376 -10 q 365 -29 372 -22 q 356 -17 356 -29 q 385 57 356 -4 l 422 138 q 414 140 419 140 q 268 117 339 140 q 257 129 257 117 q 278 151 257 136 l 306 168 q 438 261 374 214 q 544 363 501 308 q 563 329 563 363 l 563 318 q 508 238 551 310 q 463 160 463 167 q 469 157 465 158 m 576 617 l 35 -87 l 6 -87 l 546 617 l 576 617 m 43 303 q 104 268 43 268 q 221 313 165 268 q 251 361 251 338 q 215 397 251 385 q 150 409 179 410 q 121 416 121 408 q 175 429 121 424 q 238 438 229 435 q 332 518 332 461 q 306 565 332 543 q 236 585 278 585 q 151 565 194 585 q 97 504 101 540 q 91 496 97 496 q 85 506 85 496 q 140 570 86 547 q 244 593 194 593 q 326 572 294 593 q 357 522 357 551 q 249 428 357 461 l 192 417 q 255 401 233 417 q 276 355 276 385 q 226 289 276 325 q 103 253 176 253 q 31 304 31 253 q 68 343 31 336 q 75 340 75 343 q 67 336 75 336 q 51 326 60 336 q 43 303 43 317 m 382 164 q 432 163 431 164 q 507 297 444 163 q 413 223 471 265 q 335 164 354 181 l 382 164 z "},"":{"ha":556,"x_min":-12,"x_max":472,"o":"m 460 275 q 472 244 472 263 q 460 214 472 226 q 428 201 444 201 q 396 214 411 201 q 383 244 383 226 q 396 275 383 263 q 428 288 411 288 q 460 275 444 288 m 100 -494 q 26 -468 64 -494 q -12 -399 -12 -442 q 49 -268 -12 -333 q 182 -154 86 -224 q 315 -49 292 -69 q 372 56 372 4 l 372 60 q 361 71 372 71 q 367 94 365 82 q 386 107 369 107 q 410 93 403 107 q 418 65 418 79 q 368 -47 418 11 q 233 -183 318 -106 q 96 -314 147 -260 q 44 -411 44 -368 q 89 -454 44 -454 q 300 -387 194 -454 q 439 -272 406 -319 q 458 -262 446 -262 q 471 -276 471 -262 q 461 -300 471 -286 q 312 -424 424 -353 q 100 -494 200 -494 z "},"":{"ha":1068,"x_min":7,"x_max":1140,"o":"m 925 786 q 976 721 976 786 q 959 534 976 686 q 938 294 942 382 q 1024 310 1007 299 q 1041 313 1040 321 q 1017 290 1042 304 q 938 267 993 275 q 938 181 938 242 q 983 1 938 46 q 1012 -15 1000 -15 q 1040 -10 1024 -15 q 1081 22 1056 -6 q 1124 90 1106 49 q 1134 101 1129 103 q 1139 94 1139 99 q 1138 85 1139 90 q 1081 -1 1119 33 q 929 -19 996 -79 q 885 69 894 11 q 876 176 876 128 q 878 260 876 224 q 704 258 857 258 q 546 107 631 178 q 567 106 556 106 q 744 208 667 106 q 753 207 750 215 l 753 201 q 567 92 669 92 q 532 94 549 92 q 163 -79 315 -79 q 36 -33 81 -79 q 8 42 8 -3 q 55 153 8 107 q 166 220 101 199 q 335 258 231 242 q 300 415 300 338 q 419 725 300 626 q 550 776 483 776 q 599 769 574 776 q 714 656 686 747 q 725 581 725 621 q 614 282 725 447 l 676 282 q 786 424 704 310 q 910 592 868 539 q 924 708 924 682 q 899 757 924 757 q 821 700 869 757 q 789 657 794 669 q 775 650 783 644 q 800 703 767 661 q 925 786 869 786 m 596 281 q 653 378 629 329 q 706 558 706 486 q 679 678 706 631 q 544 758 635 758 q 387 667 453 758 q 321 415 321 575 q 354 261 321 332 q 596 281 481 279 m 26 58 q 65 -8 26 19 q 194 -44 114 -44 q 501 101 340 -44 l 469 114 q 192 -11 326 -11 q 113 0 151 -11 q 108 7 106 1 q 115 11 111 13 q 456 122 278 -32 q 351 229 392 160 q 151 182 218 203 q 26 58 26 139 m 729 289 q 784 288 749 288 q 881 290 819 288 q 907 544 885 399 q 841 441 872 483 q 777 353 810 399 q 729 289 744 308 m 581 260 q 369 232 478 250 q 468 133 411 164 q 581 260 528 188 m 660 261 q 632 263 647 263 q 600 261 617 263 q 482 125 546 182 q 514 114 500 118 q 592 192 543 142 q 660 261 640 243 m 832 900 q 824 925 824 908 q 836 942 824 942 q 857 931 843 942 l 974 842 q 979 832 979 838 q 968 822 979 822 q 832 900 951 822 z "},"":{"ha":1068,"x_min":7,"x_max":1140,"o":"m 925 786 q 976 721 976 786 q 959 534 976 686 q 938 294 942 382 q 1024 310 1007 299 q 1041 313 1040 321 q 1017 290 1042 304 q 938 267 993 275 q 938 181 938 242 q 983 1 938 46 q 1012 -15 1000 -15 q 1040 -10 1024 -15 q 1081 22 1056 -6 q 1124 90 1106 49 q 1134 101 1129 103 q 1139 94 1139 99 q 1138 85 1139 90 q 1081 -1 1119 33 q 929 -19 996 -79 q 885 69 894 11 q 876 176 876 128 q 878 260 876 224 q 704 258 857 258 q 546 107 631 178 q 567 106 556 106 q 744 208 667 106 q 753 207 750 215 l 753 201 q 567 92 669 92 q 532 94 549 92 q 163 -79 315 -79 q 36 -33 81 -79 q 8 42 8 -3 q 55 153 8 107 q 166 220 101 199 q 335 258 231 242 q 300 415 300 338 q 419 725 300 626 q 550 776 483 776 q 599 769 574 776 q 714 656 686 747 q 725 581 725 621 q 614 282 725 447 l 676 282 q 786 424 704 310 q 910 592 868 539 q 924 708 924 682 q 899 757 924 757 q 821 700 869 757 q 789 657 794 669 q 775 650 783 644 q 800 703 767 661 q 925 786 869 786 m 596 281 q 653 378 629 329 q 706 558 706 486 q 679 678 706 631 q 544 758 635 758 q 387 667 453 758 q 321 415 321 575 q 354 261 321 332 q 596 281 481 279 m 26 58 q 65 -8 26 19 q 194 -44 114 -44 q 501 101 340 -44 l 469 114 q 192 -11 326 -11 q 113 0 151 -11 q 108 7 106 1 q 115 11 111 13 q 456 122 278 -32 q 351 229 392 160 q 151 182 218 203 q 26 58 26 139 m 729 289 q 784 288 749 288 q 881 290 819 288 q 907 544 885 399 q 841 441 872 483 q 777 353 810 399 q 729 289 744 308 m 581 260 q 369 232 478 250 q 468 133 411 164 q 581 260 528 188 m 660 261 q 632 263 647 263 q 600 261 617 263 q 482 125 546 182 q 514 114 500 118 q 592 192 543 142 q 660 261 640 243 m 875 843 q 937 889 894 857 q 994 931 979 921 q 1031 942 1008 942 q 1054 924 1054 942 q 1049 911 1054 919 q 967 867 1044 903 q 882 831 890 831 q 874 835 874 831 q 875 843 874 840 z "},"":{"ha":1068,"x_min":7,"x_max":1140,"o":"m 925 786 q 976 721 976 786 q 959 534 976 686 q 938 294 942 382 q 1024 310 1007 299 q 1041 313 1040 321 q 1017 290 1042 304 q 938 267 993 275 q 938 181 938 242 q 983 1 938 46 q 1012 -15 1000 -15 q 1040 -10 1024 -15 q 1081 22 1056 -6 q 1124 90 1106 49 q 1134 101 1129 103 q 1139 94 1139 99 q 1138 85 1139 90 q 1081 -1 1119 33 q 929 -19 996 -79 q 885 69 894 11 q 876 176 876 128 q 878 260 876 224 q 704 258 857 258 q 546 107 631 178 q 567 106 556 106 q 744 208 667 106 q 753 207 750 215 l 753 201 q 567 92 669 92 q 532 94 549 92 q 163 -79 315 -79 q 36 -33 81 -79 q 8 42 8 -3 q 55 153 8 107 q 166 220 101 199 q 335 258 231 242 q 300 415 300 338 q 419 725 300 626 q 550 776 483 776 q 599 769 574 776 q 714 656 686 747 q 725 581 725 621 q 614 282 725 447 l 676 282 q 786 424 704 310 q 910 592 868 539 q 924 708 924 682 q 899 757 924 757 q 821 700 869 757 q 789 657 794 669 q 775 650 783 644 q 800 703 767 661 q 925 786 869 786 m 596 281 q 653 378 629 329 q 706 558 706 486 q 679 678 706 631 q 544 758 635 758 q 387 667 453 758 q 321 415 321 575 q 354 261 321 332 q 596 281 481 279 m 26 58 q 65 -8 26 19 q 194 -44 114 -44 q 501 101 340 -44 l 469 114 q 192 -11 326 -11 q 113 0 151 -11 q 108 7 106 1 q 115 11 111 13 q 456 122 278 -32 q 351 229 392 160 q 151 182 218 203 q 26 58 26 139 m 729 289 q 784 288 749 288 q 881 290 819 288 q 907 544 885 399 q 841 441 872 483 q 777 353 810 399 q 729 289 744 308 m 581 260 q 369 232 478 250 q 468 133 411 164 q 581 260 528 188 m 953 956 q 984 958 974 958 q 996 956 994 958 l 1038 836 q 1035 829 1038 831 q 1014 836 1017 829 l 963 917 l 813 836 q 793 831 807 831 q 782 833 782 828 l 783 836 l 953 956 m 660 261 q 632 263 647 263 q 600 261 617 263 q 482 125 546 182 q 514 114 500 118 q 592 192 543 142 q 660 261 640 243 z "},"":{"ha":1068,"x_min":7,"x_max":1140,"o":"m 925 786 q 976 721 976 786 q 959 534 976 686 q 938 294 942 382 q 1024 310 1007 299 q 1041 313 1040 321 q 1017 290 1042 304 q 938 267 993 275 q 938 181 938 242 q 983 1 938 46 q 1012 -15 1000 -15 q 1040 -10 1024 -15 q 1081 22 1056 -6 q 1124 90 1106 49 q 1134 101 1129 103 q 1139 94 1139 99 q 1138 85 1139 90 q 1081 -1 1119 33 q 929 -19 996 -79 q 885 69 894 11 q 876 176 876 128 q 878 260 876 224 q 704 258 857 258 q 546 107 631 178 q 567 106 556 106 q 744 208 667 106 q 753 207 750 215 l 753 201 q 567 92 669 92 q 532 94 549 92 q 163 -79 315 -79 q 36 -33 81 -79 q 8 42 8 -3 q 55 153 8 107 q 166 220 101 199 q 335 258 231 242 q 300 415 300 338 q 419 725 300 626 q 550 776 483 776 q 599 769 574 776 q 714 656 686 747 q 725 581 725 621 q 614 282 725 447 l 676 282 q 786 424 704 310 q 910 592 868 539 q 924 708 924 682 q 899 757 924 757 q 821 700 869 757 q 789 657 794 669 q 775 650 783 644 q 800 703 767 661 q 925 786 869 786 m 596 281 q 653 378 629 329 q 706 558 706 486 q 679 678 706 631 q 544 758 635 758 q 387 667 453 758 q 321 415 321 575 q 354 261 321 332 q 596 281 481 279 m 26 58 q 65 -8 26 19 q 194 -44 114 -44 q 501 101 340 -44 l 469 114 q 192 -11 326 -11 q 113 0 151 -11 q 108 7 106 1 q 115 11 111 13 q 456 122 278 -32 q 351 229 392 160 q 151 182 218 203 q 26 58 26 139 m 729 289 q 784 288 749 288 q 881 290 819 288 q 907 544 885 399 q 841 441 872 483 q 777 353 810 399 q 729 289 744 308 m 581 260 q 369 232 478 250 q 468 133 411 164 q 581 260 528 188 m 993 839 q 940 854 974 839 q 886 869 907 869 q 853 843 865 869 q 842 842 850 840 q 835 844 835 843 q 906 904 867 904 q 960 889 926 904 q 1017 875 997 875 q 1049 903 1038 875 q 1058 905 1050 906 q 1065 903 1065 904 q 993 839 1065 839 m 660 261 q 632 263 647 263 q 600 261 617 263 q 482 125 546 182 q 514 114 500 118 q 592 192 543 142 q 660 261 640 243 z "},"":{"ha":1068,"x_min":7,"x_max":1140,"o":"m 925 786 q 976 721 976 786 q 959 534 976 686 q 938 294 942 382 q 1024 310 1007 299 q 1041 313 1040 321 q 1017 290 1042 304 q 938 267 993 275 q 938 181 938 242 q 983 1 938 46 q 1012 -15 1000 -15 q 1040 -10 1024 -15 q 1081 22 1056 -6 q 1124 90 1106 49 q 1134 101 1129 103 q 1139 94 1139 99 q 1138 85 1139 90 q 1081 -1 1119 33 q 929 -19 996 -79 q 885 69 894 11 q 876 176 876 128 q 878 260 876 224 q 704 258 857 258 q 546 107 631 178 q 567 106 556 106 q 744 208 667 106 q 753 207 750 215 l 753 201 q 567 92 669 92 q 532 94 549 92 q 163 -79 315 -79 q 36 -33 81 -79 q 8 42 8 -3 q 55 153 8 107 q 166 220 101 199 q 335 258 231 242 q 300 415 300 338 q 419 725 300 626 q 550 776 483 776 q 599 769 574 776 q 714 656 686 747 q 725 581 725 621 q 614 282 725 447 l 676 282 q 786 424 704 310 q 910 592 868 539 q 924 708 924 682 q 899 757 924 757 q 821 700 869 757 q 789 657 794 669 q 775 650 783 644 q 800 703 767 661 q 925 786 869 786 m 596 281 q 653 378 629 329 q 706 558 706 486 q 679 678 706 631 q 544 758 635 758 q 387 667 453 758 q 321 415 321 575 q 354 261 321 332 q 596 281 481 279 m 26 58 q 65 -8 26 19 q 194 -44 114 -44 q 501 101 340 -44 l 469 114 q 192 -11 326 -11 q 113 0 151 -11 q 108 7 106 1 q 115 11 111 13 q 456 122 278 -32 q 351 229 392 160 q 151 182 218 203 q 26 58 26 139 m 729 289 q 784 288 749 288 q 881 290 819 288 q 907 544 885 399 q 841 441 872 483 q 777 353 810 399 q 729 289 744 308 m 581 260 q 369 232 478 250 q 468 133 411 164 q 581 260 528 188 m 660 261 q 632 263 647 263 q 600 261 617 263 q 482 125 546 182 q 514 114 500 118 q 592 192 543 142 q 660 261 640 243 m 874 890 q 889 890 874 890 q 904 860 904 890 q 875 829 904 829 q 843 860 843 829 q 874 890 843 890 m 993 890 q 1008 890 993 890 q 1024 860 1024 890 q 994 829 1024 829 q 963 860 963 829 q 993 890 963 890 z "},"":{"ha":1068,"x_min":7,"x_max":1140,"o":"m 725 581 q 614 282 725 447 l 676 282 q 786 424 704 310 q 910 592 868 539 q 924 708 924 682 q 899 757 924 757 q 821 700 869 757 q 789 657 794 669 q 775 650 783 644 q 800 703 767 661 q 913 785 860 775 q 898 798 910 786 q 886 835 886 810 q 905 877 886 860 q 946 894 924 894 q 986 877 968 894 q 1004 835 1004 860 q 989 795 1004 810 q 956 776 974 781 q 976 722 976 758 q 959 534 976 686 q 938 294 942 382 q 1024 310 1007 299 q 1041 313 1040 321 q 1017 290 1042 304 q 938 267 993 275 q 938 181 938 242 q 983 1 938 46 q 1012 -15 1000 -15 q 1040 -10 1024 -15 q 1081 22 1056 -6 q 1124 90 1106 49 q 1134 101 1129 103 q 1139 94 1139 99 q 1138 85 1139 90 q 1081 -1 1119 33 q 929 -19 996 -79 q 885 69 894 11 q 876 176 876 128 q 878 260 876 224 q 704 258 857 258 q 546 107 631 178 q 567 106 556 106 q 744 208 667 106 q 753 207 750 215 l 753 201 q 567 92 669 92 q 532 94 549 92 q 163 -79 315 -79 q 36 -33 81 -79 q 8 42 8 -3 q 55 153 8 107 q 166 220 101 199 q 335 258 231 242 q 300 415 300 338 q 419 725 300 626 q 550 776 483 776 q 599 769 574 776 q 714 656 686 747 q 725 581 725 621 m 653 378 q 706 558 706 486 q 679 678 706 631 q 544 758 635 758 q 387 667 453 758 q 321 415 321 575 q 354 261 321 332 q 596 281 481 279 q 653 378 629 329 m 26 58 q 65 -8 26 19 q 194 -44 114 -44 q 501 101 340 -44 l 469 114 q 192 -11 326 -11 q 113 0 151 -11 q 108 7 106 1 q 115 11 111 13 q 456 122 278 -32 q 351 229 392 160 q 151 182 218 203 q 26 58 26 139 m 729 289 q 784 288 749 288 q 881 290 819 288 q 907 544 885 399 q 841 441 872 483 q 777 353 810 399 q 729 289 744 308 m 581 260 q 369 232 478 250 q 468 133 411 164 q 581 260 528 188 m 660 261 q 632 263 647 263 q 600 261 617 263 q 482 125 546 182 q 514 114 500 118 q 592 192 543 142 q 660 261 640 243 m 975 804 q 981 810 975 804 q 988 835 988 817 q 975 865 988 853 q 944 878 963 878 q 914 865 926 878 q 901 835 901 853 q 914 804 901 817 q 944 792 926 792 q 975 804 963 792 z "},"":{"ha":1346,"x_min":-208,"x_max":1397,"o":"m 1169 369 l 1136 369 q 917 339 1032 369 q 740 250 801 308 q 679 127 679 192 q 742 17 679 63 q 915 -29 804 -29 q 989 -24 954 -29 q 1217 54 1117 -7 q 1322 189 1317 115 q 1329 201 1325 201 q 1333 188 1333 201 q 1222 33 1329 99 q 890 -56 1079 -56 q 713 -17 785 -56 q 619 121 619 33 q 682 253 619 189 l 682 258 q 451 249 578 256 l 326 131 q 454 86 381 86 q 557 115 528 86 q 564 115 560 119 q 564 107 568 111 q 468 75 529 75 q 317 122 376 75 l 267 76 q 83 -68 158 -24 q 163 -93 126 -90 q 199 -100 199 -96 q 182 -106 199 -108 q 68 -76 118 -100 q -161 -160 -74 -160 q -169 -160 -165 -160 q -208 -135 -208 -160 q -200 -110 -208 -125 q -185 -92 -196 -96 q -193 -124 -193 -111 q -162 -144 -193 -144 q -157 -144 -160 -144 q 51 -68 -72 -144 q -22 28 -22 -35 q 14 115 -22 68 q 207 233 82 199 l 239 242 q 221 378 221 296 q 250 540 221 461 q 376 740 300 674 q 514 801 442 801 q 597 769 564 801 q 629 679 629 736 q 600 560 629 622 q 388 276 558 469 l 375 263 q 435 269 392 264 q 647 507 535 367 q 803 771 803 701 q 767 807 803 804 q 758 811 758 807 q 774 819 758 819 q 843 761 843 817 q 813 665 843 726 q 814 646 818 657 q 736 297 783 524 q 896 372 800 340 l 1028 400 q 903 433 957 400 q 854 517 850 469 q 934 631 863 581 q 1092 706 1006 682 q 1246 729 1178 729 q 1356 701 1314 729 q 1397 640 1397 674 q 1374 581 1397 606 q 1310 551 1350 557 q 1293 557 1293 551 q 1310 565 1293 567 q 1340 582 1326 563 q 1354 630 1354 601 q 1327 683 1354 658 q 1240 707 1300 707 q 1101 683 1179 707 q 969 611 1022 658 q 913 511 917 564 q 996 428 906 458 q 1140 406 1061 406 q 1167 406 1154 406 q 1197 388 1197 407 q 1169 369 1197 369 m 272 538 q 242 377 242 456 q 257 244 242 299 q 358 260 307 254 q 581 564 508 410 q 611 679 611 626 q 585 762 611 732 q 515 792 558 792 q 390 732 451 792 q 272 538 319 667 m 22 14 q 67 -60 22 -26 q 238 79 133 -17 l 300 138 q 281 161 289 149 q 136 64 182 64 q 132 68 132 64 q 133 74 131 72 q 269 178 208 126 q 254 206 260 192 q 176 174 213 192 q 22 14 22 97 m 786 618 q 663 455 724 519 q 479 274 603 390 q 581 278 508 276 q 688 282 654 279 q 738 457 706 360 q 786 618 757 524 m 408 243 l 347 231 l 290 171 l 292 171 q 310 147 303 154 l 408 243 m 269 210 l 281 188 l 322 225 q 269 210 274 211 z "},"":{"ha":814,"x_min":32,"x_max":819,"o":"m 774 211 q 779 203 779 211 q 748 142 779 188 q 649 44 717 96 q 499 -33 582 -7 q 386 -118 451 -96 q 432 -203 432 -150 q 368 -306 432 -257 q 288 -331 336 -331 q 181 -314 240 -331 q 121 -265 121 -297 q 128 -256 121 -256 q 147 -271 135 -256 q 258 -306 176 -306 q 369 -256 340 -306 q 386 -192 386 -225 q 356 -136 386 -158 l 346 -129 q 310 -131 332 -131 q 261 -122 288 -131 l 207 -150 q 183 -129 183 -150 q 207 -97 183 -118 q 106 65 126 -44 q 32 283 32 156 q 114 530 32 410 q 347 707 196 650 q 507 740 436 740 q 638 724 578 740 q 745 661 699 707 q 790 550 792 615 q 819 528 819 543 q 804 526 819 518 l 789 533 q 704 369 779 451 q 424 232 576 232 q 293 281 336 232 q 267 342 267 310 q 351 485 267 415 q 489 553 406 531 q 646 576 572 576 q 678 575 661 576 q 603 667 678 644 q 547 674 576 674 q 388 625 474 674 q 190 418 267 557 q 118 181 131 307 q 231 38 153 88 q 404 -12 308 -12 q 501 -1 442 -12 q 526 92 526 44 q 481 190 526 165 q 478 194 478 192 q 486 200 481 203 q 543 90 543 169 q 521 4 543 47 q 732 158 663 47 q 774 211 764 211 m 410 354 q 377 361 378 354 q 390 367 376 368 q 407 367 403 367 q 546 398 479 367 q 640 475 613 429 q 675 553 668 521 q 505 526 592 553 q 375 461 418 499 q 308 346 308 403 q 353 272 308 306 q 428 253 382 253 q 529 269 474 253 q 694 382 621 301 q 765 542 767 463 q 689 553 726 551 q 657 481 682 515 q 547 385 614 417 q 410 354 481 354 m 436 667 q 546 688 496 688 q 636 667 596 688 q 692 574 694 635 q 763 561 729 572 q 632 694 749 651 q 527 713 588 713 q 398 694 467 713 q 260 618 329 675 q 146 472 192 561 q 100 293 100 382 q 107 222 100 258 q 178 433 122 333 q 436 667 275 610 m 474 -40 q 373 -53 419 -53 q 292 -46 326 -53 q 239 -94 239 -90 q 299 -90 264 -90 q 369 -108 333 -90 q 474 -40 429 -90 m 126 42 q 217 -89 149 -46 l 271 -40 q 126 42 182 -17 z "},"":{"ha":789,"x_min":49,"x_max":826,"o":"m 586 17 l 588 -8 q 563 -128 588 -76 q 400 -236 511 -236 q 233 -147 303 -236 q 175 -25 194 -97 q 49 196 49 40 q 83 358 49 271 q 62 353 75 357 q 49 360 49 350 q 69 394 49 381 q 76 397 74 396 l 104 403 l 113 419 q 353 668 193 572 q 590 742 476 742 q 747 700 704 742 q 825 764 814 781 q 825 760 825 763 q 821 753 825 757 q 758 689 789 728 q 781 635 781 660 q 721 544 781 561 q 704 542 711 542 q 676 567 681 542 q 694 630 671 596 q 731 678 717 664 q 594 711 701 711 q 385 644 488 711 q 174 415 257 561 q 235 421 196 418 q 560 676 344 614 q 567 672 565 678 q 564 665 569 667 q 264 422 378 615 q 617 425 313 425 q 633 416 632 425 q 608 407 633 407 q 244 386 415 407 q 178 117 178 253 q 183 31 178 65 q 243 -8 200 14 q 354 -29 286 -29 q 563 33 461 -29 q 490 169 546 104 q 344 46 406 119 q 335 42 335 35 q 340 58 335 53 q 444 160 390 114 q 476 183 474 182 q 306 265 396 264 q 300 268 301 265 q 301 274 299 271 q 306 276 303 276 q 489 192 401 274 q 653 249 581 249 q 726 183 726 249 q 586 17 726 104 m 565 6 q 325 -58 449 -58 q 197 -35 243 -58 q 285 -179 225 -133 q 399 -225 344 -225 q 517 -164 468 -225 q 567 -8 567 -103 q 565 6 567 1 m 581 44 q 672 132 643 89 q 700 194 700 175 q 657 233 700 233 q 504 176 604 233 q 581 44 563 114 m 157 122 q 215 382 157 256 l 151 372 l 147 363 q 110 210 110 286 q 160 56 110 118 q 157 122 157 97 m 557 865 q 549 890 549 874 q 561 907 549 907 q 579 898 568 907 q 613 872 590 889 q 699 807 649 847 q 704 797 704 803 q 693 788 704 788 q 557 865 676 788 m 743 579 q 751 619 751 599 q 740 664 751 640 q 703 569 703 608 q 717 557 703 557 q 743 579 731 557 z "},"":{"ha":789,"x_min":49,"x_max":826,"o":"m 586 17 l 588 -8 q 563 -128 588 -76 q 400 -236 511 -236 q 233 -147 303 -236 q 175 -25 194 -97 q 49 196 49 40 q 83 358 49 271 q 62 353 75 357 q 49 360 49 350 q 69 394 49 381 q 76 397 74 396 l 104 403 l 113 419 q 353 668 193 572 q 590 742 476 742 q 747 700 704 742 q 825 764 814 781 q 825 760 825 763 q 821 753 825 757 q 758 689 789 728 q 781 635 781 660 q 721 544 781 561 q 704 542 711 542 q 676 567 681 542 q 694 630 671 596 q 731 678 717 664 q 594 711 701 711 q 385 644 488 711 q 174 415 257 561 q 235 421 196 418 q 560 676 344 614 q 567 672 565 678 q 564 665 569 667 q 264 422 378 615 q 617 425 313 425 q 633 416 632 425 q 608 407 633 407 q 244 386 415 407 q 178 117 178 253 q 183 31 178 65 q 243 -8 200 14 q 354 -29 286 -29 q 563 33 461 -29 q 490 169 546 104 q 344 46 406 119 q 335 42 335 35 q 340 58 335 53 q 444 160 390 114 q 476 183 474 182 q 306 265 396 264 q 300 268 301 265 q 301 274 299 271 q 306 276 303 276 q 489 192 401 274 q 653 249 581 249 q 726 183 726 249 q 586 17 726 104 m 565 6 q 325 -58 449 -58 q 197 -35 243 -58 q 285 -179 225 -133 q 399 -225 344 -225 q 517 -164 468 -225 q 567 -8 567 -103 q 565 6 567 1 m 581 44 q 672 132 643 89 q 700 194 700 175 q 657 233 700 233 q 504 176 604 233 q 581 44 563 114 m 157 122 q 215 382 157 256 l 151 372 l 147 363 q 110 210 110 286 q 160 56 110 118 q 157 122 157 97 m 572 796 q 634 842 592 810 q 691 884 676 874 q 728 894 706 894 q 751 876 751 894 q 747 864 751 872 q 665 819 742 856 q 579 783 588 783 q 571 788 571 783 q 572 796 571 793 m 743 579 q 751 619 751 599 q 740 664 751 640 q 703 569 703 608 q 717 557 703 557 q 743 579 731 557 z "},"":{"ha":789,"x_min":49,"x_max":826,"o":"m 586 17 l 588 -8 q 563 -128 588 -76 q 400 -236 511 -236 q 233 -147 303 -236 q 175 -25 194 -97 q 49 196 49 40 q 83 358 49 271 q 62 353 75 357 q 49 360 49 350 q 69 394 49 381 q 76 397 74 396 l 104 403 l 113 419 q 353 668 193 572 q 590 742 476 742 q 747 700 704 742 q 825 764 814 781 q 825 760 825 763 q 821 753 825 757 q 758 689 789 728 q 781 635 781 660 q 721 544 781 561 q 704 542 711 542 q 676 567 681 542 q 694 630 671 596 q 731 678 717 664 q 594 711 701 711 q 385 644 488 711 q 174 415 257 561 q 235 421 196 418 q 560 676 344 614 q 567 672 565 678 q 564 665 569 667 q 264 422 378 615 q 617 425 313 425 q 633 416 632 425 q 608 407 633 407 q 244 386 415 407 q 178 117 178 253 q 183 31 178 65 q 243 -8 200 14 q 354 -29 286 -29 q 563 33 461 -29 q 490 169 546 104 q 344 46 406 119 q 335 42 335 35 q 340 58 335 53 q 444 160 390 114 q 476 183 474 182 q 306 265 396 264 q 300 268 301 265 q 301 274 299 271 q 306 276 303 276 q 489 192 401 274 q 653 249 581 249 q 726 183 726 249 q 586 17 726 104 m 565 6 q 325 -58 449 -58 q 197 -35 243 -58 q 285 -179 225 -133 q 399 -225 344 -225 q 517 -164 468 -225 q 567 -8 567 -103 q 565 6 567 1 m 581 44 q 672 132 643 89 q 700 194 700 175 q 657 233 700 233 q 504 176 604 233 q 581 44 563 114 m 157 122 q 215 382 157 256 l 151 372 l 147 363 q 110 210 110 286 q 160 56 110 118 q 157 122 157 97 m 657 933 q 689 936 678 936 q 700 933 700 936 l 742 814 q 739 807 742 808 q 718 814 722 807 l 667 894 l 517 814 q 497 808 511 808 q 486 811 486 806 l 488 814 l 657 933 m 743 579 q 751 619 751 599 q 740 664 751 640 q 703 569 703 608 q 717 557 703 557 q 743 579 731 557 z "},"":{"ha":789,"x_min":49,"x_max":826,"o":"m 586 17 l 588 -8 q 563 -128 588 -76 q 400 -236 511 -236 q 233 -147 303 -236 q 175 -25 194 -97 q 49 196 49 40 q 83 358 49 271 q 62 353 75 357 q 49 360 49 350 q 69 394 49 381 q 76 397 74 396 l 104 403 l 113 419 q 353 668 193 572 q 590 742 476 742 q 747 700 704 742 q 825 764 814 781 q 825 760 825 763 q 821 753 825 757 q 758 689 789 728 q 781 635 781 660 q 721 544 781 561 q 704 542 711 542 q 676 567 681 542 q 694 630 671 596 q 731 678 717 664 q 594 711 701 711 q 385 644 488 711 q 174 415 257 561 q 235 421 196 418 q 560 676 344 614 q 567 672 565 678 q 564 665 569 667 q 264 422 378 615 q 617 425 313 425 q 633 416 632 425 q 608 407 633 407 q 244 386 415 407 q 178 117 178 253 q 183 31 178 65 q 243 -8 200 14 q 354 -29 286 -29 q 563 33 461 -29 q 490 169 546 104 q 344 46 406 119 q 335 42 335 35 q 340 58 335 53 q 444 160 390 114 q 476 183 474 182 q 306 265 396 264 q 300 268 301 265 q 301 274 299 271 q 306 276 303 276 q 489 192 401 274 q 653 249 581 249 q 726 183 726 249 q 586 17 726 104 m 565 6 q 325 -58 449 -58 q 197 -35 243 -58 q 285 -179 225 -133 q 399 -225 344 -225 q 517 -164 468 -225 q 567 -8 567 -103 q 565 6 567 1 m 581 44 q 672 132 643 89 q 700 194 700 175 q 657 233 700 233 q 504 176 604 233 q 581 44 563 114 m 157 122 q 215 382 157 256 l 151 372 l 147 363 q 110 210 110 286 q 160 56 110 118 q 157 122 157 97 m 743 579 q 751 619 751 599 q 740 664 751 640 q 703 575 706 613 q 713 557 700 557 q 743 579 731 557 m 704 863 q 719 863 704 863 q 735 832 735 863 q 706 801 735 801 q 674 832 674 801 q 704 863 674 863 m 585 863 q 600 863 585 863 q 615 832 615 863 q 586 801 615 801 q 554 832 554 801 q 585 863 554 863 z "},"":{"ha":700,"x_min":-42,"x_max":717,"o":"m 368 697 q 219 817 324 817 q 88 742 149 817 q 26 540 26 667 q 32 460 26 503 q 131 254 53 315 q 300 193 210 193 q 326 194 313 193 q 392 536 392 383 q 378 667 392 601 q 146 568 204 649 q 125 511 125 540 q 160 447 125 482 q 282 396 196 411 q 285 387 292 393 q 268 383 278 381 q 127 449 176 411 q 78 526 78 488 q 109 599 78 564 q 209 661 140 635 q 368 697 278 688 m 410 669 q 425 546 425 615 q 353 199 425 394 q 400 213 381 204 q 465 464 439 331 q 492 669 490 597 q 449 671 469 671 q 410 669 428 671 m 274 32 q 318 29 288 32 q 394 194 360 93 q 346 183 376 189 q 274 32 319 110 m 254 0 l 253 0 q 215 -51 238 -25 q 297 -1 254 -51 q 254 0 282 0 m 363 25 q 513 1 457 14 q 585 -12 569 -12 q 601 -6 601 -12 q 561 31 601 6 q 560 37 556 35 q 568 38 564 39 q 615 -4 606 22 q 617 -14 617 -10 q 579 -33 617 -33 q 497 -21 561 -33 q 343 -3 433 -8 q 236 -76 285 -76 q 200 -69 219 -76 q 17 -176 103 -176 q -39 -151 -17 -176 q -40 -146 -40 -149 q -36 -142 -40 -143 q -31 -143 -32 -140 q 19 -167 -12 -167 q 97 -141 50 -167 q 188 -64 144 -115 q 133 -21 143 -44 q 138 -10 131 -10 q 147 -12 144 -10 q 153 -22 149 -15 q 199 -50 167 -43 q 235 0 221 -24 q 39 -65 39 -4 q 53 -97 39 -79 q 79 -122 67 -114 q 79 -131 92 -129 q 58 -126 67 -132 q 1 -56 1 -87 q 240 33 1 33 q 254 32 250 33 q 322 181 292 96 q 300 179 311 179 q 115 249 201 179 q 4 538 4 336 q 85 764 4 681 q 224 828 147 828 q 400 700 347 828 l 453 700 q 508 701 492 700 l 531 722 q 549 731 542 731 q 564 703 563 731 q 581 701 569 703 q 715 672 715 696 q 700 667 715 664 q 672 669 685 669 l 558 671 q 461 244 524 433 q 546 369 532 294 q 552 372 547 376 q 556 364 557 368 q 454 224 533 274 q 363 25 411 100 m 467 856 q 458 881 458 864 q 471 897 458 897 q 492 886 478 897 l 608 797 q 614 788 614 793 q 603 778 614 778 q 467 856 586 778 z "},"":{"ha":700,"x_min":-42,"x_max":717,"o":"m 368 697 q 219 817 324 817 q 88 742 149 817 q 26 540 26 667 q 32 460 26 503 q 131 254 53 315 q 300 193 210 193 q 326 194 313 193 q 392 536 392 383 q 378 667 392 601 q 146 568 204 649 q 125 511 125 540 q 160 447 125 482 q 282 396 196 411 q 285 387 292 393 q 268 383 278 381 q 127 449 176 411 q 78 526 78 488 q 109 599 78 564 q 209 661 140 635 q 368 697 278 688 m 410 669 q 425 546 425 615 q 353 199 425 394 q 400 213 381 204 q 465 464 439 331 q 492 669 490 597 q 449 671 469 671 q 410 669 428 671 m 274 32 q 318 29 288 32 q 394 194 360 93 q 346 183 376 189 q 274 32 319 110 m 254 0 l 253 0 q 215 -51 238 -25 q 297 -1 254 -51 q 254 0 282 0 m 363 25 q 513 1 457 14 q 585 -12 569 -12 q 601 -6 601 -12 q 561 31 601 6 q 560 37 556 35 q 568 38 564 39 q 615 -4 606 22 q 617 -14 617 -10 q 579 -33 617 -33 q 497 -21 561 -33 q 343 -3 433 -8 q 236 -76 285 -76 q 200 -69 219 -76 q 17 -176 103 -176 q -39 -151 -17 -176 q -40 -146 -40 -149 q -36 -142 -40 -143 q -31 -143 -32 -140 q 19 -167 -12 -167 q 97 -141 50 -167 q 188 -64 144 -115 q 133 -21 143 -44 q 138 -10 131 -10 q 147 -12 144 -10 q 153 -22 149 -15 q 199 -50 167 -43 q 235 0 221 -24 q 39 -65 39 -4 q 53 -97 39 -79 q 79 -122 67 -114 q 79 -131 92 -129 q 58 -126 67 -132 q 1 -56 1 -87 q 240 33 1 33 q 254 32 250 33 q 322 181 292 96 q 300 179 311 179 q 115 249 201 179 q 4 538 4 336 q 85 764 4 681 q 224 828 147 828 q 400 700 347 828 l 453 700 q 508 701 492 700 l 531 722 q 549 731 542 731 q 564 703 563 731 q 581 701 569 703 q 715 672 715 696 q 700 667 715 664 q 672 669 685 669 l 558 671 q 461 244 524 433 q 546 369 532 294 q 552 372 547 376 q 556 364 557 368 q 454 224 533 274 q 363 25 411 100 m 535 799 q 597 844 554 813 q 653 887 639 876 q 691 897 668 897 q 714 879 714 897 q 709 867 714 875 q 627 822 704 858 q 542 786 550 786 q 533 791 533 786 q 535 799 533 796 z "},"":{"ha":700,"x_min":-42,"x_max":717,"o":"m 368 697 q 219 817 324 817 q 88 742 149 817 q 26 540 26 667 q 32 460 26 503 q 131 254 53 315 q 300 193 210 193 q 326 194 313 193 q 392 536 392 383 q 378 667 392 601 q 146 568 204 649 q 125 511 125 540 q 160 447 125 482 q 282 396 196 411 q 285 387 292 393 q 268 383 278 381 q 127 449 176 411 q 78 526 78 488 q 109 599 78 564 q 209 661 140 635 q 368 697 278 688 m 410 669 q 425 546 425 615 q 353 199 425 394 q 400 213 381 204 q 465 464 439 331 q 492 669 490 597 q 449 671 469 671 q 410 669 428 671 m 274 32 q 318 29 288 32 q 394 194 360 93 q 346 183 376 189 q 274 32 319 110 m 254 0 l 253 0 q 215 -51 238 -25 q 297 -1 254 -51 q 254 0 282 0 m 363 25 q 513 1 457 14 q 585 -12 569 -12 q 601 -6 601 -12 q 561 31 601 6 q 560 37 556 35 q 568 38 564 39 q 615 -4 606 22 q 617 -14 617 -10 q 579 -33 617 -33 q 497 -21 561 -33 q 343 -3 433 -8 q 236 -76 285 -76 q 200 -69 219 -76 q 17 -176 103 -176 q -39 -151 -17 -176 q -40 -146 -40 -149 q -36 -142 -40 -143 q -31 -143 -32 -140 q 19 -167 -12 -167 q 97 -141 50 -167 q 188 -64 144 -115 q 133 -21 143 -44 q 138 -10 131 -10 q 147 -12 144 -10 q 153 -22 149 -15 q 199 -50 167 -43 q 235 0 221 -24 q 39 -65 39 -4 q 53 -97 39 -79 q 79 -122 67 -114 q 79 -131 92 -129 q 58 -126 67 -132 q 1 -56 1 -87 q 240 33 1 33 q 254 32 250 33 q 322 181 292 96 q 300 179 311 179 q 115 249 201 179 q 4 538 4 336 q 85 764 4 681 q 224 828 147 828 q 400 700 347 828 l 453 700 q 508 701 492 700 l 531 722 q 549 731 542 731 q 564 703 563 731 q 581 701 569 703 q 715 672 715 696 q 700 667 715 664 q 672 669 685 669 l 558 671 q 461 244 524 433 q 546 369 532 294 q 552 372 547 376 q 556 364 557 368 q 454 224 533 274 q 363 25 411 100 m 422 763 q 411 763 411 760 q 412 767 411 767 q 413 768 413 767 l 582 888 q 614 890 603 890 q 625 888 625 890 l 667 768 q 664 761 667 763 q 643 768 647 761 l 592 849 l 442 768 q 422 763 436 763 z "},"":{"ha":700,"x_min":-42,"x_max":717,"o":"m 368 697 q 219 817 324 817 q 88 742 149 817 q 26 540 26 667 q 32 460 26 503 q 131 254 53 315 q 300 193 210 193 q 326 194 313 193 q 392 536 392 383 q 378 667 392 601 q 146 568 204 649 q 125 511 125 540 q 160 447 125 482 q 282 396 196 411 q 285 387 292 393 q 268 383 278 381 q 127 449 176 411 q 78 526 78 488 q 109 599 78 564 q 209 661 140 635 q 368 697 278 688 m 410 669 q 425 546 425 615 q 353 199 425 394 q 400 213 381 204 q 465 464 439 331 q 492 669 490 597 q 449 671 469 671 q 410 669 428 671 m 274 32 q 318 29 288 32 q 394 194 360 93 q 346 183 376 189 q 274 32 319 110 m 254 0 l 253 0 q 215 -51 238 -25 q 297 -1 254 -51 q 254 0 282 0 m 363 25 q 513 1 457 14 q 585 -12 569 -12 q 601 -6 601 -12 q 561 31 601 6 q 560 37 556 35 q 568 38 564 39 q 615 -4 606 22 q 617 -14 617 -10 q 579 -33 617 -33 q 497 -21 561 -33 q 343 -3 433 -8 q 236 -76 285 -76 q 200 -69 219 -76 q 17 -176 103 -176 q -39 -151 -17 -176 q -40 -146 -40 -149 q -36 -142 -40 -143 q -31 -143 -32 -140 q 19 -167 -12 -167 q 97 -141 50 -167 q 188 -64 144 -115 q 133 -21 143 -44 q 138 -10 131 -10 q 147 -12 144 -10 q 153 -22 149 -15 q 199 -50 167 -43 q 235 0 221 -24 q 39 -65 39 -4 q 53 -97 39 -79 q 79 -122 67 -114 q 79 -131 92 -129 q 58 -126 67 -132 q 1 -56 1 -87 q 240 33 1 33 q 254 32 250 33 q 322 181 292 96 q 300 179 311 179 q 115 249 201 179 q 4 538 4 336 q 85 764 4 681 q 224 828 147 828 q 400 700 347 828 l 453 700 q 508 701 492 700 l 531 722 q 549 731 542 731 q 564 703 563 731 q 581 701 569 703 q 715 672 715 696 q 700 667 715 664 q 672 669 685 669 l 558 671 q 461 244 524 433 q 546 369 532 294 q 552 372 547 376 q 556 364 557 368 q 454 224 533 274 q 363 25 411 100 m 615 840 q 631 840 615 840 q 646 810 646 840 q 617 779 646 779 q 585 810 585 779 q 615 840 585 840 m 496 840 q 511 840 496 840 q 526 810 526 840 q 497 779 526 779 q 465 810 465 779 q 496 840 465 840 z "},"":{"ha":1006,"x_min":26,"x_max":1039,"o":"m 632 789 q 701 765 668 789 q 735 731 735 740 q 728 722 735 722 q 720 725 722 722 q 714 734 718 728 q 703 744 710 740 q 660 764 678 764 q 635 761 643 764 q 583 718 611 757 q 818 663 717 707 q 1036 403 1010 579 q 1038 367 1038 385 q 1000 224 1038 303 q 871 67 963 146 q 636 -39 779 -12 q 544 -162 599 -112 q 449 -223 490 -211 q 382 -235 408 -235 q 253 -172 296 -235 q 206 8 206 -100 q 294 378 206 150 q 179 363 232 363 q 81 389 126 363 q 26 479 26 419 q 58 572 26 521 q 164 658 90 622 q 443 721 267 710 q 470 797 467 772 q 476 821 474 821 q 481 817 478 821 q 483 797 483 813 q 460 721 483 782 q 496 722 478 722 q 532 721 514 722 q 632 789 579 789 m 611 524 q 703 226 703 411 q 675 56 703 138 l 660 13 q 844 117 767 46 q 951 256 922 188 q 979 363 979 325 q 911 556 979 469 q 773 655 861 615 q 574 703 685 694 q 518 601 544 660 q 600 538 561 579 q 688 603 661 575 q 715 623 715 632 q 710 608 715 614 q 611 524 669 567 m 371 190 q 463 214 411 214 q 586 206 515 214 q 657 186 657 197 q 600 174 657 175 q 491 165 543 172 q 405 155 439 157 q 363 156 371 153 q 329 1 333 44 q 357 44 336 8 q 383 90 378 81 q 406 119 389 99 q 432 146 422 139 q 468 158 458 167 q 467 151 472 156 q 403 57 403 96 q 422 19 403 36 q 522 -10 456 -10 q 635 6 576 -10 q 679 225 679 103 q 594 513 679 401 q 449 432 524 465 q 371 190 400 296 m 314 382 q 245 151 261 238 q 229 15 229 65 q 294 -183 229 -135 q 388 -214 338 -214 q 509 -167 447 -214 q 613 -43 571 -119 q 531 -47 578 -47 q 436 -26 483 -47 q 389 39 389 -6 q 394 74 389 56 q 321 -40 365 46 q 306 -41 317 -44 q 284 -24 294 -37 q 275 0 274 -11 q 379 404 288 146 q 314 382 335 388 m 367 624 q 244 574 292 624 q 197 488 197 525 q 199 470 197 478 q 196 461 201 463 q 186 494 186 458 q 234 583 186 531 q 374 635 282 635 q 404 633 397 635 l 436 703 q 192 636 279 688 q 69 524 104 585 q 51 467 51 493 q 68 422 51 442 q 163 390 94 390 q 308 414 229 390 q 399 622 347 513 q 367 624 392 624 m 413 621 q 326 419 365 525 q 393 440 360 428 q 465 607 425 528 q 413 621 443 617 m 583 526 q 511 586 549 565 q 463 467 488 535 q 583 526 531 496 m 451 704 q 418 632 449 696 q 471 621 443 631 q 521 706 499 674 q 451 704 475 706 z "},"":{"ha":953,"x_min":-4,"x_max":1232,"o":"m 393 54 q 331 148 331 88 q 383 264 331 208 q 578 368 465 344 q 624 549 615 463 q 443 736 571 713 q 417 642 417 701 q 454 532 417 583 q 454 526 456 529 q 450 524 453 524 q 444 526 447 524 q 406 640 406 579 q 431 738 406 701 q 407 739 419 739 q 254 681 333 739 q 133 517 175 622 q 107 383 107 450 q 185 278 107 278 q 269 319 229 278 q 326 389 310 360 q 336 393 333 399 l 336 382 q 269 300 322 349 q 164 250 215 250 q 90 293 113 250 q 68 386 68 336 q 104 536 68 465 q 253 701 157 639 q 442 763 349 763 q 450 763 446 763 q 533 797 481 797 q 649 736 603 797 q 725 582 703 663 q 776 351 758 463 q 838 317 804 340 q 922 621 888 549 q 1029 751 974 722 q 1111 769 1064 769 q 1190 733 1158 769 q 1231 660 1222 697 q 1232 651 1232 656 q 1225 647 1232 647 q 1217 663 1222 647 q 1185 701 1213 678 q 1120 725 1158 725 q 1049 708 1082 725 q 992 658 1017 692 q 947 588 967 624 q 908 497 926 551 q 856 303 883 417 q 908 247 883 281 q 954 119 954 185 q 918 38 954 54 q 903 33 910 33 q 814 138 853 33 q 792 78 803 100 q 892 -14 838 -14 q 975 28 931 -14 q 991 42 989 42 q 993 39 993 42 l 996 32 q 874 -32 935 -32 q 764 36 814 -32 q 737 29 756 29 q 718 42 718 29 q 732 48 718 44 q 751 54 746 51 q 665 361 694 174 q 650 361 658 361 l 607 357 q 422 54 543 188 q 456 49 439 49 q 547 90 501 49 q 556 91 554 97 q 554 82 557 85 q 454 39 507 39 q 414 44 435 39 q 86 -132 254 -132 q 21 -108 46 -132 q -4 -41 -4 -85 q 31 47 -4 3 q 36 51 31 51 q 39 47 39 51 l 28 19 q 17 -36 17 -8 q 38 -90 17 -64 q 92 -115 58 -115 q 393 54 244 -115 m 400 63 q 571 350 504 185 q 400 251 478 325 q 350 144 350 197 q 400 63 350 92 m 464 761 q 668 565 619 744 q 711 369 690 486 q 763 357 738 365 q 681 632 733 503 q 608 747 649 708 q 531 785 567 785 q 464 761 494 785 m 819 156 q 853 83 835 110 q 883 51 872 56 q 901 46 894 46 q 914 49 908 46 q 943 119 943 63 q 900 240 943 175 q 853 290 876 271 q 819 156 832 200 m 765 343 q 714 357 743 353 q 782 99 751 168 q 804 165 793 122 q 772 304 788 214 l 765 343 m 889 763 q 836 778 869 763 q 782 793 803 793 q 749 767 761 793 q 738 765 746 764 q 731 768 731 767 q 801 828 763 828 q 856 813 822 828 q 913 799 893 799 q 944 826 933 799 q 953 828 946 829 q 961 826 961 828 q 889 763 961 763 m 778 338 l 783 306 q 810 186 797 228 q 835 306 819 226 q 778 338 806 325 m 613 374 q 664 375 629 375 q 646 492 656 417 q 613 374 632 431 z "},"":{"ha":801,"x_min":54,"x_max":775,"o":"m 54 372 q 174 583 53 482 q 174 597 174 590 q 276 778 174 729 q 349 794 313 794 q 560 676 460 794 q 714 590 653 657 q 775 414 775 522 q 704 197 775 306 q 610 -6 685 72 q 442 -83 535 -83 q 274 -44 349 -83 q 86 38 136 -43 q 57 139 57 86 q 69 239 57 192 q 54 371 54 296 l 54 372 m 493 443 q 442 375 474 393 q 390 357 410 357 q 346 361 371 357 q 283 388 321 365 q 219 444 246 411 q 99 244 132 347 q 228 4 124 92 q 251 1 239 1 q 274 3 263 1 q 508 85 388 8 q 689 278 629 163 q 546 661 678 506 q 490 667 522 667 q 192 553 307 667 q 214 483 201 506 q 465 603 339 603 q 482 594 482 603 q 464 585 482 585 q 229 456 356 585 q 301 390 261 410 q 374 369 342 369 l 408 375 q 482 447 458 389 q 489 451 483 453 q 493 443 494 449 m 528 682 q 344 782 436 782 q 282 768 313 782 q 189 607 189 722 q 189 593 189 600 q 490 685 315 685 q 528 682 503 685 m 301 -43 q 443 -72 364 -72 q 589 -8 522 -72 q 678 161 656 56 q 508 17 608 72 q 301 -43 407 -37 m 707 321 q 728 449 728 378 q 688 574 728 519 q 581 651 647 629 q 707 321 681 517 m 179 540 q 92 358 103 456 l 92 308 q 201 472 126 394 l 194 486 q 179 540 185 517 m 474 842 q 465 867 465 850 q 478 883 465 883 q 499 872 485 883 l 615 783 q 621 774 621 779 q 610 764 621 764 q 474 842 593 764 m 83 160 q 110 67 83 110 q 199 8 138 25 q 85 183 122 81 q 83 160 83 171 z "},"":{"ha":801,"x_min":54,"x_max":775,"o":"m 54 372 q 174 583 53 482 q 174 597 174 590 q 276 778 174 729 q 349 794 313 794 q 560 676 460 794 q 714 590 653 657 q 775 414 775 522 q 704 197 775 306 q 610 -6 685 72 q 442 -83 535 -83 q 274 -44 349 -83 q 86 38 136 -43 q 57 139 57 86 q 69 239 57 192 q 54 371 54 296 l 54 372 m 493 443 q 442 375 474 393 q 390 357 410 357 q 346 361 371 357 q 283 388 321 365 q 219 444 246 411 q 99 244 132 347 q 228 4 124 92 q 251 1 239 1 q 274 3 263 1 q 508 85 388 8 q 689 278 629 163 q 546 661 678 506 q 490 667 522 667 q 192 553 307 667 q 214 483 201 506 q 465 603 339 603 q 482 594 482 603 q 464 585 482 585 q 229 456 356 585 q 301 390 261 410 q 374 369 342 369 l 408 375 q 482 447 458 389 q 489 451 483 453 q 493 443 494 449 m 528 682 q 344 782 436 782 q 282 768 313 782 q 189 607 189 722 q 189 593 189 600 q 490 685 315 685 q 528 682 503 685 m 301 -43 q 443 -72 364 -72 q 589 -8 522 -72 q 678 161 656 56 q 508 17 608 72 q 301 -43 407 -37 m 707 321 q 728 449 728 378 q 688 574 728 519 q 581 651 647 629 q 707 321 681 517 m 179 540 q 92 358 103 456 l 92 308 q 201 472 126 394 l 194 486 q 179 540 185 517 m 542 767 q 603 813 561 781 q 660 855 646 844 q 698 865 675 865 q 721 847 721 865 q 716 835 721 843 q 634 790 711 826 q 551 754 557 754 q 542 767 535 754 m 83 160 q 110 67 83 110 q 199 8 138 25 q 85 183 122 81 q 83 160 83 171 z "},"":{"ha":801,"x_min":54,"x_max":775,"o":"m 54 372 q 174 583 53 482 q 174 597 174 590 q 276 778 174 729 q 349 796 311 796 q 431 776 388 796 l 553 863 q 584 865 574 865 q 596 863 594 865 l 638 743 q 635 736 638 738 q 614 743 617 736 l 563 824 l 454 765 q 560 676 513 732 q 714 590 653 657 q 775 414 775 522 q 704 197 775 306 q 610 -6 685 72 q 442 -83 535 -83 q 274 -44 349 -83 q 86 38 136 -43 q 57 139 57 86 q 69 239 57 192 q 54 371 54 296 l 54 372 m 493 443 q 442 375 474 393 q 390 357 410 357 q 346 361 371 357 q 283 388 321 365 q 219 444 246 411 q 99 244 132 347 q 228 4 124 92 q 251 1 239 1 q 274 3 263 1 q 508 85 388 8 q 689 278 629 163 q 546 661 678 506 q 490 667 522 667 q 192 553 307 667 q 214 483 201 506 q 465 603 339 603 q 482 594 482 603 q 464 585 482 585 q 229 456 356 585 q 301 390 261 410 q 374 369 342 369 l 408 375 q 482 447 458 389 q 489 451 483 453 q 493 443 494 449 m 393 738 q 382 738 382 735 q 383 742 382 742 q 383 743 383 742 l 415 765 q 344 783 376 783 q 282 768 311 783 q 189 607 189 722 q 189 593 189 600 q 490 685 315 685 q 528 682 503 685 q 436 756 485 726 l 413 743 q 393 738 407 738 m 301 -43 q 443 -72 364 -72 q 589 -8 522 -72 q 678 161 656 56 q 508 17 608 72 q 301 -43 407 -37 m 707 321 q 728 449 728 378 q 688 574 728 519 q 581 651 647 629 q 707 321 681 517 m 179 540 q 92 358 103 456 l 92 308 q 201 472 126 394 l 194 486 q 179 540 185 517 m 83 160 q 110 67 83 110 q 199 8 138 25 q 85 183 122 81 q 83 160 83 171 z "},"":{"ha":801,"x_min":54,"x_max":775,"o":"m 54 372 q 174 583 53 482 q 174 597 174 590 q 276 778 174 729 q 349 794 313 794 q 560 676 460 794 q 714 590 653 657 q 775 414 775 522 q 704 197 775 306 q 610 -6 685 72 q 442 -83 535 -83 q 274 -44 349 -83 q 86 38 136 -43 q 57 139 57 86 q 69 239 57 192 q 54 371 54 296 l 54 372 m 493 443 q 442 375 474 393 q 390 357 410 357 q 346 361 371 357 q 283 388 321 365 q 219 444 246 411 q 99 244 132 347 q 228 4 124 92 q 251 1 239 1 q 274 3 263 1 q 508 85 388 8 q 689 278 629 163 q 546 661 678 506 q 490 667 522 667 q 192 553 307 667 q 214 483 201 506 q 465 603 339 603 q 482 594 482 603 q 464 585 482 585 q 229 456 356 585 q 301 390 261 410 q 374 369 342 369 l 408 375 q 482 447 458 389 q 489 451 483 453 q 493 443 494 449 m 528 682 q 344 782 436 782 q 282 768 313 782 q 189 607 189 722 q 189 593 189 600 q 490 685 315 685 q 528 682 503 685 m 301 -43 q 443 -72 364 -72 q 589 -8 522 -72 q 678 161 656 56 q 508 17 608 72 q 301 -43 407 -37 m 707 321 q 728 449 728 378 q 688 574 728 519 q 581 651 647 629 q 707 321 681 517 m 179 540 q 92 358 103 456 l 92 308 q 201 472 126 394 l 194 486 q 179 540 185 517 m 538 822 q 485 838 518 822 q 431 853 451 853 q 397 826 410 853 q 387 825 394 824 q 379 828 379 826 q 450 888 411 888 q 504 872 471 888 q 562 858 542 858 q 593 886 582 858 q 602 888 594 889 q 610 886 610 888 q 538 822 610 822 m 83 160 q 110 67 83 110 q 199 8 138 25 q 85 183 122 81 q 83 160 83 171 z "},"":{"ha":801,"x_min":54,"x_max":775,"o":"m 54 372 q 174 583 53 482 q 174 597 174 590 q 276 778 174 729 q 349 794 313 794 q 560 676 460 794 q 714 590 653 657 q 775 414 775 522 q 704 197 775 306 q 610 -6 685 72 q 442 -83 535 -83 q 274 -44 349 -83 q 86 38 136 -43 q 57 139 57 86 q 69 239 57 192 q 54 371 54 296 l 54 372 m 493 443 q 442 375 474 393 q 390 357 410 357 q 346 361 371 357 q 283 388 321 365 q 219 444 246 411 q 99 244 132 347 q 228 4 124 92 q 251 1 239 1 q 274 3 263 1 q 508 85 388 8 q 689 278 629 163 q 546 661 678 506 q 490 667 522 667 q 192 553 307 667 q 214 483 201 506 q 465 603 339 603 q 482 594 482 603 q 464 585 482 585 q 229 456 356 585 q 301 390 261 410 q 374 369 342 369 l 408 375 q 482 447 458 389 q 489 451 483 453 q 493 443 494 449 m 528 682 q 344 782 436 782 q 282 768 313 782 q 189 607 189 722 q 189 593 189 600 q 490 685 315 685 q 528 682 503 685 m 301 -43 q 443 -72 364 -72 q 589 -8 522 -72 q 678 161 656 56 q 508 17 608 72 q 301 -43 407 -37 m 707 321 q 728 449 728 378 q 688 574 728 519 q 581 651 647 629 q 707 321 681 517 m 179 540 q 92 358 103 456 l 92 308 q 201 472 126 394 l 194 486 q 179 540 185 517 m 83 160 q 110 67 83 110 q 199 8 138 25 q 85 183 122 81 q 83 160 83 171 m 651 865 q 667 865 651 865 q 682 835 682 865 q 653 804 682 804 q 621 835 621 804 q 651 865 621 865 m 532 865 q 547 865 532 865 q 563 835 563 865 q 533 804 563 804 q 501 835 501 804 q 532 865 501 865 z "},"":{"ha":221,"x_min":35,"x_max":199,"o":"m 199 182 l 129 108 l 169 31 q 161 21 169 28 q 151 13 156 13 l 113 90 l 44 17 q 38 25 43 17 l 35 36 l 103 110 l 63 188 l 71 199 l 81 207 l 119 128 l 188 201 q 194 193 190 201 q 199 182 199 185 z "},"":{"ha":1129,"x_min":39,"x_max":1125,"o":"m 1022 711 q 1125 519 1125 636 q 1028 278 1125 401 q 714 44 917 133 q 450 -31 583 -14 l 358 -150 l 319 -150 l 407 -35 q 333 -39 369 -39 q 162 7 217 -39 q 107 126 107 53 q 135 244 107 178 q 65 303 92 264 q 39 389 39 342 q 163 621 39 521 q 360 731 240 686 q 396 778 388 768 q 676 918 517 918 q 790 881 750 918 q 838 785 829 843 q 994 729 929 768 l 1029 774 l 1069 774 l 1022 711 m 815 749 l 815 757 q 728 763 760 763 q 503 728 617 763 q 347 675 390 694 q 301 476 301 586 l 301 454 q 374 510 333 482 q 624 624 510 604 q 638 618 638 625 q 626 608 638 611 q 399 492 518 588 q 308 406 342 444 q 392 251 325 314 l 403 240 q 574 314 489 254 q 749 508 682 389 q 815 749 815 628 m 801 214 l 806 215 q 811 211 808 215 q 810 204 811 207 q 621 146 728 146 q 588 147 599 146 l 475 1 q 983 321 776 51 q 1074 531 1074 436 q 1001 685 1074 625 l 596 158 q 629 157 613 157 q 801 214 725 157 m 332 -10 q 431 -4 367 -10 l 551 151 q 410 215 475 165 q 317 208 368 208 q 196 228 267 208 q 176 132 176 174 q 217 28 176 65 q 332 -10 258 -10 m 282 476 q 322 664 282 575 q 200 593 264 638 q 72 393 72 501 q 94 322 72 353 q 150 274 115 289 q 283 438 200 364 q 282 476 282 450 m 840 749 q 833 683 840 722 q 667 357 796 493 q 429 218 561 247 q 560 163 488 175 l 975 703 q 840 753 917 739 l 840 749 m 813 789 q 678 908 790 908 q 588 892 638 908 q 393 749 476 856 l 386 740 l 432 754 q 703 796 575 796 q 813 789 754 796 m 210 254 q 322 235 276 235 q 382 238 368 235 q 292 388 315 299 q 210 254 238 321 z "},"":{"ha":982,"x_min":-64,"x_max":992,"o":"m -37 553 q -64 632 -64 590 q -33 719 -64 674 q 61 786 -1 764 q 121 797 92 797 q 179 786 150 797 q 183 778 186 783 q 176 776 181 776 q 119 788 147 788 q 7 742 67 788 q -53 632 -53 697 q -47 598 -53 617 q -32 563 -42 579 q 69 669 1 622 q 336 758 197 758 q 481 714 429 758 q 571 726 536 726 q 644 708 606 726 q 692 654 682 690 q 694 643 694 649 q 649 571 694 610 q 522 503 604 532 q 458 349 507 443 q 381 183 410 256 q 353 57 353 111 q 354 29 353 43 q 508 108 447 47 q 575 228 561 158 q 579 254 579 242 q 557 307 579 293 q 553 315 549 313 q 561 315 558 317 q 593 240 593 296 q 539 108 593 174 q 358 10 474 29 q 425 -42 371 -42 q 665 182 532 -42 q 775 411 710 256 q 896 735 840 567 q 919 754 899 750 q 959 749 940 758 q 975 721 978 739 q 821 122 821 357 q 875 -14 821 -15 q 928 17 899 -12 q 976 97 957 46 q 982 100 978 100 q 990 94 990 103 q 932 -7 990 54 q 858 -47 896 -47 q 822 -37 840 -47 q 763 94 765 -8 q 763 154 763 107 q 781 335 763 201 q 690 176 715 217 q 421 -69 539 -69 q 311 6 338 -69 q 304 6 308 6 q 193 29 246 6 q 56 200 88 76 q 49 260 49 228 q 115 464 49 363 q -7 521 39 481 q -26 458 -26 483 q -24 414 -26 432 q -2 374 -21 396 q 50 339 17 351 q 52 331 57 336 q 39 329 47 325 q -56 432 -44 372 q -58 478 -58 449 q -37 553 -58 507 m 307 22 q 301 83 301 44 q 322 185 301 121 q 394 343 343 249 q 461 485 444 438 q 232 450 332 450 q 174 453 193 450 q 146 457 154 457 q 69 240 69 339 q 136 82 69 142 q 294 22 203 22 q 307 22 300 22 m 349 736 q 86 633 213 736 q -3 531 26 585 q 122 474 44 492 q 158 521 150 511 q 442 703 269 649 q 349 736 407 736 m 153 468 q 229 461 182 461 q 465 499 339 461 q 482 579 482 547 q 478 638 482 611 q 453 692 474 664 q 181 503 293 638 l 153 468 m 492 703 q 533 582 533 653 q 525 517 533 551 q 638 576 604 547 q 681 649 681 617 q 668 679 681 665 q 575 715 636 715 q 542 713 568 715 q 492 703 517 710 m 632 833 q 624 858 624 842 q 636 875 624 875 q 654 866 643 875 q 688 842 665 857 q 774 775 724 815 q 779 765 779 771 q 768 756 779 756 q 632 833 751 756 z "},"":{"ha":982,"x_min":-64,"x_max":992,"o":"m -37 553 q -64 632 -64 590 q -33 719 -64 674 q 61 786 -1 764 q 121 797 92 797 q 179 786 150 797 q 183 778 186 783 q 176 776 181 776 q 119 788 147 788 q 7 742 67 788 q -53 632 -53 697 q -47 598 -53 617 q -32 563 -42 579 q 69 669 1 622 q 336 758 197 758 q 481 714 429 758 q 571 726 536 726 q 644 708 606 726 q 692 654 682 690 q 694 643 694 649 q 649 571 694 610 q 522 503 604 532 q 458 349 507 443 q 381 183 410 256 q 353 57 353 111 q 354 29 353 43 q 508 108 447 47 q 575 228 561 158 q 579 254 579 242 q 557 307 579 293 q 553 315 549 313 q 561 315 558 317 q 593 240 593 296 q 539 108 593 174 q 358 10 474 29 q 425 -42 371 -42 q 665 182 532 -42 q 775 411 710 256 q 896 735 840 567 q 919 754 899 750 q 959 749 940 758 q 975 721 978 739 q 821 122 821 357 q 875 -14 821 -15 q 928 17 899 -12 q 976 97 957 46 q 982 100 978 100 q 990 94 990 103 q 932 -7 990 54 q 858 -47 896 -47 q 822 -37 840 -47 q 763 94 765 -8 q 763 154 763 107 q 781 335 763 201 q 690 176 715 217 q 421 -69 539 -69 q 311 6 338 -69 q 304 6 308 6 q 193 29 246 6 q 56 200 88 76 q 49 260 49 228 q 115 464 49 363 q -7 521 39 481 q -26 458 -26 483 q -24 414 -26 432 q -2 374 -21 396 q 50 339 17 351 q 52 331 57 336 q 39 329 47 325 q -56 432 -44 372 q -58 478 -58 449 q -37 553 -58 507 m 307 22 q 301 83 301 44 q 322 185 301 121 q 394 343 343 249 q 461 485 444 438 q 232 450 332 450 q 174 453 193 450 q 146 457 154 457 q 69 240 69 339 q 136 82 69 142 q 294 22 203 22 q 307 22 300 22 m 349 736 q 86 633 213 736 q -3 531 26 585 q 122 474 44 492 q 158 521 150 511 q 442 703 269 649 q 349 736 407 736 m 153 468 q 229 461 182 461 q 465 499 339 461 q 482 579 482 547 q 478 638 482 611 q 453 692 474 664 q 181 503 293 638 l 153 468 m 492 703 q 533 582 533 653 q 525 517 533 551 q 638 576 604 547 q 681 649 681 617 q 668 679 681 665 q 575 715 636 715 q 542 713 568 715 q 492 703 517 710 m 703 771 q 765 817 722 785 q 822 859 807 849 q 859 869 836 869 q 882 851 882 869 q 877 839 882 847 q 795 794 872 831 q 710 758 718 758 q 701 763 701 758 q 703 771 701 768 z "},"":{"ha":982,"x_min":-64,"x_max":992,"o":"m -37 553 q -64 632 -64 590 q -33 719 -64 674 q 61 786 -1 764 q 121 797 92 797 q 179 786 150 797 q 183 778 186 783 q 176 776 181 776 q 119 788 147 788 q 7 742 67 788 q -53 632 -53 697 q -47 598 -53 617 q -32 563 -42 579 q 69 669 1 622 q 336 758 197 758 q 481 714 429 758 q 571 726 536 726 q 644 708 606 726 q 692 654 682 690 q 694 643 694 649 q 649 571 694 610 q 522 503 604 532 q 458 349 507 443 q 381 183 410 256 q 353 57 353 111 q 354 29 353 43 q 508 108 447 47 q 575 228 561 158 q 579 254 579 242 q 557 307 579 293 q 553 315 549 313 q 561 315 558 317 q 593 240 593 296 q 539 108 593 174 q 358 10 474 29 q 425 -42 371 -42 q 665 182 532 -42 q 775 411 710 256 q 896 735 840 567 q 919 754 899 750 q 959 749 940 758 q 975 721 978 739 q 821 122 821 357 q 875 -14 821 -15 q 928 17 899 -12 q 976 97 957 46 q 982 100 978 100 q 990 94 990 103 q 932 -7 990 54 q 858 -47 896 -47 q 822 -37 840 -47 q 763 94 765 -8 q 763 154 763 107 q 781 335 763 201 q 690 176 715 217 q 421 -69 539 -69 q 311 6 338 -69 q 304 6 308 6 q 193 29 246 6 q 56 200 88 76 q 49 260 49 228 q 115 464 49 363 q -7 521 39 481 q -26 458 -26 483 q -24 414 -26 432 q -2 374 -21 396 q 50 339 17 351 q 52 331 57 336 q 39 329 47 325 q -56 432 -44 372 q -58 478 -58 449 q -37 553 -58 507 m 307 22 q 301 83 301 44 q 322 185 301 121 q 394 343 343 249 q 461 485 444 438 q 232 450 332 450 q 174 453 193 450 q 146 457 154 457 q 69 240 69 339 q 136 82 69 142 q 294 22 203 22 q 307 22 300 22 m 349 736 q 86 633 213 736 q -3 531 26 585 q 122 474 44 492 q 158 521 150 511 q 442 703 269 649 q 349 736 407 736 m 153 468 q 229 461 182 461 q 465 499 339 461 q 482 579 482 547 q 478 638 482 611 q 453 692 474 664 q 181 503 293 638 l 153 468 m 492 703 q 533 582 533 653 q 525 517 533 551 q 638 576 604 547 q 681 649 681 617 q 668 679 681 665 q 575 715 636 715 q 542 713 568 715 q 492 703 517 710 m 776 903 q 808 906 797 906 q 819 903 819 906 l 861 783 q 858 776 861 778 q 838 783 842 776 l 786 864 l 636 783 q 617 778 631 778 q 606 781 606 775 l 607 783 l 776 903 z "},"":{"ha":982,"x_min":-64,"x_max":992,"o":"m -37 553 q -64 632 -64 590 q -33 719 -64 674 q 61 786 -1 764 q 121 797 92 797 q 179 786 150 797 q 183 778 186 783 q 176 776 181 776 q 119 788 147 788 q 7 742 67 788 q -53 632 -53 697 q -47 598 -53 617 q -32 563 -42 579 q 69 669 1 622 q 336 758 197 758 q 481 714 429 758 q 571 726 536 726 q 644 708 606 726 q 692 654 682 690 q 694 643 694 649 q 649 571 694 610 q 522 503 604 532 q 458 349 507 443 q 381 183 410 256 q 353 57 353 111 q 354 29 353 43 q 508 108 447 47 q 575 228 561 158 q 579 254 579 242 q 557 307 579 293 q 553 315 549 313 q 561 315 558 317 q 593 240 593 296 q 539 108 593 174 q 358 10 474 29 q 425 -42 371 -42 q 665 182 532 -42 q 775 411 710 256 q 896 735 840 567 q 919 754 899 750 q 959 749 940 758 q 975 721 978 739 q 821 122 821 357 q 875 -14 821 -15 q 928 17 899 -12 q 976 97 957 46 q 982 100 978 100 q 990 94 990 103 q 932 -7 990 54 q 858 -47 896 -47 q 822 -37 840 -47 q 763 94 765 -8 q 763 154 763 107 q 781 335 763 201 q 690 176 715 217 q 421 -69 539 -69 q 311 6 338 -69 q 304 6 308 6 q 193 29 246 6 q 56 200 88 76 q 49 260 49 228 q 115 464 49 363 q -7 521 39 481 q -26 458 -26 483 q -24 414 -26 432 q -2 374 -21 396 q 50 339 17 351 q 52 331 57 336 q 39 329 47 325 q -56 432 -44 372 q -58 478 -58 449 q -37 553 -58 507 m 307 22 q 301 83 301 44 q 322 185 301 121 q 394 343 343 249 q 461 485 444 438 q 232 450 332 450 q 174 453 193 450 q 146 457 154 457 q 69 240 69 339 q 136 82 69 142 q 294 22 203 22 q 307 22 300 22 m 349 736 q 86 633 213 736 q -3 531 26 585 q 122 474 44 492 q 158 521 150 511 q 442 703 269 649 q 349 736 407 736 m 153 468 q 229 461 182 461 q 465 499 339 461 q 482 579 482 547 q 478 638 482 611 q 453 692 474 664 q 181 503 293 638 l 153 468 m 492 703 q 533 582 533 653 q 525 517 533 551 q 638 576 604 547 q 681 649 681 617 q 668 679 681 665 q 575 715 636 715 q 542 713 568 715 q 492 703 517 710 m 708 817 q 724 817 708 817 q 739 786 739 817 q 710 756 739 756 q 678 786 678 756 q 708 817 678 817 m 828 817 q 843 817 828 817 q 858 786 858 817 q 829 756 858 756 q 797 786 797 756 q 828 817 797 817 z "},"":{"ha":982,"x_min":18,"x_max":1011,"o":"m 54 -353 q 18 -240 18 -296 q 104 -83 18 -142 q 185 -58 140 -58 q 276 -87 238 -58 q 331 -153 314 -117 q 526 -76 417 -115 q 674 -22 635 -37 q 706 108 688 28 q 783 356 764 374 q 783 342 786 350 q 731 157 756 282 q 696 -12 707 32 q 751 10 740 4 q 763 94 751 18 q 787 235 774 171 q 817 361 800 300 q 917 624 854 510 q 700 300 821 510 q 632 186 646 208 q 492 21 522 21 q 485 24 488 21 q 486 31 483 28 q 535 210 518 107 q 553 367 553 313 q 551 446 553 422 q 514 428 543 440 q 514 385 514 415 q 454 29 514 215 q 448 25 453 22 q 444 32 443 28 q 500 399 500 203 q 500 421 500 410 l 490 417 q 411 382 417 382 q 401 394 394 382 l 486 458 q 443 457 464 457 q 253 503 333 457 q 139 599 172 549 q 117 551 133 590 q 101 474 101 513 q 122 403 101 435 q 195 372 142 372 q 299 440 249 372 q 304 442 304 449 q 253 381 294 411 q 166 350 213 350 q 97 387 119 350 q 74 465 74 424 q 126 617 74 549 q 104 692 104 656 q 117 753 104 728 q 156 796 131 778 q 229 819 189 819 q 367 760 297 819 q 376 760 371 760 q 496 721 442 760 q 597 490 586 657 q 696 545 658 511 q 736 624 733 579 q 739 628 736 626 q 747 622 747 632 q 599 479 739 525 q 600 442 600 461 q 574 237 600 349 q 506 40 549 125 q 576 131 531 51 q 614 195 593 158 q 643 246 635 232 q 696 340 651 260 q 775 479 740 419 q 867 615 810 539 q 979 739 924 690 q 1001 747 992 750 q 1010 736 1010 743 q 1003 718 1010 729 q 895 499 938 622 q 840 285 853 375 q 819 119 826 196 q 811 38 813 42 q 899 82 850 54 q 946 103 947 110 q 892 59 943 93 q 804 8 840 25 q 697 -239 772 -119 q 507 -437 622 -358 q 326 -522 419 -497 q 239 -536 278 -536 q 58 -460 103 -536 q 43 -408 43 -435 q 54 -353 43 -381 m 81 -367 q 257 -444 147 -444 q 434 -384 340 -444 q 592 -222 528 -324 q 667 -49 633 -160 q 342 -189 472 -125 q 346 -242 346 -208 q 319 -324 346 -276 q 314 -326 318 -326 q 310 -318 307 -326 q 331 -251 331 -282 q 325 -197 331 -219 q 161 -287 229 -242 q 81 -367 104 -329 m 447 467 q 497 469 472 467 q 406 690 482 585 q 363 740 382 721 q 343 742 353 742 l 243 711 q 144 610 183 676 q 259 511 181 556 q 447 467 338 467 m 258 -456 q 74 -379 142 -456 q 65 -412 65 -396 q 75 -443 65 -428 q 221 -496 106 -496 q 333 -479 283 -496 q 597 -315 482 -440 q 747 -15 713 -190 l 689 -39 q 613 -228 657 -158 q 444 -394 543 -332 q 258 -456 344 -456 m 61 -339 q 311 -161 115 -249 q 261 -106 294 -131 q 181 -78 225 -78 q 50 -153 97 -78 q 29 -236 29 -186 q 61 -339 29 -286 m 343 757 q 221 808 282 808 q 133 764 171 808 q 113 703 113 740 q 133 626 113 667 q 343 757 218 740 m 393 733 q 511 476 494 618 q 547 493 532 490 q 393 733 521 696 z "},"":{"ha":497,"x_min":11,"x_max":554,"o":"m 28 -154 q 11 -65 11 -117 q 114 307 11 -12 q 97 350 97 325 q 124 408 97 383 q 133 363 126 383 q 171 475 153 422 q 247 685 196 565 q 331 857 299 806 q 393 921 364 908 q 440 922 399 922 q 489 921 481 922 q 547 894 525 917 q 553 885 553 888 q 548 881 553 882 q 525 891 543 881 q 487 901 507 901 q 464 901 467 901 q 239 510 364 900 q 325 621 264 551 q 403 706 386 690 q 435 721 421 721 q 456 721 450 721 q 499 657 499 717 q 483 553 499 622 q 423 415 468 485 q 310 313 378 346 q 193 279 243 279 q 163 282 178 279 l 144 221 q 81 -44 89 31 q 78 -66 81 -49 q 74 -94 75 -83 q 71 -122 72 -104 q 72 -152 69 -140 q 79 -178 75 -164 q 112 -206 86 -200 q 137 -217 138 -211 q 126 -222 136 -222 q 97 -219 115 -222 q 28 -154 51 -214 m 210 296 q 299 344 247 296 q 390 470 351 393 q 428 606 428 547 q 413 665 428 665 q 407 664 410 665 q 300 561 358 639 q 197 393 242 483 q 171 308 190 374 q 210 296 190 296 z "},"":{"ha":706,"x_min":-135,"x_max":708,"o":"m 554 647 q 670 607 632 640 q 708 526 708 574 q 663 431 708 478 q 560 351 624 385 q 540 331 540 343 q 549 317 540 319 q 651 182 651 279 q 575 31 651 101 q 351 -50 488 -50 q 313 -40 313 -50 q 344 -29 313 -31 q 526 42 454 -25 q 597 178 597 108 q 540 281 597 247 q 506 324 506 301 q 549 376 506 347 q 647 522 647 443 q 574 624 647 600 q 563 626 565 626 q 521 601 542 626 q 488 543 500 576 q 185 -158 290 -36 q -49 -301 64 -301 q -133 -233 -133 -301 q -115 -190 -133 -210 q -75 -171 -97 -171 q -40 -183 -53 -171 q -31 -216 -29 -197 q -47 -248 -33 -235 q -79 -261 -61 -261 q -108 -250 -97 -261 q -54 -276 -99 -276 q -35 -274 -46 -276 q 97 -188 46 -253 q 221 42 149 -124 l 444 561 q 544 647 479 647 q 554 647 549 647 z "},"":{"ha":374,"x_min":31,"x_max":450,"o":"m 149 197 q 92 103 108 143 q 75 43 75 63 q 88 24 75 24 q 239 190 125 24 q 283 189 283 247 q 281 128 281 153 q 325 22 281 22 q 440 99 372 22 q 450 93 444 103 q 422 59 446 83 q 361 15 397 35 q 306 -4 325 -4 q 276 0 288 -4 q 225 142 225 18 q 144 31 169 54 q 81 -6 106 -6 q 76 -6 78 -6 q 31 56 31 1 q 66 178 31 111 q 160 300 101 246 q 276 354 218 354 q 331 340 304 354 q 354 297 354 326 q 328 263 354 267 q 338 294 338 279 q 324 315 338 308 q 299 322 310 322 q 149 197 239 322 m 182 488 q 174 513 174 496 q 186 529 174 529 q 204 520 193 529 q 238 494 215 511 q 324 429 274 469 q 329 419 329 425 q 318 410 329 410 q 182 488 301 410 z "},"":{"ha":374,"x_min":31,"x_max":450,"o":"m 149 197 q 92 103 108 143 q 75 43 75 63 q 88 24 75 24 q 239 190 125 24 q 283 189 283 247 q 281 128 281 153 q 325 22 281 22 q 440 99 372 22 q 450 93 444 103 q 422 59 446 83 q 361 15 397 35 q 306 -4 325 -4 q 276 0 288 -4 q 225 142 225 18 q 144 31 169 54 q 81 -6 106 -6 q 76 -6 78 -6 q 31 56 31 1 q 66 178 31 111 q 160 300 101 246 q 276 354 218 354 q 331 340 304 354 q 354 297 354 326 q 328 263 354 267 q 338 294 338 279 q 324 315 338 308 q 299 322 310 322 q 149 197 239 322 m 228 431 q 290 476 247 444 q 347 519 332 508 q 384 529 361 529 q 407 511 407 529 q 402 499 407 507 q 320 454 397 490 q 235 418 243 418 q 226 423 226 418 q 228 431 226 428 z "},"":{"ha":374,"x_min":31,"x_max":450,"o":"m 149 197 q 92 103 108 143 q 75 43 75 63 q 88 24 75 24 q 239 190 125 24 q 283 189 283 247 q 281 128 281 153 q 325 22 281 22 q 440 99 372 22 q 450 93 444 103 q 422 59 446 83 q 361 15 397 35 q 306 -4 325 -4 q 276 0 288 -4 q 225 142 225 18 q 144 31 169 54 q 81 -6 106 -6 q 76 -6 78 -6 q 31 56 31 1 q 66 178 31 111 q 160 300 101 246 q 276 354 218 354 q 331 340 304 354 q 354 297 354 326 q 328 263 354 267 q 338 294 338 279 q 324 315 338 308 q 299 322 310 322 q 149 197 239 322 m 310 506 q 342 508 331 508 q 353 506 353 508 l 394 386 q 392 379 394 381 q 371 386 375 379 l 319 467 l 169 386 q 150 381 164 381 q 139 383 139 378 l 140 386 l 310 506 z "},"":{"ha":374,"x_min":31,"x_max":450,"o":"m 149 197 q 92 103 108 143 q 75 43 75 63 q 88 24 75 24 q 239 190 125 24 q 283 189 283 247 q 281 128 281 153 q 325 22 281 22 q 440 99 372 22 q 450 93 444 103 q 422 59 446 83 q 361 15 397 35 q 306 -4 325 -4 q 276 0 288 -4 q 225 142 225 18 q 144 31 169 54 q 81 -6 106 -6 q 76 -6 78 -6 q 31 56 31 1 q 66 178 31 111 q 160 300 101 246 q 276 354 218 354 q 331 340 304 354 q 354 297 354 326 q 328 263 354 267 q 338 294 338 279 q 324 315 338 308 q 299 322 310 322 q 149 197 239 322 m 329 396 q 276 411 310 396 q 222 426 243 426 q 189 400 201 426 q 178 399 186 397 q 171 401 171 400 q 242 461 203 461 q 296 446 263 461 q 353 432 333 432 q 385 460 374 432 q 394 462 386 463 q 401 460 401 461 q 329 396 401 396 z "},"":{"ha":374,"x_min":31,"x_max":450,"o":"m 149 197 q 92 103 108 143 q 75 43 75 63 q 88 24 75 24 q 239 190 125 24 q 283 189 283 247 q 281 128 281 153 q 325 22 281 22 q 440 99 372 22 q 450 93 444 103 q 422 59 446 83 q 361 15 397 35 q 306 -4 325 -4 q 276 0 288 -4 q 225 142 225 18 q 144 31 169 54 q 81 -6 106 -6 q 76 -6 78 -6 q 31 56 31 1 q 66 178 31 111 q 160 300 101 246 q 276 354 218 354 q 331 340 304 354 q 354 297 354 326 q 328 263 354 267 q 338 294 338 279 q 324 315 338 308 q 299 322 310 322 q 149 197 239 322 m 346 472 q 361 472 346 472 q 376 442 376 472 q 347 411 376 411 q 315 442 315 411 q 346 472 315 472 m 226 472 q 242 472 226 472 q 257 442 257 472 q 228 411 257 411 q 196 442 196 411 q 226 472 196 472 z "},"":{"ha":374,"x_min":31,"x_max":450,"o":"m 149 197 q 92 103 108 143 q 75 43 75 63 q 88 24 75 24 q 239 190 125 24 q 283 189 283 247 q 281 128 281 153 q 325 22 281 22 q 440 99 372 22 q 450 93 444 103 q 422 59 446 83 q 361 15 397 35 q 306 -4 325 -4 q 276 0 288 -4 q 225 142 225 18 q 144 31 169 54 q 81 -6 106 -6 q 76 -6 78 -6 q 31 56 31 1 q 66 178 31 111 q 160 300 101 246 q 276 354 218 354 q 331 340 304 354 q 354 297 354 326 q 328 263 354 267 q 338 294 338 279 q 324 315 338 308 q 299 322 310 322 q 149 197 239 322 m 361 480 q 370 471 361 480 q 379 438 379 463 q 361 395 379 413 q 321 378 343 378 q 280 395 299 378 q 261 438 261 413 q 280 480 261 463 q 321 497 299 497 q 361 480 343 497 m 350 407 q 356 413 350 407 q 363 438 363 419 q 350 468 363 456 q 319 481 338 481 q 289 468 301 481 q 276 438 276 456 q 289 407 276 419 q 319 394 301 394 q 350 407 338 394 z "},"":{"ha":454,"x_min":-10,"x_max":483,"o":"m 235 -12 q 149 82 149 -12 l 149 96 q 85 29 119 57 q 24 -1 50 -1 q -10 39 -10 -1 q 15 119 -10 79 q 151 246 76 213 q 205 261 182 261 q 239 256 228 261 q 304 285 272 285 q 350 239 350 285 q 326 179 350 211 q 203 107 285 128 q 199 74 199 89 q 257 10 199 10 q 368 45 304 10 q 465 118 432 81 q 483 119 483 139 q 478 107 483 113 q 368 26 443 65 q 235 -12 293 -12 m 53 121 q 38 67 38 90 q 53 43 38 43 q 99 65 69 43 q 161 147 144 104 q 185 229 171 200 q 53 121 108 229 m 307 193 q 325 242 325 224 q 314 261 325 261 q 263 217 297 261 q 208 124 228 172 q 307 193 279 146 z "},"":{"ha":276,"x_min":-37,"x_max":290,"o":"m 60 -19 q 17 72 17 -1 q 26 133 17 104 q 128 318 54 239 q 192 354 163 354 q 247 332 222 354 q 260 310 254 326 q 263 285 267 294 q 250 293 258 275 q 219 308 242 308 q 140 244 181 308 q 67 57 67 126 q 77 18 67 35 q 101 1 88 1 q 279 108 186 1 q 289 110 289 118 q 273 82 289 101 q 214 31 257 63 q 86 -25 143 -25 q 74 -24 79 -25 q 51 -43 51 -40 q 101 -40 76 -40 q 158 -56 125 -40 q 197 -113 197 -76 q 150 -181 197 -150 q 91 -197 128 -197 q 8 -186 54 -197 q -37 -154 -37 -175 q -33 -147 -37 -147 q -18 -158 -29 -147 q 67 -181 4 -181 q 150 -147 129 -181 q 164 -108 164 -129 q 143 -72 164 -86 q 99 -57 122 -57 q 51 -68 76 -57 l 28 -79 q 10 -65 10 -79 q 14 -57 10 -61 l 50 -28 q 60 -19 58 -19 z "},"":{"ha":313,"x_min":22,"x_max":346,"o":"m 264 326 q 290 274 290 306 q 260 200 290 242 l 288 200 q 286 192 308 200 q 244 181 264 185 q 213 151 231 164 q 196 149 194 138 l 203 161 l 217 176 q 97 167 104 168 q 82 86 82 129 q 103 26 82 43 q 139 8 124 8 q 333 113 235 8 q 346 111 346 125 q 338 97 346 107 q 260 33 310 64 q 130 -18 179 -18 q 51 9 81 -18 q 22 92 22 36 q 28 143 22 111 q 60 226 35 175 q 123 312 86 276 q 195 347 160 347 q 264 326 231 347 m 231 199 q 254 269 254 247 q 244 301 254 292 q 212 301 233 311 q 161 264 190 292 q 111 196 132 236 q 231 199 214 199 m 121 465 q 113 490 113 474 q 125 507 113 507 q 143 498 132 507 q 176 472 154 489 q 263 407 213 447 q 268 397 268 403 q 257 388 268 388 q 121 465 240 388 z "},"":{"ha":313,"x_min":22,"x_max":371,"o":"m 264 326 q 290 274 290 306 q 260 200 290 242 l 288 200 q 286 192 308 200 q 244 181 264 185 q 213 151 231 164 q 196 149 194 138 l 203 161 l 217 176 q 97 167 104 168 q 82 86 82 129 q 103 26 82 43 q 139 8 124 8 q 333 113 235 8 q 344 115 342 121 q 328 86 347 108 q 260 33 310 64 q 130 -18 179 -18 q 51 9 81 -18 q 22 92 22 36 q 28 143 22 111 q 60 226 35 175 q 123 312 86 276 q 195 347 160 347 q 264 326 231 347 m 231 199 q 254 269 254 247 q 244 301 254 292 q 212 301 233 311 q 161 264 190 292 q 111 196 132 236 q 231 199 214 199 m 192 401 q 253 447 211 415 q 310 490 296 479 q 348 500 325 500 q 371 482 371 500 q 366 469 371 478 q 284 425 361 461 q 199 389 207 389 q 190 394 190 389 q 192 401 190 399 z "},"":{"ha":313,"x_min":22,"x_max":346,"o":"m 264 326 q 290 274 290 306 q 260 200 290 242 l 288 200 q 286 192 308 200 q 244 181 264 185 q 213 151 231 164 q 196 149 194 138 l 203 161 l 217 176 q 97 167 104 168 q 82 86 82 129 q 103 26 82 43 q 139 8 124 8 q 333 113 235 8 q 346 111 346 125 q 338 97 346 107 q 260 33 310 64 q 130 -18 179 -18 q 51 9 81 -18 q 22 92 22 36 q 28 143 22 111 q 60 226 35 175 q 123 312 86 276 q 195 347 160 347 q 264 326 231 347 m 88 374 q 76 374 76 371 q 77 378 76 378 q 78 379 78 378 l 247 499 q 278 501 268 501 q 290 499 289 501 l 332 379 q 329 372 332 374 q 308 379 311 372 l 257 460 l 107 379 q 88 374 101 374 m 231 199 q 254 276 254 247 q 229 306 254 306 q 168 271 204 306 q 111 196 132 236 q 231 199 214 199 z "},"":{"ha":313,"x_min":22,"x_max":346,"o":"m 264 326 q 290 274 290 306 q 260 200 290 242 l 288 200 q 286 192 308 200 q 244 181 264 185 q 213 151 231 164 q 196 149 194 138 l 203 161 l 217 176 q 97 167 104 168 q 82 86 82 129 q 103 26 82 43 q 139 8 124 8 q 333 113 235 8 q 346 111 346 125 q 338 97 346 107 q 260 33 310 64 q 130 -18 179 -18 q 51 9 81 -18 q 22 92 22 36 q 28 143 22 111 q 60 226 35 175 q 123 312 86 276 q 195 347 160 347 q 264 326 231 347 m 231 199 q 254 269 254 247 q 244 301 254 292 q 212 301 233 311 q 161 264 190 292 q 111 196 132 236 q 231 199 214 199 m 306 467 q 321 467 306 467 q 336 436 336 467 q 307 406 336 406 q 275 436 275 406 q 306 467 275 467 m 186 467 q 201 467 186 467 q 217 436 217 467 q 188 406 217 406 q 156 436 156 406 q 186 467 156 467 z "},"":{"ha":189,"x_min":39,"x_max":251,"o":"m 88 0 q 40 81 40 0 q 63 213 40 132 q 88 303 86 294 q 119 310 90 311 q 147 294 149 310 q 137 253 147 279 q 113 225 126 228 q 99 157 110 225 q 89 77 89 89 q 92 51 89 65 q 113 32 96 32 q 183 77 129 32 q 242 126 238 122 q 249 128 246 131 q 251 124 251 126 q 250 119 251 122 q 174 42 229 85 q 88 0 118 0 m 60 457 q 51 482 51 465 q 64 499 51 499 q 82 490 71 499 q 115 464 93 481 q 201 399 151 439 q 207 389 207 394 q 196 379 207 379 q 60 457 179 379 z "},"":{"ha":189,"x_min":39,"x_max":294,"o":"m 88 0 q 40 81 40 0 q 63 213 40 132 q 88 303 86 294 q 119 310 90 311 q 147 294 149 310 q 137 253 147 279 q 113 225 126 228 q 99 157 110 225 q 89 77 89 89 q 92 51 89 65 q 113 32 96 32 q 183 77 129 32 q 242 126 238 122 q 249 128 246 131 q 250 119 253 125 q 174 42 229 85 q 88 0 118 0 m 115 385 q 177 431 135 399 q 234 473 219 463 q 272 483 249 483 q 294 465 294 483 q 290 453 294 461 q 208 408 285 444 q 122 372 131 372 q 114 377 114 372 q 115 385 114 382 z "},"":{"ha":189,"x_min":-17,"x_max":251,"o":"m 88 0 q 40 81 40 0 q 63 213 40 132 q 88 303 86 294 q 119 310 90 311 q 147 294 149 310 q 137 253 147 279 q 113 225 126 228 q 99 157 110 225 q 89 77 89 89 q 92 51 89 65 q 113 32 96 32 q 183 77 129 32 q 242 126 238 122 q 249 128 246 131 q 251 124 251 126 q 250 119 251 122 q 174 42 229 85 q 88 0 118 0 m -6 332 q -17 333 -17 329 q -16 336 -17 336 q -15 338 -15 336 l 154 457 q 186 460 175 460 q 197 457 197 460 l 239 338 q 236 331 239 332 q 215 338 219 331 l 164 418 l 14 338 q -6 332 8 332 z "},"":{"ha":189,"x_min":39,"x_max":251,"o":"m 88 0 q 40 81 40 0 q 63 213 40 132 q 88 303 86 294 q 119 310 90 311 q 147 294 149 310 q 137 253 147 279 q 113 225 126 228 q 99 157 110 225 q 89 77 89 89 q 92 51 89 65 q 113 32 96 32 q 183 77 129 32 q 242 126 238 122 q 249 128 246 131 q 251 124 251 126 q 250 119 251 122 q 174 42 229 85 q 88 0 118 0 m 210 446 q 225 446 210 446 q 240 415 240 446 q 211 385 240 385 q 179 415 179 385 q 210 446 179 446 m 90 446 q 106 446 90 446 q 121 415 121 446 q 92 385 121 385 q 60 415 60 385 q 90 446 60 446 z "},"":{"ha":472,"x_min":28,"x_max":476,"o":"m 432 457 q 446 522 446 499 q 379 574 446 574 q 186 471 296 574 q 78 283 78 367 q 121 235 78 235 q 205 260 153 235 q 283 306 257 286 q 349 369 308 325 q 393 418 389 414 q 403 422 394 422 q 425 409 413 422 q 438 390 438 396 q 363 267 438 383 q 213 -37 232 61 q 206 -65 208 -54 q 191 -76 203 -76 q 179 -60 179 -76 q 310 294 183 49 q 104 204 188 204 q 29 294 29 204 q 161 503 29 399 q 378 600 281 600 q 476 524 476 600 q 465 474 476 499 q 443 444 453 449 l 438 449 l 438 446 l 435 450 q 432 457 432 450 z "},"":{"ha":351,"x_min":22,"x_max":379,"o":"m 378 29 q 324 -28 378 -3 q 285 -36 304 -36 q 227 -5 240 -32 q 214 42 214 22 q 217 87 214 61 q 227 149 219 113 q 247 223 235 186 q 258 261 258 260 q 203 194 246 244 q 81 42 92 71 q 40 3 71 13 q 24 10 24 -3 q 33 50 24 13 q 64 236 64 167 l 63 274 q 94 313 63 297 q 119 319 108 319 q 135 301 139 319 q 121 231 131 282 q 93 99 99 110 q 269 321 175 174 q 302 331 276 333 q 331 318 328 328 q 328 290 333 308 q 310 238 322 272 q 290 169 299 203 q 269 48 269 85 q 275 -4 269 11 q 294 -18 281 -19 q 372 33 335 -12 q 378 29 378 39 m 275 389 q 222 404 256 389 q 168 419 189 419 q 135 393 147 419 q 124 392 132 390 q 117 394 117 393 q 188 454 149 454 q 242 439 208 454 q 299 425 279 425 q 331 453 319 425 q 340 455 332 456 q 347 453 347 454 q 275 389 347 389 z "},"":{"ha":326,"x_min":38,"x_max":413,"o":"m 342 250 l 407 257 q 411 254 411 257 q 407 247 411 251 l 396 238 q 328 222 363 222 q 282 228 293 222 q 282 213 282 225 q 269 158 282 200 q 229 71 256 117 q 172 4 203 25 q 127 -17 142 -17 q 97 -12 113 -17 q 61 17 81 -8 q 39 87 39 42 q 53 179 39 132 q 179 342 104 335 q 203 353 189 353 q 242 339 218 353 q 288 274 283 313 q 342 250 307 250 m 194 294 q 143 240 171 289 q 102 143 115 192 q 89 60 89 94 q 114 14 89 26 q 129 11 121 11 q 204 76 163 11 q 242 160 228 114 q 256 218 256 206 q 254 235 256 231 q 213 254 228 239 q 196 282 197 269 l 194 294 m 132 486 q 124 511 124 494 q 136 528 124 528 q 154 519 143 528 q 188 494 165 510 q 274 428 224 468 q 279 418 279 424 q 268 408 279 408 q 132 486 251 408 z "},"":{"ha":326,"x_min":38,"x_max":413,"o":"m 342 250 l 407 257 q 411 254 411 257 q 407 247 411 251 l 396 238 q 328 222 363 222 q 282 228 293 222 q 282 213 282 225 q 269 158 282 200 q 229 71 256 117 q 172 4 203 25 q 127 -17 142 -17 q 97 -12 113 -17 q 61 17 81 -8 q 39 87 39 42 q 53 179 39 132 q 179 342 104 335 q 203 353 189 353 q 242 339 218 353 q 288 274 283 313 q 342 250 307 250 m 194 294 q 143 240 171 289 q 102 143 115 192 q 89 60 89 94 q 114 14 89 26 q 129 11 121 11 q 204 76 163 11 q 242 160 228 114 q 256 218 256 206 q 254 235 256 231 q 213 254 228 239 q 196 282 197 269 l 194 294 m 179 429 q 241 475 199 443 q 298 517 283 507 q 335 528 313 528 q 358 510 358 528 q 353 497 358 506 q 272 453 349 489 q 186 417 194 417 q 178 422 178 417 q 179 429 178 426 z "},"":{"ha":326,"x_min":38,"x_max":413,"o":"m 342 250 l 407 257 q 411 254 411 257 q 407 247 411 251 l 396 238 q 328 222 363 222 q 282 228 293 222 q 282 213 282 225 q 269 158 282 200 q 229 71 256 117 q 172 4 203 25 q 127 -17 142 -17 q 97 -12 113 -17 q 61 17 81 -8 q 39 87 39 42 q 53 179 39 132 q 179 342 104 335 q 203 353 189 353 q 242 339 218 353 q 288 274 283 313 q 342 250 307 250 m 194 294 q 143 240 171 289 q 102 143 115 192 q 89 60 89 94 q 114 14 89 26 q 129 11 121 11 q 204 76 163 11 q 242 160 228 114 q 256 218 256 206 q 254 235 256 231 q 213 254 228 239 q 196 282 197 269 l 194 294 m 250 489 q 281 492 271 492 q 293 489 292 492 l 335 369 q 332 363 335 364 q 311 369 314 363 l 260 450 l 110 369 q 90 364 104 364 q 79 367 79 361 l 81 369 l 250 489 z "},"":{"ha":326,"x_min":38,"x_max":413,"o":"m 342 250 l 407 257 q 411 254 411 257 q 407 247 411 251 l 396 238 q 328 222 363 222 q 282 228 293 222 q 282 213 282 225 q 269 158 282 200 q 229 71 256 117 q 172 4 203 25 q 127 -17 142 -17 q 97 -12 113 -17 q 61 17 81 -8 q 39 87 39 42 q 53 179 39 132 q 179 342 104 335 q 203 353 189 353 q 242 339 218 353 q 288 274 283 313 q 342 250 307 250 m 194 294 q 143 240 171 289 q 102 143 115 192 q 89 60 89 94 q 114 14 89 26 q 129 11 121 11 q 204 76 163 11 q 242 160 228 114 q 256 218 256 206 q 254 235 256 231 q 213 254 228 239 q 196 282 197 269 l 194 294 m 278 403 q 225 418 258 403 q 171 433 192 433 q 138 407 150 433 q 127 406 135 404 q 119 408 119 407 q 190 468 151 468 q 244 453 211 468 q 302 439 282 439 q 333 467 322 439 q 342 469 335 469 q 350 467 350 468 q 278 403 350 403 z "},"":{"ha":326,"x_min":38,"x_max":413,"o":"m 342 250 l 407 257 q 411 254 411 257 q 407 247 411 251 l 396 238 q 328 222 363 222 q 282 228 293 222 q 282 213 282 225 q 269 158 282 200 q 229 71 256 117 q 172 4 203 25 q 127 -17 142 -17 q 97 -12 113 -17 q 61 17 81 -8 q 39 87 39 42 q 53 179 39 132 q 179 342 104 335 q 203 353 189 353 q 242 339 218 353 q 288 274 283 313 q 342 250 307 250 m 194 294 q 143 240 171 289 q 102 143 115 192 q 89 60 89 94 q 114 14 89 26 q 129 11 121 11 q 204 76 163 11 q 242 160 228 114 q 256 218 256 206 q 254 235 256 231 q 213 254 228 239 q 196 282 197 269 l 194 294 m 293 469 q 308 469 293 469 q 324 439 324 469 q 294 408 324 408 q 263 439 263 408 q 293 469 263 469 m 174 469 q 189 469 174 469 q 204 439 204 469 q 175 408 204 408 q 143 439 143 408 q 174 469 143 469 z "},"":{"ha":222,"x_min":-7,"x_max":311,"o":"m -7 213 l 311 213 l 311 192 l -7 193 l -7 213 m 247 367 q 253 360 247 367 q 260 336 260 354 q 247 306 260 318 q 215 293 233 293 q 183 306 197 293 q 171 336 171 318 q 183 367 171 354 q 215 379 197 379 q 247 367 233 379 m 93 37 q 93 45 93 37 q 106 67 93 54 q 137 79 118 79 q 169 67 156 79 q 182 37 182 54 q 169 7 182 19 q 137 -6 156 -6 q 106 7 118 -6 q 93 37 93 19 z "},"":{"ha":463,"x_min":0,"x_max":0,"o":""},"":{"ha":390,"x_min":32,"x_max":472,"o":"m 356 24 q 464 99 397 24 l 472 93 q 444 59 469 85 q 384 15 419 33 q 330 -4 349 -4 q 300 0 311 -4 q 260 49 275 8 q 243 124 246 89 q 242 161 240 160 q 222 128 231 144 q 200 94 213 113 q 172 58 188 76 q 89 -6 124 -6 q 85 -6 86 -6 q 32 69 32 3 q 133 322 32 171 q 158 335 142 335 q 190 332 175 335 q 210 317 211 324 q 139 217 176 283 q 75 51 75 100 q 92 25 75 25 q 133 45 110 25 q 171 86 156 65 q 199 124 186 107 q 229 170 211 142 q 257 213 247 199 q 277 234 267 226 q 294 235 288 242 q 299 212 300 229 q 299 182 299 194 q 356 24 299 24 m 165 435 q 157 460 157 443 q 169 476 157 476 q 188 467 176 476 q 221 442 199 458 q 307 376 257 417 q 313 367 313 372 q 301 357 313 357 q 165 435 285 357 z "},"":{"ha":390,"x_min":32,"x_max":472,"o":"m 356 24 q 464 99 397 24 l 472 93 q 444 59 469 85 q 384 15 419 33 q 330 -4 349 -4 q 300 0 311 -4 q 260 49 275 8 q 243 124 246 89 q 242 161 240 160 q 222 128 231 144 q 200 94 213 113 q 172 58 188 76 q 89 -6 124 -6 q 85 -6 86 -6 q 32 69 32 3 q 133 322 32 171 q 158 335 142 335 q 190 332 175 335 q 210 317 211 324 q 139 217 176 283 q 75 51 75 100 q 92 25 75 25 q 133 45 110 25 q 171 86 156 65 q 199 124 186 107 q 229 170 211 142 q 257 213 247 199 q 277 234 267 226 q 294 235 288 242 q 299 212 300 229 q 299 182 299 194 q 356 24 299 24 m 228 371 q 290 417 247 385 q 347 459 332 449 q 384 469 361 469 q 407 451 407 469 q 402 439 407 447 q 320 394 397 431 q 235 358 243 358 q 226 363 226 358 q 228 371 226 368 z "},"":{"ha":390,"x_min":32,"x_max":472,"o":"m 356 24 q 464 99 397 24 l 472 93 q 444 59 469 85 q 384 15 419 33 q 330 -4 349 -4 q 300 0 311 -4 q 260 49 275 8 q 243 124 246 89 q 242 161 240 160 q 222 128 231 144 q 200 94 213 113 q 172 58 188 76 q 89 -6 124 -6 q 85 -6 86 -6 q 32 69 32 3 q 133 322 32 171 q 158 335 142 335 q 190 332 175 335 q 210 317 211 324 q 139 217 176 283 q 75 51 75 100 q 92 25 75 25 q 133 45 110 25 q 171 86 156 65 q 199 124 186 107 q 229 170 211 142 q 257 213 247 199 q 277 234 267 226 q 294 235 288 242 q 299 212 300 229 q 299 182 299 194 q 356 24 299 24 m 292 478 q 323 481 313 481 q 335 478 333 481 l 376 358 q 374 351 376 353 q 353 358 356 351 l 301 439 l 151 358 q 132 353 146 353 q 121 356 121 350 l 122 358 l 292 478 z "},"":{"ha":390,"x_min":32,"x_max":472,"o":"m 356 24 q 464 99 397 24 l 472 93 q 444 59 469 85 q 384 15 419 33 q 330 -4 349 -4 q 300 0 311 -4 q 260 49 275 8 q 243 124 246 89 q 242 161 240 160 q 222 128 231 144 q 200 94 213 113 q 172 58 188 76 q 89 -6 124 -6 q 85 -6 86 -6 q 32 69 32 3 q 133 322 32 171 q 158 335 142 335 q 190 332 175 335 q 210 317 211 324 q 139 217 176 283 q 75 51 75 100 q 92 25 75 25 q 133 45 110 25 q 171 86 156 65 q 199 124 186 107 q 229 170 211 142 q 257 213 247 199 q 277 234 267 226 q 294 235 288 242 q 299 212 300 229 q 299 182 299 194 q 356 24 299 24 m 343 415 q 358 415 343 415 q 374 385 374 415 q 344 354 374 354 q 313 385 313 354 q 343 415 313 415 m 224 415 q 239 415 224 415 q 254 385 254 415 q 225 354 254 354 q 193 385 193 354 q 224 415 193 415 z "},"":{"ha":336,"x_min":-375,"x_max":313,"o":"m 313 289 q 288 140 313 250 q 244 -10 263 31 q 292 24 288 0 q 298 36 293 32 q 306 37 303 40 q 308 22 310 33 q 233 -35 303 -18 q 117 -261 192 -150 q -181 -487 -19 -461 q -227 -490 -197 -490 q -294 -472 -257 -490 q -367 -387 -347 -446 q -374 -338 -374 -364 q -361 -283 -374 -312 q -289 -199 -340 -233 q 196 -21 -164 -114 q 251 231 219 35 q 131 53 194 128 q 96 5 122 24 q 71 14 69 -14 q 82 72 71 21 q 93 177 93 122 q 64 232 93 232 q 35 222 50 232 q 17 220 19 213 q 40 247 15 228 q 85 265 65 265 q 119 256 104 265 q 138 215 135 247 q 142 164 142 183 q 138 119 142 144 q 132 90 135 93 q 256 254 132 81 q 294 300 263 300 q 313 289 313 300 m 189 -43 q -57 -127 94 -65 q -264 -226 -208 -189 q -339 -294 -319 -264 q -358 -342 -358 -324 q -283 -437 -358 -414 q -217 -449 -244 -449 q -160 -445 -189 -449 q -94 -426 -131 -442 q -30 -394 -57 -411 q 24 -345 -3 -376 q 68 -292 51 -314 q 106 -228 85 -269 q 136 -167 126 -187 q 164 -102 146 -147 q 189 -43 182 -57 m 78 394 q 140 440 97 408 q 197 483 182 472 q 234 493 211 493 q 257 475 257 493 q 252 463 257 471 q 170 418 247 454 q 85 382 93 382 q 76 387 76 382 q 78 394 76 392 z "},"":{"ha":347,"x_min":-54,"x_max":349,"o":"m 142 -6 q 110 31 110 -6 q 169 125 110 78 q 208 156 190 142 l 225 171 q 200 253 225 200 q 156 306 175 306 q 118 204 154 306 q -1 -207 10 -103 q -3 -224 -1 -211 q -7 -245 -6 -236 q -9 -267 -8 -254 q -8 -289 -10 -279 q -3 -308 -7 -299 q 22 -331 3 -328 q 40 -339 40 -333 q 33 -343 42 -343 q -42 -289 -21 -343 q -54 -237 -54 -261 q -45 -171 -54 -212 q 4 -1 -36 -129 q 78 222 44 126 l 113 317 q 107 319 111 317 q 100 322 103 321 q 96 333 93 324 q 107 350 99 342 q 128 363 128 368 l 161 456 q 261 763 258 743 q 264 787 264 782 q 261 797 264 792 q 257 803 258 801 q 252 807 256 804 q 247 811 249 810 q 249 819 238 815 l 261 819 q 303 797 289 813 q 313 769 317 782 q 242 553 310 757 l 174 349 q 272 196 258 294 q 297 207 272 192 q 349 228 349 238 q 332 207 347 218 q 274 171 274 172 q 240 53 271 96 q 163 -3 210 10 q 142 -6 150 -6 m 225 151 q 139 40 139 78 q 158 24 139 24 q 207 61 186 24 q 226 140 226 100 q 225 151 226 147 z "},"":{"ha":336,"x_min":-375,"x_max":313,"o":"m 313 289 q 288 140 313 250 q 244 -10 263 31 q 292 24 288 0 q 298 36 293 32 q 306 37 303 40 q 308 22 310 33 q 233 -35 303 -18 q 117 -261 192 -150 q -181 -487 -19 -461 q -227 -490 -197 -490 q -294 -472 -257 -490 q -367 -387 -347 -446 q -374 -338 -374 -364 q -361 -283 -374 -312 q -289 -199 -340 -233 q 196 -21 -164 -114 q 251 231 219 35 q 131 53 194 128 q 96 5 122 24 q 71 14 69 -14 q 82 72 71 21 q 93 177 93 122 q 64 232 93 232 q 35 222 50 232 q 17 220 19 213 q 40 247 15 228 q 85 265 65 265 q 119 256 104 265 q 138 215 135 247 q 142 164 142 183 q 138 119 142 144 q 132 90 135 93 q 256 254 132 81 q 294 300 263 300 q 313 289 313 300 m 189 -43 q -57 -127 94 -65 q -264 -226 -208 -189 q -339 -294 -319 -264 q -358 -342 -358 -324 q -283 -437 -358 -414 q -217 -449 -244 -449 q -160 -445 -189 -449 q -94 -426 -131 -442 q -30 -394 -57 -411 q 24 -345 -3 -376 q 68 -292 51 -314 q 106 -228 85 -269 q 136 -167 126 -187 q 164 -102 146 -147 q 189 -43 182 -57 m 228 460 q 243 460 228 460 q 258 429 258 460 q 229 399 258 399 q 197 429 197 399 q 228 460 197 460 m 108 460 q 124 460 108 460 q 139 429 139 460 q 110 399 139 399 q 78 429 78 399 q 108 460 78 460 z "},"":{"ha":336,"x_min":8,"x_max":672,"o":"m 228 122 q 258 35 228 35 q 372 125 300 35 q 388 144 386 142 q 393 138 390 146 l 394 135 q 327 51 383 107 q 232 -4 271 -4 q 206 3 218 -4 q 171 125 171 19 q 174 172 171 142 q 179 204 176 201 q 176 202 179 206 q 165 190 172 199 q 149 171 157 181 q 129 146 140 161 q 108 119 118 131 q 69 69 83 92 q 33 0 65 19 q 23 -4 26 -4 q 19 22 19 -4 q 38 154 19 47 q 71 301 56 261 q 25 267 28 290 q 16 251 22 250 q 10 263 10 251 q 81 326 10 306 q 128 450 97 385 l 50 450 l 69 494 l 149 494 q 340 739 235 661 q 513 806 425 806 q 586 790 550 806 q 663 711 640 767 q 672 660 672 686 q 593 519 672 579 q 444 434 538 476 q 292 372 351 392 q 119 315 233 351 q 72 93 97 256 q 133 176 92 122 q 188 246 175 229 q 220 295 194 276 q 246 288 246 314 q 237 224 246 281 q 228 122 228 167 m 656 665 q 650 696 656 681 q 515 765 624 765 q 465 760 490 765 q 293 669 358 739 q 183 494 228 600 l 285 494 l 265 450 l 165 450 l 125 339 q 366 434 218 365 q 585 558 514 503 q 656 665 656 613 z "},"":{"ha":613,"x_min":-42,"x_max":717,"o":"m 368 697 q 219 817 324 817 q 88 742 149 817 q 26 540 26 667 q 32 460 26 503 q 131 254 53 315 q 300 193 210 193 q 326 194 313 193 q 392 536 392 383 q 378 667 392 601 q 146 568 204 649 q 125 511 125 540 q 160 447 125 482 q 282 396 196 411 q 285 387 292 393 q 268 383 278 381 q 127 449 176 411 q 78 526 78 488 q 109 599 78 564 q 209 661 140 635 q 368 697 278 688 m 410 669 q 425 546 425 615 q 353 199 425 394 q 400 213 381 204 q 465 464 439 331 q 492 669 490 597 q 449 671 469 671 q 410 669 428 671 m 274 32 q 318 29 288 32 q 394 194 360 93 q 346 183 376 189 q 274 32 319 110 m 254 0 l 253 0 q 215 -51 238 -25 q 297 -1 254 -51 q 254 0 282 0 m 363 25 q 513 1 457 14 q 585 -12 569 -12 q 601 -6 601 -12 q 561 31 601 6 q 560 37 556 35 q 568 38 564 39 q 615 -4 606 22 q 617 -14 617 -10 q 579 -33 617 -33 q 497 -21 561 -33 q 343 -3 433 -8 q 236 -76 285 -76 q 200 -69 219 -76 q 17 -176 103 -176 q -39 -151 -17 -176 q -40 -146 -40 -149 q -36 -142 -40 -143 q -31 -143 -32 -140 q 19 -167 -12 -167 q 97 -141 50 -167 q 188 -64 144 -115 q 133 -21 143 -44 q 138 -10 131 -10 q 147 -12 144 -10 q 153 -22 149 -15 q 199 -50 167 -43 q 235 0 221 -24 q 39 -65 39 -4 q 53 -97 39 -79 q 79 -122 67 -114 q 79 -131 92 -129 q 58 -126 67 -132 q 1 -56 1 -87 q 240 33 1 33 q 254 32 250 33 q 322 181 292 96 q 300 179 311 179 q 115 249 201 179 q 4 538 4 336 q 85 764 4 681 q 224 828 147 828 q 400 700 347 828 l 453 700 q 508 701 492 700 l 531 722 q 549 731 542 731 q 564 703 563 731 q 581 701 569 703 q 715 672 715 696 q 700 667 715 664 q 672 669 685 669 l 558 671 q 461 244 524 433 q 546 369 532 294 q 552 372 547 376 q 556 364 557 368 q 454 224 533 274 q 363 25 411 100 m 592 810 q 539 825 572 810 q 485 840 506 840 q 451 814 464 840 q 441 813 449 811 q 433 815 433 814 q 504 875 465 875 q 558 860 525 875 q 616 846 596 846 q 647 874 636 846 q 656 876 649 876 q 664 874 664 875 q 592 810 664 810 z "},"":{"ha":189,"x_min":32,"x_max":264,"o":"m 88 0 q 40 81 40 0 q 63 213 40 132 q 88 303 86 294 q 119 310 90 311 q 147 294 149 310 q 137 253 147 279 q 113 225 126 228 q 99 157 110 225 q 89 77 89 89 q 92 51 89 65 q 113 32 96 32 q 183 77 129 32 q 242 126 238 122 q 249 128 246 131 q 250 119 253 125 q 174 42 229 85 q 88 0 118 0 m 190 400 q 138 415 171 400 q 83 431 104 431 q 50 404 63 431 q 40 403 47 401 q 32 406 32 404 q 103 465 64 465 q 157 450 124 465 q 215 436 194 436 q 246 464 235 436 q 255 466 247 467 q 263 464 263 465 q 190 400 263 400 z "},"":{"ha":189,"x_min":39,"x_max":251,"o":"m 63 213 q 75 254 63 213 q 88 303 86 294 q 119 311 90 311 q 147 294 149 311 q 137 253 147 279 q 113 225 126 228 q 99 157 110 225 q 89 77 89 89 q 92 51 89 65 q 113 32 96 32 q 183 77 129 32 q 242 126 238 122 q 249 128 246 131 q 251 124 251 126 q 250 119 251 122 q 174 42 229 85 q 88 0 118 0 q 40 81 40 0 q 63 213 40 132 z "},"":{"ha":1197,"x_min":-42,"x_max":1404,"o":"m 672 669 l 558 671 q 461 244 524 433 q 546 369 532 294 q 552 372 547 376 q 556 364 557 368 q 454 224 533 274 q 363 25 411 100 q 543 -7 457 14 l 563 -11 l 581 6 l 588 11 q 563 30 571 25 q 560 38 556 35 q 596 19 568 42 q 1003 211 758 157 q 1021 361 1021 292 q 957 576 1021 492 q 919 617 936 601 q 801 474 801 563 q 811 432 801 451 q 881 354 832 388 q 990 317 931 321 q 994 307 1001 315 q 975 300 986 299 q 824 358 881 318 q 754 471 754 408 q 783 553 754 508 q 889 638 813 599 q 812 657 853 657 q 722 624 771 657 q 653 525 674 592 q 642 451 642 483 q 704 281 642 349 q 818 229 750 232 q 838 224 839 228 q 817 221 836 219 q 664 306 718 225 q 622 440 622 367 q 721 636 622 569 q 820 671 774 671 q 908 647 867 671 q 988 675 938 660 q 1169 699 1039 690 l 1197 701 q 1214 715 1207 710 q 1240 729 1229 729 q 1251 715 1251 729 l 1251 706 q 1253 703 1251 703 q 1403 672 1403 696 q 1388 667 1403 664 q 1360 669 1372 669 l 1247 671 q 1138 233 1222 469 l 1199 238 q 1231 235 1228 240 q 1207 222 1236 224 q 1132 214 1169 219 q 793 -325 979 -210 q 561 -407 661 -407 q 447 -353 486 -407 q 422 -268 422 -318 q 453 -154 422 -218 q 544 -29 485 -90 q 487 -18 540 -28 q 343 -3 433 -8 q 236 -76 285 -76 q 200 -69 219 -76 q 17 -176 103 -176 q -39 -151 -17 -176 q -40 -146 -40 -149 q -36 -142 -40 -143 q -31 -143 -32 -140 q 19 -167 -12 -167 q 97 -141 50 -167 q 188 -64 144 -115 q 133 -21 143 -44 q 138 -10 131 -10 q 147 -12 144 -10 q 153 -22 149 -15 q 199 -50 167 -43 q 235 0 221 -24 q 39 -65 39 -4 q 53 -97 39 -79 q 79 -122 67 -114 q 79 -131 92 -129 q 58 -126 67 -132 q 1 -56 1 -87 q 240 33 1 33 q 254 32 250 33 q 322 181 292 96 q 300 179 311 179 q 115 249 201 179 q 4 538 4 336 q 85 764 4 681 q 224 828 147 828 q 400 700 347 828 l 453 700 q 508 701 492 700 l 531 722 q 549 731 542 731 q 564 703 563 731 q 581 701 569 703 q 715 678 710 697 q 714 667 717 668 q 698 667 711 665 q 672 669 685 669 m 538 -337 q 499 -333 501 -337 q 499 -326 497 -329 q 512 -325 501 -324 q 539 -326 522 -326 q 718 -259 624 -326 q 888 -71 813 -192 q 997 188 963 50 q 615 -7 760 125 q 590 -32 619 -28 q 583 -40 585 -37 q 488 -169 521 -107 q 451 -278 451 -235 q 474 -347 451 -321 q 547 -381 501 -381 q 775 -294 650 -381 q 1072 204 936 -182 q 1015 193 1049 201 q 901 -74 979 51 q 724 -268 824 -199 q 538 -337 625 -337 m 368 697 q 219 817 324 817 q 88 742 149 817 q 26 540 26 667 q 32 460 26 503 q 131 254 53 315 q 300 193 210 193 q 326 194 313 193 q 392 536 392 383 q 378 667 392 601 q 146 568 204 649 q 125 511 125 540 q 160 447 125 482 q 282 396 196 411 q 285 387 292 393 q 268 383 278 381 q 127 449 176 411 q 78 526 78 488 q 109 599 78 564 q 209 661 140 635 q 368 697 278 688 m 1040 369 q 1021 215 1040 299 l 1079 225 q 1182 668 1165 488 q 1016 649 1051 658 q 940 625 981 640 q 975 586 964 601 q 1040 369 1040 500 m 410 669 q 425 546 425 615 q 353 199 425 394 q 400 213 381 204 q 465 464 439 331 q 492 669 490 597 q 449 671 469 671 q 410 669 428 671 m 274 32 q 318 29 288 32 q 394 194 360 93 q 346 183 376 189 q 274 32 319 110 m 297 -1 q 254 0 282 0 l 253 0 q 215 -51 238 -25 q 297 -1 254 -51 z "},"":{"ha":378,"x_min":-33,"x_max":386,"o":"m 85 74 q 110 32 85 32 q 176 75 124 32 q 233 124 228 118 q 262 265 254 217 q 271 317 269 313 q 283 322 272 322 q 309 316 293 322 q 325 306 325 310 l 322 292 q 286 214 313 217 q 267 119 281 186 q 244 11 254 53 q 179 -174 221 -104 q 108 -243 150 -221 q 38 -265 67 -265 q -11 -258 10 -265 q -32 -226 -32 -251 q -24 -196 -32 -197 q -19 -208 -18 -194 q -6 -237 -19 -222 q 31 -250 7 -251 q 104 -207 69 -249 q 228 97 175 -124 q 156 33 199 67 q 83 0 114 0 q 36 81 36 0 q 39 124 36 96 q 83 300 42 153 q 115 310 86 311 q 143 294 143 310 q 133 253 143 279 q 108 225 122 228 q 93 156 101 224 q 85 74 85 88 m 376 426 q 386 420 386 426 q 369 394 386 414 q 330 368 347 368 q 302 375 313 368 q 296 386 292 382 q 376 426 346 426 m 192 426 q 201 420 201 426 q 185 394 201 414 q 145 368 164 368 q 119 374 126 368 q 111 383 111 381 q 113 386 111 385 q 192 426 161 426 z "},"":{"ha":585,"x_min":-189,"x_max":792,"o":"m 640 703 q 790 672 790 696 q 775 667 790 664 q 747 669 760 669 l 635 671 q 525 233 610 469 l 586 238 q 618 235 615 240 q 594 222 624 224 q 519 214 557 219 q 181 -325 367 -210 q -51 -406 53 -406 q -169 -343 -135 -406 q -189 -285 -189 -311 q -187 -247 -189 -258 q -142 -125 -182 -193 q -32 6 -103 -57 q 390 211 135 156 q 408 361 408 292 q 344 576 408 492 q 307 617 324 601 q 189 474 189 563 q 199 432 189 451 q 269 354 219 388 q 378 317 318 321 q 381 307 389 315 q 363 300 374 299 q 211 358 268 318 q 142 471 142 408 q 171 553 142 508 q 276 638 200 599 q 199 657 240 657 q 110 624 158 657 q 42 525 61 592 q 29 451 29 483 q 92 281 29 349 q 206 229 138 232 q 225 224 226 228 q 204 221 224 219 q 51 306 106 225 q 10 440 10 367 q 108 636 10 569 q 208 671 161 671 q 296 647 254 671 q 376 675 325 660 q 557 699 426 690 l 585 701 q 600 715 594 710 q 628 729 617 729 q 639 715 639 729 l 639 706 q 640 703 639 703 m -75 -337 q -113 -333 -111 -337 q -113 -326 -115 -329 q -101 -325 -111 -324 q -74 -326 -90 -326 q 106 -259 11 -326 q 275 -71 200 -192 q 385 188 350 50 q -29 -40 115 118 q -125 -169 -92 -107 q -161 -278 -161 -235 q -139 -347 -161 -321 q -65 -381 -111 -381 q 163 -294 38 -381 q 460 204 324 -182 q 403 193 436 201 q 289 -74 367 51 q 112 -268 211 -199 q -75 -337 13 -337 m 428 369 q 408 215 428 299 l 467 225 q 569 668 553 488 q 403 649 439 658 q 328 625 368 640 q 363 586 351 601 q 428 369 428 500 m 660 878 q 692 881 681 881 q 703 878 703 881 l 744 758 q 742 751 744 753 q 721 758 725 751 l 669 839 l 519 758 q 500 753 514 753 q 489 756 489 750 l 490 758 l 660 878 z "},"":{"ha":192,"x_min":-192,"x_max":265,"o":"m 87 10 q 82 -11 87 10 q 60 -85 78 -32 q 17 -180 42 -139 q -50 -243 -8 -221 q -120 -265 -92 -265 q -169 -258 -149 -265 q -190 -226 -190 -251 q -182 -196 -190 -197 q -177 -208 -176 -194 q -165 -237 -178 -222 q -128 -250 -151 -251 q -58 -212 -89 -249 q -3 -124 -28 -176 q 38 -18 21 -72 q 69 97 54 36 q 92 201 85 157 q 106 281 100 244 l 113 315 q 124 322 114 322 q 151 316 135 322 q 167 306 167 310 l 164 292 q 128 214 154 217 q 109 119 122 186 q 87 10 96 53 m 181 497 q 212 500 201 500 q 224 497 222 500 l 265 378 q 263 371 265 372 q 242 378 244 371 l 190 458 l 40 378 q 21 372 35 372 q 10 375 10 369 l 11 378 l 181 497 z "},"":{"ha":288,"x_min":-19,"x_max":403,"o":"m 114 226 q 340 399 217 399 q 388 375 376 399 q 385 366 392 368 q 374 372 379 364 q 346 375 368 379 q 231 303 294 365 q 131 193 168 242 q 226 76 163 135 q 339 7 290 18 q 335 1 347 6 q 292 -6 311 -6 q 265 -2 274 -6 q 249 4 257 1 q 237 8 240 7 q 226 14 233 10 q 214 22 219 18 q 188 51 207 29 q 114 169 144 107 q 51 15 64 94 l 51 8 q 44 -3 51 -3 q 22 13 38 -3 q 4 31 7 29 q 28 201 4 75 q 88 440 53 328 q 263 699 149 640 q 333 717 297 717 q 396 675 368 717 q 403 660 403 665 q 388 661 403 651 q 315 686 360 686 q 311 686 314 686 q 193 579 250 686 q 57 99 92 389 q 100 200 75 157 q 94 217 94 211 q 95 250 88 247 q 107 244 103 253 q 114 228 111 236 l 114 226 m 103 -68 q 138 -106 138 -68 q 81 -208 138 -143 q -15 -283 25 -272 q -18 -285 -17 -285 q -19 -278 -19 -285 q -1 -251 -19 -272 q 69 -153 25 -225 q 44 -114 44 -149 q 60 -83 44 -97 q 103 -68 75 -68 z "},"":{"ha":288,"x_min":4,"x_max":390,"o":"m 114 226 q 340 399 217 399 q 388 375 376 399 q 389 369 389 372 q 384 365 389 367 q 374 372 379 364 q 346 375 368 379 q 231 303 294 365 q 131 193 168 242 q 226 76 163 135 q 339 7 290 18 q 335 1 347 6 q 292 -6 311 -6 q 265 -2 274 -6 q 249 4 257 1 q 237 8 240 7 q 226 14 233 10 q 214 22 219 18 q 188 51 207 29 q 114 169 144 107 q 51 15 64 94 l 51 8 q 44 -3 51 -3 q 22 13 38 -3 q 4 31 7 29 q 39 289 4 100 q 102 444 54 375 q 214 547 150 514 q 284 565 249 565 q 347 524 319 565 q 353 508 356 511 q 339 510 350 503 q 267 535 311 535 q 263 535 265 535 q 57 99 107 533 q 100 200 75 157 q 94 217 94 211 q 95 250 88 247 q 107 244 103 253 q 114 228 111 236 l 114 226 z "},"":{"ha":601,"x_min":-10,"x_max":883,"o":"m 1 76 q -10 131 -10 103 q 17 190 -10 158 q 103 221 44 221 q 292 157 163 221 q 324 238 307 188 q 304 238 314 238 q 156 290 203 238 q 128 360 128 322 q 146 438 128 399 q 96 594 96 508 q 204 800 96 746 q 265 814 231 814 q 338 775 299 814 q 400 560 400 713 q 369 342 400 465 q 418 349 390 342 q 517 674 461 575 q 665 813 593 813 q 751 725 728 813 q 761 650 761 689 q 723 496 761 575 q 608 351 685 417 q 429 254 532 285 q 374 111 406 176 q 567 15 456 61 q 869 18 829 -92 q 881 29 875 31 q 883 24 883 28 q 882 17 883 21 q 807 -58 863 -37 q 736 -75 765 -75 q 557 -31 650 -75 q 411 49 464 13 l 360 85 q 183 -24 289 -24 q 142 -19 164 -24 q 1 76 36 -1 m 378 560 q 297 788 378 740 q 245 801 274 801 q 182 772 217 801 q 119 617 119 717 q 158 460 119 539 q 218 522 181 497 q 230 526 228 529 q 229 521 232 522 q 169 438 185 485 q 247 369 197 394 q 351 342 297 343 q 378 560 378 465 m 688 510 q 731 692 731 604 q 689 779 731 779 q 504 482 614 779 q 465 367 485 431 q 593 504 546 408 q 601 507 596 511 q 603 500 606 503 q 461 351 550 393 l 438 282 q 688 510 608 329 m 151 25 q 146 25 149 25 q 140 32 138 25 q 144 36 140 36 q 150 36 147 36 q 276 129 224 36 q 176 167 201 163 q 132 172 150 172 q 58 146 82 172 q 33 97 33 119 q 44 53 33 75 q 171 -6 78 -6 q 275 25 236 -6 q 331 86 318 58 l 338 99 q 289 124 317 110 q 151 25 229 25 m 164 397 q 213 303 164 342 q 331 264 263 264 q 349 331 338 286 q 165 413 235 335 q 164 397 164 404 m 340 239 q 304 150 321 185 l 351 125 q 396 249 365 153 q 340 239 376 244 m 594 218 q 601 212 594 218 q 607 188 607 206 q 594 160 607 169 q 563 147 582 147 q 532 160 544 147 q 518 188 518 169 q 531 218 518 206 q 563 231 544 231 q 594 218 582 231 m 415 336 q 367 331 393 331 q 349 264 356 286 q 403 272 374 267 l 415 336 z "},"":{"ha":417,"x_min":36,"x_max":392,"o":"m 115 251 q 83 88 83 138 q 97 28 83 38 q 129 18 110 18 q 194 39 149 18 q 265 92 240 60 q 289 107 290 124 q 281 82 288 93 q 199 22 256 50 q 108 -7 142 -7 q 93 -6 100 -7 q 39 93 39 7 q 51 192 39 133 q 38 199 38 189 q 63 238 38 211 q 282 699 146 585 q 338 724 313 724 q 392 674 392 724 q 289 439 389 563 q 206 343 238 376 q 115 251 175 310 m 371 668 q 353 703 371 703 q 200 492 296 703 q 119 282 144 365 q 283 474 196 354 q 371 668 371 593 m 310 326 q 320 326 310 326 q 342 314 329 326 q 354 284 354 301 q 342 255 354 267 q 310 243 329 243 q 279 256 292 243 q 265 283 265 265 q 278 314 265 301 q 310 326 292 326 z "},"":{"ha":601,"x_min":-10,"x_max":883,"o":"m 1 76 q -10 131 -10 103 q 17 190 -10 158 q 94 221 44 221 q 168 208 144 221 q 243 214 192 214 q 315 213 294 214 l 324 238 q 304 238 314 238 q 156 290 203 238 q 128 360 128 322 q 146 438 128 399 q 96 594 96 508 q 204 800 96 746 q 265 814 231 814 q 338 775 299 814 q 400 560 400 713 q 369 342 400 465 q 418 349 390 342 q 517 674 461 575 q 665 813 593 813 q 751 725 728 813 q 761 650 761 689 q 723 496 761 575 q 608 351 685 417 q 429 254 532 285 l 414 207 l 460 201 q 500 186 500 197 q 460 174 500 175 l 400 171 l 374 111 q 567 15 456 61 q 869 18 829 -92 q 881 29 875 31 q 883 24 883 28 q 882 17 883 21 q 807 -58 863 -37 q 736 -75 765 -75 q 557 -31 650 -75 q 411 49 464 13 l 360 85 q 183 -24 289 -24 q 142 -19 164 -24 q 1 76 36 -1 m 378 560 q 297 788 378 740 q 245 801 274 801 q 182 772 217 801 q 119 617 119 717 q 158 460 119 539 q 218 522 181 497 q 230 526 228 529 q 229 521 232 522 q 169 438 185 485 q 247 369 197 394 q 351 342 297 343 q 378 560 378 465 m 688 510 q 731 692 731 604 q 689 779 731 779 q 504 482 614 779 q 465 367 485 431 q 593 504 546 408 q 601 507 596 511 q 603 500 606 503 q 461 351 550 393 l 438 282 q 688 510 608 329 m 151 25 q 146 25 149 25 q 140 32 138 25 q 144 36 140 36 q 150 36 147 36 q 276 129 224 36 q 204 158 214 156 q 123 156 146 156 q 100 167 100 156 q 54 140 72 160 q 36 99 36 121 q 46 55 36 76 q 82 17 56 33 q 219 0 139 -19 q 275 25 254 8 q 331 86 318 58 l 338 99 q 289 124 317 110 q 151 25 229 25 m 164 397 q 213 303 164 342 q 331 264 263 264 q 349 331 338 286 q 165 413 235 335 q 164 397 164 404 m 415 336 q 367 331 393 331 q 349 264 356 286 q 403 272 374 267 l 415 336 m 351 125 q 371 169 364 149 l 311 167 l 304 150 l 351 125 m 340 239 l 331 213 l 383 208 l 396 249 q 340 239 376 244 m 292 157 l 296 165 q 278 164 289 164 l 292 157 z "},"":{"ha":231,"x_min":-85,"x_max":392,"o":"m 44 160 l -46 156 q -58 156 -53 156 q -85 167 -85 156 q -67 188 -85 174 q -28 206 -46 200 q 43 214 -10 213 q 63 238 56 231 q 282 699 146 585 q 338 724 313 724 q 392 674 392 724 q 289 439 389 563 q 206 343 238 376 q 115 251 175 310 q 104 214 111 244 q 253 205 192 213 q 315 186 315 197 q 256 173 315 175 q 154 167 197 171 q 104 164 111 164 l 94 164 q 83 74 83 111 q 97 27 83 36 q 129 18 110 18 q 194 39 149 18 q 265 92 240 60 q 289 107 290 124 q 281 82 288 93 q 199 22 256 50 q 108 -7 142 -7 q 93 -6 100 -7 q 38 93 38 7 q 44 160 38 122 m 371 668 q 353 703 371 703 q 200 492 296 703 q 119 282 144 365 q 283 474 196 354 q 371 668 371 593 z "},"":{"ha":953,"x_min":-4,"x_max":1232,"o":"m 393 54 q 331 148 331 88 q 383 264 331 208 q 578 368 465 344 q 624 549 615 463 q 443 736 571 713 q 417 642 417 701 q 454 532 417 583 q 454 526 456 529 q 450 524 453 524 q 444 526 447 524 q 406 640 406 579 q 431 738 406 701 q 407 739 419 739 q 254 681 333 739 q 133 517 175 622 q 107 383 107 450 q 185 278 107 278 q 269 319 229 278 q 326 389 310 360 q 336 393 333 399 l 336 382 q 269 300 322 349 q 164 250 215 250 q 90 293 113 250 q 68 386 68 336 q 104 536 68 465 q 253 701 157 639 q 442 763 349 763 q 450 763 446 763 q 533 797 481 797 q 649 736 603 797 q 725 582 703 663 q 776 351 758 463 q 838 317 804 340 q 922 621 888 549 q 1029 751 974 722 q 1111 769 1064 769 q 1190 733 1158 769 q 1231 660 1222 697 q 1232 651 1232 656 q 1225 647 1232 647 q 1217 663 1222 647 q 1185 701 1213 678 q 1120 725 1158 725 q 1049 708 1082 725 q 992 658 1017 692 q 947 588 967 624 q 908 497 926 551 q 856 303 883 417 q 908 247 883 281 q 954 119 954 185 q 918 38 954 54 q 903 33 910 33 q 814 138 853 33 q 792 78 803 100 q 892 -14 838 -14 q 975 28 931 -14 q 991 42 989 42 q 993 39 993 42 l 996 32 q 874 -32 935 -32 q 764 36 814 -32 q 737 29 756 29 q 718 42 718 29 q 732 48 718 44 q 751 54 746 51 q 665 361 694 174 q 650 361 658 361 l 607 357 q 422 54 543 188 q 456 49 439 49 q 547 90 501 49 q 556 91 554 97 q 554 82 557 85 q 454 39 507 39 q 414 44 435 39 q 86 -132 254 -132 q 21 -108 46 -132 q -4 -41 -4 -85 q 31 47 -4 3 q 36 51 31 51 q 39 47 39 51 l 28 19 q 17 -36 17 -8 q 38 -90 17 -64 q 92 -115 58 -115 q 393 54 244 -115 m 400 63 q 571 350 504 185 q 400 251 478 325 q 350 144 350 197 q 400 63 350 92 m 464 761 q 668 565 619 744 q 711 369 690 486 q 763 357 738 365 q 681 632 733 503 q 608 747 649 708 q 531 785 567 785 q 464 761 494 785 m 819 156 q 853 83 835 110 q 883 51 872 56 q 901 46 894 46 q 914 49 908 46 q 943 119 943 63 q 900 240 943 175 q 853 290 876 271 q 819 156 832 200 m 765 343 q 714 357 743 353 q 782 99 751 168 q 804 165 793 122 q 772 304 788 214 l 765 343 m 765 764 q 827 810 785 778 q 884 852 869 842 q 922 863 899 863 q 944 844 944 863 q 940 832 944 840 q 858 788 935 824 q 775 751 781 751 q 765 764 758 751 m 778 338 l 783 306 q 810 186 797 228 q 835 306 819 226 q 778 338 806 325 m 613 374 q 664 375 629 375 q 646 492 656 417 q 613 374 632 431 z "},"":{"ha":351,"x_min":22,"x_max":379,"o":"m 378 29 q 324 -28 378 -3 q 285 -36 304 -36 q 227 -5 240 -32 q 214 42 214 22 q 217 87 214 61 q 227 149 219 113 q 247 223 235 186 q 258 261 258 260 q 203 194 246 244 q 81 42 92 71 q 40 3 71 13 q 24 10 24 -3 q 33 50 24 13 q 64 236 64 167 l 63 274 q 94 313 63 297 q 119 319 108 319 q 135 301 139 319 q 121 231 131 282 q 93 99 99 110 q 269 321 175 174 q 302 331 276 333 q 331 318 328 328 q 328 290 333 308 q 310 238 322 272 q 290 169 299 203 q 269 48 269 85 q 275 -4 269 11 q 294 -18 281 -19 q 372 33 335 -12 q 378 29 378 39 m 192 436 q 253 482 211 450 q 310 524 296 514 q 348 535 325 535 q 371 517 371 535 q 366 504 371 513 q 284 460 361 496 q 199 424 207 424 q 190 428 190 424 q 192 436 190 433 z "}}}
